<mxfile host="app.diagrams.net" modified="2024-01-01T00:00:00.000Z" agent="AWS Architecture Diagram Generator" version="22.1.11" etag="generated" type="device">
  <diagram name="serverless_analytics_pipeline_888" id="generated-diagram">
    <mxGraphModel dx="1422" dy="794" grid="1" gridSize="10" guides="1" tooltips="1" connect="1" arrows="1" fold="1" page="1" pageScale="1" pageWidth="827" pageHeight="1169" math="0" shadow="0">
      <root>
        <mxCell id="0" />
        <mxCell id="1" parent="0" />
        <mxCell id="2" value="" style="image;html=1;image=data:image/png;base64,iVBORw0KGgoAAAANSUhEUgAAB8EAAAKiCAYAAABGhq3CAAAABmJLR0QA/wD/AP+gvaeTAAAgAElEQVR4nOzdd4AdV30/7O9qd1VWvfcuy8ZykSsx2MZ000wgARInwBsIoUMSCA7wC5gQignYgUAgFJvQMdjYuPduY8mS1SzZsnrbXbWVtNL23fv+IXu1e+/c3btNK42e5w9pZ+7MOefOnZlzZj63FGUymUwAAAAAAAAAwPHvqgH93QIAAAAAAAAA6C1CcAAAAAAAAABSQwgOAAAAAAAAQGoIwQEAAAAAAABIDSE4AAAAAAAAAKkhBAcAAAAAAAAgNYTgAAAAAAAAAKSGEBwAAAAAAACA1BCCAwAAAAAAAJAaQnAAAAAAAAAAUkMIDgAAAAAAAEBqCMEBAAAAAAAASA0hOAAAAAAAAACpIQQHAAAAAAAAIDWE4AAAAAAAAACkhhAcAAAAAAAAgNQQggMAAAAAAACQGkJwAAAAAAAAAFJDCA4AAAAAAABAagjBAQAAAAAAAEgNITgAAAAAAAAAqSEEBwAAAAAAACA1hOAAAAAAAAAApIYQHAAAAAAAAIDUEIIDAAAAAAAAkBpCcAAAAAAAAABSQwgOAAAAAAAAQGoIwQEAAAAAAABIDSE4AAAAAAAAAKkhBAcAAAAAAAAgNYTgAAAAAAAAAKSGEBwAAAAAAACA1BCCAwAAAAAAAJAaQnAAAAAAAAAAUkMIDgAAAAAAAEBqCMEBAAAAAAAASA0hOAAAAAAAAACpIQQHAAAAAAAAIDWE4AAAAAAAAACkhhAcAAAAAAAAgNQQggMAAAAAAACQGkJwAAAAAAAAAFJDCA4AAAAAAABAagjBAQAAAAAAAEgNITgAAAAAAAAAqSEEBwAAAAAAACA1hOAAAAAAAAAApIYQHAAAAAAAAIDUEIIDAAAAAAAAkBpCcAAAAAAAAABSQwgOAAAAAAAAQGoIwQEAAAAAAABIDSE4AAAAAAAAAKkhBAcAAAAAAAAgNYTgAAAAAAAAAKSGEBwAAAAAAACA1BCCAwAAAAAAAJAaQnAAAAAAAAAAUkMIDgAAAAAAAEBqCMEBAAAAAAAASA0hOAAAAAAAAACpIQQHAAAAAAAAIDWE4AAAAAAAAACkhhAcAAAAAAAAgNQQggMAAAAAAACQGkJwAAAAAAAAAFJDCA4AAAAAAABAagjBAQAAAAAAAEgNITgAAAAAAAAAqSEEBwAAAAAAACA1hOAAAAAAAAAApIYQHAAAAAAAAIDUEIIDAAAAAAAAkBpCcAAAAAAAAABSQwgOAAAAAAAAQGoIwQEAAAAAAABIDSE4AAAAAAAAAKkhBAcAAAAAAAAgNYTgAAAAAAAAAKSGEBwAAAAAAACA1BCCAwAAAAAAAJAaQnAAAAAAAAAAUkMIDgAAAAAAAEBqCMEBAAAAAAAASA0hOAAAAAAAAACpIQQHAAAAAAAAIDWE4AAAAAAAAACkhhAcAAAAAAAAgNQQggMAAAAAAACQGkJwAAAAAAAAAFJDCA4AAAAAAABAagjBAQAAAAAAAEgNITgAAAAAAAAAqSEEBwAAAAAAACA1hOAAAAAAAAAApIYQHAAAAAAAAIDUEIIDAAAAAAAAkBpCcAAAAAAAAABSQwgOAAAAAAAAQGoIwQEAAAAAAABIDSE4AAAAAAAAAKkhBAcAAAAAAAAgNYTgAAAAAAAAAKSGEBwAAAAAAACA1BCCAwAAAAAAAJAaQnAAAAAAAAAAUkMIDgAAAAAAAEBqCMEBAAAAAAAASA0hOAAAAAAAAACpIQQHAAAAAAAAIDWE4AAAAAAAAACkhhAcAAAAAAAAgNQQggMAAAAAAACQGkJwAAAAAAAAAFJDCA4AAAAAAABAagjBAQAAAAAAAEgNITgAAAAAAAAAqSEEBwAAAAAAACA1hOAAAAAAAAAApIYQHAAAAAAAAIDUEIIDAAAAAAAAkBpCcAAAAAAAAABSQwgOAAAAAAAAQGoIwQEAAAAAAABIDSE4AAAAAAAAAKkhBAcAAAAAAAAgNYTgAAAAAAAAAKSGEBwAAAAAAACA1BCCAwAAAAAAAJAaQnAAAAAAAAAAUkMIDgAAAAAAAEBqCMEBAAAAAAAASA0hOAAAAAAAAACpIQQHAAAAAAAAIDWE4AAAAAAAAACkhhAcAAAAAAAAgNQQggMAAAAAAACQGkJwAAAAAAAAAFJDCA4AAAAAAABAagjBAQAAAAAAAEgNITgAAAAAAAAAqSEEBwAAAAAAACA1hOAAAAAAAAAApIYQHAAAAAAAAIDUEIIDAAAAAAAAkBpCcAAAAAAAAABSQwgOAAAAAAAAQGoIwQEAAAAAAABIDSE4AAAAAAAAAKkhBAcAAAAAAAAgNYTgAAAAAAAAAKSGEBwAAAAAAACA1BCCAwAAAAAAAJAaQnAAAAAAAAAAUkMIDgAAAAAAAEBqCMEBAAAAAAAASA0hOAAAAAAAAACpIQQHAAAAAAAAIDWE4AAAAAAAAACkhhAcAAAAAAAAgNQQggMAAAAAAACQGkJwAAAAAAAAAFJDCA4AAAAAAABAagjBAQAAAAAAAEgNITgAAAAAAAAAqSEEBwAAAAAAACA1hOAAAAAAAAAApIYQHAAAAAAAAIDUEIIDAAAAAAAAkBpCcAAAAAAAAABSQwgOAAAAAAAAQGoIwQEAAAAAAABIDSE4AAAAAAAAAKkhBAcAAAAAAAAgNYTgAAAAAAAAAKSGEBwAAAAAAACA1BCCAwAAAAAAAJAaQnAAAAAAAAAAUkMIDgAAAAAAAEBqCMEBAAAAAAAASA0hOAAAAAAAAACpIQQHAAAAAAAAIDWE4AAAAAAAAACkhhAcAAAAAAAAgNQQggMAAAAAAACQGkJwAAAAAAAAAFJDCA4AAAAAAABAagjBAQAAAAAAAEgNITgAAAAAAAAAqSEEBwAAAAAAACA1hOAAAAAAAAAApIYQHAAAAAAAAIDUEIIDAAAAAAAAkBpCcAAAAAAAAABSQwgOAAAAAAAAQGoIwQEAAAAAAABIDSE4AAAAAAAAAKkhBAcAAAAAAAAgNYTgAAAAAAAAAKSGEBwAAAAAAACA1BCCAwAAAAAAAJAaJf3dAACOLy0tLbFzd1VU7toTe/dXx6Ga2mhqaopMJtPfTQMAUqaoqChKSktiaNmQGDNieEwcPzYmjBsdAwZ4P3dH9lTti4qdh8dqBw4eiqbGpmhpaenvZgEc0wYMGBAlpSUxYtjQGDNyeEyaMC7Gjh7Z3806prk/ANA9xcXFUVpaEiOHD4txo0fGpInjYsSwof3dLEidooxRCQAFaG5ujrUbtsSGLTuioaEhhg0fHsNGjIjBZWVRUlIaRUX93UIAIG0ymYimpsaoq6mJgwcOxMHq6hg4cGDMmTEl5s+ZEcXFxf3dxGNGJpOJzdvKY+3GLXHoUG0MKRsSw0eOiiFDh0ZJaWkMMFgD6FBLJhNNjY1Re+hQVO/fF7U1tTF06JCYP3tGzJw2OYqcR1u5PwDQMy0tLdHY2BA11QfjwL590dDQEGNGjYxT5s2KiePH9HfzIC2uEoID0Klt5ZWx8tn10dTcHBOnTI0JkyfHwEGD+rtZAMAJpqG+PnaWl0flju1RUlwcp58yN6ZNntjfzep3e6r2x/LVa6O6+lCMmzw5Jk2ZEkOG+iQJQE/UHjoUFTt2xO7y8hg+fGiceep8nwwP9wcA+sKBffuiYvu2qNq9JyZNGBtnvOSkGFo2pL+bBcc7ITgA+TU3N8fi5aujYueeGD9pUkybPTtKS0v7u1kAwAmusbExtm3cGLsqKmLShLFx3pmnnrCfCn9m7YZYu35zjBo9OmacNC+GDCnr7yYBpEptbU1seX5d7KuqivlzZ8aC+XP6u0n9wv0BgL53YN++2LxuXdTX1sZZp58S06d4wy/0gBAcgGS1dfXxpyUr4lBtfZy0YEEMH+kd7wDAsaV6//54/plnomzIoLjgnDNiyOAT55Nozc3N8dSKNVGxc0/Mnj8/xk10gwygL+2urIyNa9fGpAlj49wzXnJCvfnK/QGAoyeTycTWjRujfOvWOHnurDh1/uz+bhIcr4TgAOSqq6+PBx9fElFcEiefdloMGjy4v5sEAJCovq4unlu1KqK5KS552Tkx+AT4StaWlpZ4dNHy2H/wUMxfcGoMHzmqv5sEcEKo3r8v1j6zOkYOGxoXnn9mDBgwoL+b1OfcHwDoH7sqKmLT88/HzGmTY+GC+f3dHDgeXZX+kRoAXdLc3BxPLFkZUVwcCxYudIELABzTBg0eHAsWLowoLo4nlqyM5ubm/m5Sn1u68tnYX30wTl14pgAc4CgaPnJUnLrwzNhffTCWrny2v5vT59wfAOg/4ydNinkvOTU2bd0R6zZt7e/mwHFJCA5AO0tWrImDNXVx8oLTorikpL+bAwDQqeKSkjh5wWlxsKYulqxY09/N6VNr12+ObeU7Y96pp8aQsqH93RyAE86QsqEx79RTY1v5zli7fnN/N6dPuT8A0L9Gjxsb0+fMjlXPro/KXXv6uzlw3BGCA9BqR+Wu2F6xK+YvODUGDRnS380BACjYoCFDYv6CU2N7xa7YUbmrv5vTJw4eqo016zbFjNlzYuTo0f3dHIAT1sjRo2PG7DmxZt2mOHiotr+b0yfcHwA4NkyeNj3Gjh8fy55Ze0J86xX0Jm/hAyAiIppbWmLFmnUxfuLETr9Ws7mpKT77qU+0Tg8YUBxTpk2LWbPnxmtef2mUDR3W183N26b3/cNH4pQFpx31+rtiX1VV3HX7LfHGy/48hg8f0d/N6ZbPfPIj8f4PfyxOPuXUnMey94/SgQNj+oyZ8ZrXvzHmzT/5aDaz16ThNQM4EQwfOSrGTZwYK9esi4njxkRxcXF/N6lXrVzzfAwePCQmTpva6bKf+eRHWv8+FsZqbS1ZvCh++4ufxrkvvSDeefm7e738yory+NbXvhxf+I+rYtjw4d0uR/8PdGTitKmxu7IyVq55Pi4494z+bk6v6sr9gbbKt2+LJ594PDasWxtVVXtj3LgJcdrChXHBhRdH2ZCyXm9nR/3J8XSPAKAzM+bNjRWLF8faDVviJSfN7u/mwHHDJ8EBiIiI9Zu2RUNjY0yf0/lAqqWlJVYsezpmzJoTl7z6dfFnL78oIpOJ3//ml/GB91weTy9ZfBRanNymAwcOHPW6u2rFsqVx3Q+/H88+80x/N6XbVix7Og4eqE58LHv/OOuc82LDunXxiQ++L+69+86j3NLekYbXDOBEMWPO7KhvbIz1m7f3d1N61c7de6Ni156YNX9eFBUVdbr8sTZWa+uOW2+KTRs3xk03XB+ZTKbXy6+rq40Vy56OxqbGHpWj/wc6UlRUFDNPmhsVu/bEzj1V/d2cXtWV+wMREZlMJm6+4Xfxkb9/Tyx96skYO35CLDj9zMhEJn76wx/E44883Cft7Kg/OZ7uEQB0prR0YEydPjOe37glauvq+7s5cNzwSXAAIpPJxPrN22LCpClROnBQweud/2cvi/MveFnr9KGaQ3H1V78cX/ni5+PaX14fIwp8x/h73/X2eNffvCfeeNmfd7ntx7qk53bhK14ZP/zZr2P6jJn92LK+13b/+It3XR5f//IX4vvfvjouuviSGDR4cD+3rmtOlNcMIA1KBw6KCZOmxPrN2+Kk2dMLCoyPB+s3b4uRo0d16RN5x+JYrbamNhY98Xj8y2e/EF+58vOx5pmVcepp/f8JyhN5zAZ03/CRo2Lk6FGxftO2mDA2HT9T0Z37A/fceXv88v+ujS997ZtxxsKzcx5vaWnp7WYes/0JQF+ZOHVK7Ni6NTZt3eHT4FAgnwQHIHbv3Rd1dfUxYfLkHpUztGxo/OMVn4uWlkz86mfX9VLr0mfAgAExY+as1NyUL0RRUVG886//Ng4drI5Nmzb0d3O67ER8zQCOZxMmT4q6uvrYU7W/v5vSKxoaG6Ny194YP2lKj8o5FsZqjz/2UIwePToueuWrYs7ck+KRhx7ol3YUQv8PFGL8pClRuWtPNDY29XdTekVX7w/UHDoY1/7v9+L/+/sPJgbgEYfPp73teOpPAHpD0YABMW7ixNhavrO/mwLHDZ8EByB27t4bZWVlMbhsSI/LGj58RLzila+ONasPf21kzaGD8cC998SaVSti//79MXnq1Hjr298RU6fPiIiIL33+M1FZUR7f+dZV8eB9d8erX//GeP0b39zpep2prCiP6370/fjr9/xd3HfnHbF504aYOn1G/OVf/U2MGTO2dbmWlpa445abY/nTS2LYsGHx0pddFMuWLo5LXvO61t+7bm5ujttu/kOsXPF0lBSXxAUXXhwXv/LVrWU8s3J53HfXHbFr586YNGVKnHbGwnjFq16T97nl+53K+++9K5YuXhR1tTXxkgWnx2Vv+8soHTiwS8+nrc62YVe20Z23/jGWP70kysqGHv5K1W6YMOnwTZTampqorCiPH/z3NfHJT382bvnD72P9urXx1+/5u9Zt3tG2eNEjD9wfi598PPbv3xezZs+Nt779HTFm3Lhuv14dPZb9mvXm/gVA7xtcVhZlZWVRuWtPjBtT+Cenj1W79lRFUUSM6oVPGfb3WO3Be++OC1/xqoiIeNlFF8fdd9wWH/zoJ1sfL6SP7UrdFeU74uqv/0d85B8/FbNmz22d/9gjD8UTDz8Yn/78F7s8Zss3BulojAGk16gxh8/NO/fsjamTJvRza3quq/cHli55KmpqauLSN19W0PIdXa915bq3s/4EII1GjR0T5du2xqGa2hjaC/dxIe18EhyA2Lu/OoaOGNFr5U2ZNi22bdkSERFPLXoyHn3ogRgzbnwsPOfc2LJpU3z8g++P3bsOv2vx0jcdvlA+65zz4rK3vzNOOfXUgtbrTF1dbTx47z1xxSc/GsUlJXHWOefH0sWL4tMf/1A0NDS0Lvelz38mrv/Vz2POSfNjzNhx8b/f+3b84Xe/bf2965aWlvjsP388Hn3ogTjr7PNi9tx58YPvXBO/uO7HERGx+Mkn4rOf+mSUDhwYL7/4khg6bHjs2bWrw+eW9DuV3/jylfGzH/8wZsycFbPmzIvf//qX8emPfziam5u79Hza6mwbFr6Nrojf/vJnMXveSTF23OFt1B3bX9gnZs6eE3V1tfHEo4/EFZ/8aKxftzZmzpoTY8eOK2hbRER851tXxQ+++18xafKUOP3Ms2Lbls1RU3uoR69XR49lv2a9tX8B0HfKhg+PqgMH+7sZvaJqf3UMKRsaxcW98z72/hqrVVcfiKVPLY6LLzkcWlxw4UWxs7Ii1j63pnWZQvrYrtQ9afKU2L17dzx0/33t5t/xx5ti3PgJHT7HpDFbvjFIR+MIIN2KS0piSFlZ7EtJn9PV+wPbtmyOKVOmFfRp786u1wq9ziqkPwFIo2HDR0RRUVFq+hzoaz4JDkDU1NbFmBG99ympocOGRyaTiYiIi1/56nafwn3bO/4q3v2OP49FTzweb7zsz+OlL7swJk6aHBdd8qq48BWXtC7X2XqFuuZ7P4zJU6dFRMSC08+Ij//D38UzK5fHWeecF3967NFY/vTSuPaX18eYFwLYy97+l/HOy97Quv79994dFeXlce0vr4+S0tKIiJg9d178xxc+F5e/933xxKMPx5lnnR0f/sQ/59Sd77llW7LoyXj8sYfbteO1l74xPvDuv4q7br813viWtxb0fLIVug07KvPJxx+L5U8v6XAbFWLXzsr4wfe+Ha+99E0xevSYOLB/X0REvPUv39muLYVsi2dWLI9777ojfvKL38b4CRPb1XPv3Xd2+/Xq6LF8erp/AdB3BpeVxd7Kiv5uRq+oqa2LQWWDe628/hqrPfLgAzF69JiY/5LDIfPck06OCRMnxaMPPhDzT35Ju2U76mO7WvdrXndpPHDvPfHe9/9DRBwOT55e+lR84GOfiIjCx2wdjUFuvP43XR5HAOkxuGxI1NTU9nczekVX7w/srCiPocOHtZv3h+t/Ezdc/+vW6dKBA+O6X/2u0+vrF3V23duV/gQgTQYUD4iBgwZFTW06+hzoa0JwAKKpqSlKSnqvS9hZUR4zZs1qna45dDCWLnkqNqx7PmoOHYw9u3e1hqAd6e56bQ0uK2v9+6STT4nhw0e0fipn5fKn48yzzm4NKCMiRoxsf7G/euXy2FlZEV/+wmdb59XV1UV9XV1UH9gfZ5x5dlz1H1+Mr/37v8XLL7okXnrBy2PQ4K7dpF629KmcdkycNDnOe+kFsXrVinYheEfPJ0kh27DDbbRsaafbKJ8v/OunYtz4CdHY2BjVB/bHG97y1nj/hz/WbpkLLrq43XQh22Lxoj/FgtPOyLn5HNGz16s7r2VP9y8A+k5JSUk0NaXj91mbGpuiuGRg5wsWqL/Gat//ztXR2NAQV/zjR4+0pbIirv/Vz+N9H/xIu2U7G/N0pe5Xve7S+Pl1P47NmzbEzFlz4rGHH4o5c+fFzJmzO32ObXU0BumNMSFw/CouLonGxuRv6DredPX+wIRJk+OJRx9pN+9lF18Sc+fPj4iIpU8tjht/+6uI6Px67UWd9QFd6U8A0qakuCQaG9NxnQN9TQgOwOFPAhUV9Vp5q1etiDlzDv/m4nPPro4vXPHpOO/8l8YZZ58bo0aNjoezvo4ySXfX60zpC+82j4jYv39fDB7c8e/nFA0YEGPHjY+/eNfl7eb/zXvfF8NHjIxLXvPamDp9etxx683x/W9fHd/51lXxzsvfHe+8/N0Ft2nv3j0xaFDuTdJRY8fG/qq9BT+fbN3dhm3LrNpX1ek2yucv33V5nP+yl0dZ2dCYNn1GDB7SeTmFbIvdlRVR1uamSFs9eb1647Xs6v4FQB8qKmr9tPPxriWTiaLjfKy2d8/uaGxoiFe/9tJYcMaZrfNHjh4djzxwf2xcvy5mz52Xd/22fWxX6540+fDvcz/60IMxc9aceOSBe+PVr+v6N7N0NAbpjXEEcPwqKiqKlpT0OV29PzBr9tyoqtobG9Y/H3PmnhQRERMnTYqJkyZFRMTu3UfC686u1/btq0qso20f0NP+BOC4NyA91znQ14TgAPSqZUufimdXPxP/dMXnIyLipt/9Ns4976Xx6c9/sXWZvXv3xMYN69utlz14K3S9npgyZWrcc+ft0dLSkvf3y2bMmBUP1twVc+edFEOHDU9c5qSTT4mTTj4lPv7Pn4k7bv1jfOebX4+LLnlVTJ4yNSJyn1u2qVOnJbZj0/r1sfDsc7r57HpnG+ZrWyHOOOucOGPh2V1ap5BtMW7CxHj4wfsjkxAI9PT1yvdYdxSyfwHA0dZfY7WH7r8vxowbF5/+/Bfa9d+vf9Nb4umnFscjDz1QcGjRnTHOq193adx0w/Xxlrf9Raxcviz+5fNX5izT2ZitozFIROdjQoA0Ovf8l8b0GbPi+9++Jr5+zX9HcXFx3mULuV7rTG/2JwBAurkjC0CvqK4+EHfcenP8++euiPf+/Qdbb/YNKBoQq1eviqoXPsX73LOrIyJi+sxZreuOGDkyVixf2u7GYyHr9dSrXndp7N69K370/f+O5qamaGlpifvuubPdMq+99A1ROmhgXHPVV6Puhd/baWlpicqKw78xumnD+tjzwjvbi4qKYsTIkRERMXDgwLzPLakde9q0I5PJxG03/yE2rF/bpd8/z9Yb2/CVr319p9uoNxWyLS665JVRsWN7/PZXP29dr7KiPBrq63v0enX2WnbnuRzNbQcAHenvsdoD990TF73ilTnhcXFxcbz0z14ejz34QMHPpbO6y8qGRkTE/qojnyi8+JWvih3btsZvf/GzWHjOuTFq9Oh2ZRYyZutoDNLb4wiA40VJaWl88tNXxHPPro5/+vAH4pmVy6Ohvj4iIiorKuL+u+5s/WR5Z9drhejN/gQASDefBAeg27751X+PgYMGRVNTY+zfty9mzJgVX/jqVbHw7HNbl3nn3747PvupT8bfvP0tMXzEyBg9ekxMnjI1Stq8O/xdf/ve+MaXvxjveefbYv7Jp8S//cfXC1qvpyZNnhJX/NuX4uqvfyVuvenGGDhwUJx+5pntlikbOiz+/apvxbe+8uV452WXxpRp02PPrl1xwYUXxT//6/+LB++9O35//a9j+LDhUVQ8IA4eOBDv/9BHY+y48XmfW1I7PnflV+Lqq74St910Y5SUDozhw4fFl772rdZyuqM3tuHkKVPjiv/3pbj6qvbbqGzosG63qyOFbIu5J50cn/jUFfGD7/5X/OH630RpaWnUHDwYX/uv/46TTzm126/XLTf+Pu9jBw9Wd+u5dLZ/AUBfOlbGauU7tsfaNc/EBz780ZzHIiIuuOgVcd89d8aWzZsKel6d1T1+wsQ457zz4zP/+LF43RveFH//4Y9F2dBhccGFF8cNv/1VfPaLX84ps5AxW0djkCcefqjDMSFAmp125sL4wbW/iO9e8434zD9+LDItLVE6cGA0NjTEOee/NL79/R9HROfX153pSn8yefKUXn2OAMDxpyjjxwMATni33vtITJ09JyZOnlzQ8plMJlYuf7p1evCgQTF95pwYUpb8+8cNDQ2xZdPGKCsri0lTpsae3bsik8nEhImTWpc5cGB/VJTviGkzZkbZkLKC18tu0+y582L48BFRX1cXzz27OhacdkYUlxx5z9eaZ1bGpClTY/ToMa3zmhobY8uWTTFhwqQoLi6Jt73hVfG9n/xfzJ03v10du3ftjD27dsX4CRNjzLhxrfNramuicseOaGxqjGnTpucExNnPLV/bmpubY9vWzVFaMjAmT53a7p3tXXk+hW777m6jYcOHx+bNG2PsmHExbHjuV9hlvxZJ8tVdyLZo+9y2btkUxQOKY8q06TmftOrO65Xvsez29sX+BUDvqiwvj+0bN8SbX3NRfzelxx5dtCyKBg6O2fML7ztWLFva+nd/j9X2VVXFls0b47QzFib+REhDQ0M8u3pVTJ85K8qGlBXUxxZS9+ZNG2LcuPGtX7l77523x//817fiNzffHgMHDcppR6FjtnxjkM7GhCuBwxsAACAASURBVEB6bVy7NjINdXHh+Qv7uyk91tX7A9mam5pi65bNUVQ8IKZOmRYlbX7Pu62k67XOrrOKoqjg/mTUqNGdXpcCHI9WLV0aU8ePjgUnz+3vpsCx7iohOAA9vshNk7Vrnol/+ugH43e33d16gxd6i/0L4Og50UNwcn3jy1dGUfGA+JfPfaG/mwKkjBAcgKNFCA4Fu8pvggNwQnv+uWfjYPXhr7quramN6370v/H6N71FQEmvsH8BwLHhUM2hePSRB+OSV7+2v5sCAADAUeA3wQE4od1xy01x5223xNhx46Oqam9ccOFF8f4Pf6y/m0VK2L8A4NjwyP33xeBBg+Psc87r76YAAABwFAjBATihfeLT/xp/+74PxO7Kipg0dVqMGDGyv5tEiti/AODYcOmbL4tL33xZfzcDAACAo0QIDsAJb8yYsTFmzNj+bgYpZf8CAAAAADi6/CY4AAAAAAAAAKkhBAcAAAAAAAAgNYTgAAAAAAAAAKSGEBwAAAAAAACA1BCCAwAAAAAAAJAaQnAAAAAAAAAAUkMIDgAAAAAAAEBqCMEBAAAAAAAASA0hOAAAAAAAAACpIQQHAAAAAAAAIDWE4AAAAAAAAACkhhAcAAAAAAAAgNQQggMAAAAAAACQGkJwAAAAAAAAAFJDCA4AAAAAAABAagjBAQAAAAAAAEgNITgAAAAAAAAAqSEEBwAAAAAAACA1hOAAAAAAAAAApIYQHAAAAAAAAIDUEIIDAAAAAAAAkBpCcAAAAAAAAABSQwgOAAAAAAAAQGoIwQEAAAAAAABIDSE4AAAAAAAAAKkhBAcAAAAAAAAgNYTgAAAAAAAAAKSGEBwAAAAAAACA1BCCAwAAAAAAAJAaQnAAAAAAAAAAUkMIDgAAAAAAAEBqCMEBAAAAAAAASA0hOAAAAAAAAACpIQQHAAAAAAAAIDWE4AAAAAAAAACkhhAcAAAAAAAAgNQQggMAAAAAAACQGkJwAAAAAAAAAFKjpL8bAMeL2oPN0dyUicf+sDfh0aKEv/JPtJv9wpyiiMgUJT3Wfpncaos6mZVUW545RfkeL6SePMvkTHSwTNup5D9bp/JX3X47Tz+tJMbNLIlBQ4tigLf9HHVFTXWRaTgYsf6BiJ2rOl4270QH63S6XCanvE522w4qK2TRTM5CHa7T4THXcSFFL9ZXcGVd2MZl46P+5MsjUzw4onR4Z62jD1TX7Y39NbvjT2tvbTO34xc48XjI2R87KKOg/fHIQgVUl7jT5S2/zXm8kOMmf1mF9GntFy+kL+q0rKKIs2ZeGsMHjY2hg0Z1Vit9oKGuJZobMrH2oQNRs78p69Gej9UiOut3ujBW67ghnY7VOlwmf9Ud13PUxmrtlxkxrTgmLiiJ0kFFMaA0eyX6WnNLc9Q07I+tu9fG6m2Pt3mk4/4i8dEu9jmdj6v6qM/JWu547XMumn95FA8oiSHGav2i/tDh+wPLb6lKeLTnfU5RHL4/kPz4kWVyq+2sL+is92gzp5P6O6k6eZmcib7uc9pv5wmnlsbI6QOitMz9gf7Q2NwUNY31sXT7hti8t/LIA1k7UGf7dsHHVSedQCH7bbvzdv5CC18mz77fdlZSz1TU+c2PjpfpoOzO+s8Rg8rigqknRemA4hhcbLDWL2p2RxzaGbHi+si5D9RGJ6f75HU6XS73vlpi8X1YXyFjtYKqT3wOCduzk8I6Oozbajz5r6KlbGJkBo8vpHVAHxGCQyf272qMp+7eH0/8cW/UHGh+obNOGHwXZc9LumnT5q+ccnJ77aKsHr+QgXC3y8m6I5O9Ts68hLq7Xs4LWyrfgLsoa/pIxckXvlnlFEXEklvqI4oiZi0sjXMvGxST5zvtHRWNtZFZd2/EE9+J2La4dXZRUf7QtrPBes66rfPztKEooqjtYLZLdUXkGwjnW/fInwlBeEcD49YyOxno57vgyLNN812QtC8zk7RIRFHE4MeviJZR86L+jE9Ew9y/iMzgsfmfA72mYt+muHvlz+OBVb9pnZd0jszZF1uXzT5PJyyTc57OXSH7oi7pnJvveMjtK7Jqz3ffpU2l+S4qk/u47OmkfqeANiT0Icnnh8StEVEU8dBzP4+IovizuW+PC+e9K8YNn5FbAL2urro51j1eHU/fWhX7dzTkjLFapzoYq+XMa108YZxlrHbk3w7Gau3ndV7OmDklMf91A2PSaSVRPDCn2fSB58uXxm1P/yiWb364dV7Oa5RvXBFHsc9JHMPkO96yaj/KfU7iEZddbsIgrXt9zi+ibOCIeNm8d8R5s94SI8sm5hZArzu4pylW37c/VtxeFXXV7g90VHfXy+l+n5N0pCSN7Z67syGiKGLS6SVxyhsGxth57g8cDQ1NjbF427q4ceXj8ezOrcn7UNtjJvt4aHvya7dL5zmu2i6TcywmzCvKbUfiPpbVYST2J9nLdNgvtW1/UdashGM3p9/t5ByQfXz3YLv/Zu0TMXHoyHj9jNPj3ElzYljp4Jy66QN71kU8+f2Ip37SOivx3ljesVbWYt24r3b4vwKC8Lzjndx7Vh2u9+I6ieOi/O088lCm4O3ROivPNk0YsiWU2cF9tWXfjIiI+tP+IRpO/3g0jzopzxMA+lJRJpPJ//YhOIHt39UYi+6oiiV3748Dexqj4wvUdg+0medCt/Ny+v5Ct+3Kc84ZGGe/aaAwPMut9z4SU2fPiYmTJ/e8sNU3R+axb0dR+dLEhwXh+drZpr5CL2Ba/+ibIPxFzaNOjvrTPhQNp/xNROmI3PbTY9ur1sU9y38eT667M2obD+a8doLwrLZnzS/KmU7qdwpoQ1Ifkrhc4tZo98eQkqFxxozXxAXz3hGTRszNLYQeq69tjuceOBAr7qyKfdsboqMxVuuUILwb5XR/rNZ+XmHljJlVHPNfPzCmntPzsVpleXls37gh3vyai3pcVn97dNGyKBo4OGbPn9/jsp4vXxp3LLs2lm56IE8/0m4q/7gijmKfkziGyXe8ZdV+lPucxCMuu9yEQVr3+pzDUyOHjI9zZr05Xjr7rcLwPnJwd2OsumdfrLl/fxza2xQd9RVF7R9oMy9p/NRROd3sK07QPifpSOns/sCUhaUx/3WlvRKGb1y7NjINdXHh+Qt7XFZ/6837A49uXB2/X/ForN29vfN9SBCeNSvh2O3HILz1uCkbFa+csSBeNvWkGOKdi31j15qIJ/83YtUNEQ3VOQ8LwpPbeeShYycIb21R6fBoPOkdUXf6R6NlzILcurpo1dKlMXX86FhwsnsN0Imriq+88sor+7sVcKx5bnF1/O6bO2LVo9VRX9tS4AVquwfazHOh23k5R+9Ct6q8JZ57vDEyLRHjZxdHcUm+0dOJZe2GLTFi9OgYNrwHX6dYtTky9/97FN13ZUR1eUTkG5wm3IwseHCafCMzf12Ru590ZSCct7L862Yf9wW1sbXM5MZ1fnGQMDJPbkLC/Nx1swfsA+r2ROmWu6J4z8rIjJwbLUOn5n0adN3Dz94Y/3PXP8e6iqejqbkhEm+6RPI5MvGiLBL6hMQLvezzdO4K2ftC0jk33/FwogfhTS2NsaPquVi+5Z4YNmR0TBnV8+CKIyrX1cZDP6qM5bcd/iReRO5IQRCev+6ul9P9sVr7eZ2XU7svE9uXNkXdgUyMmDIgBpZ1f6x26ODBqN5XFfPnzOx2GceKLdsroqi4JEaP7f43s9Q2Hopbl/4ofvrglbF977rDM3PG062z207lH1fEUexzkubnPd6yaj/KfU7iEZddbs5C3Q/C65tqYtPuZfF85aIYPXRKjBs2PbcQum3z0oNx73cqYt0T1dFQ5/5AdrOPpT4n6Ujp6P5AdUUmtixqimiJGD2rJAb0IAvft2dPRHNTzJg6qfuFHCN64/5ARXVV/PSp++K6xffEnkMHDs/M3s+S9iFBeNashGO3n4Pw6sa6WLV7a2yt3hMTy0bG6MFDc+qnB5b9Mlp+93cRW5+MaG5IHMPkG9skvMyJE12/r/bCeonldVRX7v7UdrkO10vY9wtpZ/Y5oZA2ttaXZ5vmzM4pPneh7G1V1NIQxbuejoHPXx9RNj6ax/XsDVM7y8tjxNAhMWHcmB6VAyeAx/wCDrSRyUT86da98X9f3BKVm+temNn2/WqZdssmPpLJnpfpYjmZ7EWOzGstJ/fdadlf6tDtcto3NGednHkJdXe9nBe2VLti2my9TNb0kYqzW5JYTqbdw5lobox48sb6uPU/a6KpwZdh9Iq9GyN+9taIp65ttz/k+66RTCZrdJi7eyRM5Fm3k7oO74pF7aYLrysicRScyb/ukT+Lcsrs8LtXWsss6lI7j+zfyds0p8qk+VnrZnL+OKx0850x7ObXRkn5o9ml0g3NLc1x3YNXxrX3/1vUtH13dybhfBfZ+09S39J22ezzdMIyOefp3BWy94Wkc26+4yG3r8iqPbFN7SvNty8m93HZ00n9TgFtSOpDEpdL3Bo57a9rrI4bn/pq/GHpVdHc0pxbEF22Y01N3PD/tsTmpQcPz2j3+uYfY7VOdTBWK7ycjsc5xmqtFWfNK6ycTCZiw0ON8eg1tXFoV0tO2+m6hqa6uPrWD8VNi74XDc31Rx7IGU+3zm47lX9cEUexz0kcw+Q73rJqP8p9TuIRl11uzkLd7XOObL/KAxviZ499Op7ccGPidqFrMpmIlXdWxS1f3Rp7tro/kLROzryEurteTvf7nKQjpbP7Ay2NEatvaYjHvl0bze4P9IryA3vjc7f/X9y2elG0tLTpx7P3s6R9KOd+QvZ0a0FtishzXLVdJudYTJiXyW1H4j6W1WEk9ifZy3TYL7VtfyZrVsKxm9PvdnIO6KPtvnL31rhq8a2xtqo8p366LtPSFJnbPhWZmz8WRfX7j8zPc1pKvDeW+zInTORZt4O6jrzuuferOq/rxb9y71l1uN6L6ySOi/K388hDRQVvj9ZZebZpzuK5h2XOupmcP15oVcO+GPLgh2LIwx+LaGnKrQ/odUJwaGPR7Xvjpu+WR0tLJwPpF//KuUBt90CbeV0tp5sXqC5085bTfvBxeGr7c03xx2/URH1NvtETBdmzITI/f1tkqjZ1aXAqCM/Xzjb1FXoB0/pH3wfh0VQXw25/W5RsfyC7VLqgqbkhfvHoV+LBZ64/fP7M2Z8SzneRvf8k9S1tl80+Tycsk3Oe7qANiftTnjbk7Suyas978dmuhUkV5+njsqeT+p0C2pDUhyQul7g1ctqfyWRi0Yab4tYV1xz+tD/dtnXFofjjl7dEU0NLzhjryH/5x1itU4LwbpTT/bFa+3mFl3NwV8vhIHynILwnahsPxrdu/WCs3bHk8IyEPie5H2k3lX9cEUexz0kcw+Q73rJqP8p9TuIRl11uzkI9D8JbMi1x09L/jCfX35hbCF3yzN1V8cAPK9wfOM76nKQjpZD7A7vXNcVj36mLxtqksxyF2rF/T3z29p9G+YG9rfOORiCb97hqu4wgPKG6nm33xpam+PbSu2LN3h059dMFTfURd/xrxOKfHN7YnY4XXpwvCE9q55GHjs0gPDKZGPTMj6PssU9FtH1zKtAnhODwgucWVcfN3y1PGBTnGUi/+Ff2wLD9Az0oJ2GQW8gFqgvdvOW0H3wcntr+bFPc98PanHZToExLtPz8bZGp2px3IBzRhQF7VwangvDs1V744ygE4Q3VMfSuy6N4/9rsUinQ7cuujftW/jrhfNyGILxtC5MqztPHZU8n9TsFtCGpD0lcLnFrJLb/T+tuiEee/1VuIRSkakd93P6NbdFQeyQQzR5j5cyL3DFW65QgvBvldH+s1n5e4eUc3N0Sj1xT03HfSYd+fN/nYs32RZ32Ocn9SLup/OOKOIp9TuIYJt/xllX7Ue5zEo+47HJzFup5EB4R8cdlV8ez5Y/lFkJBNi85GA/+sKLDviL7kYjcviLT/oEelNPNvuIE7XOSjpRC7g/sWtsUS35al9NuCtOSycRnb/9pVByo6jikzd7PkvYhQXjWrIRj9xgJwuuaG+J/lt0TFTX7cuqnQE98NzKLfxL57llFJI0XXpwvCE9q55GHjtEgPCIGrvrfGLL8mtwHgF4lBIeI2LerMW7/SUW0tLzYe2UPivMMpKPt4gUMpLtcTsIgt5ALVBe6ectpP/g4PLV5RVM8+3BjTrvpXOaeL0VUbTkyLQjPU2b6gvCi+qoY/Pi/RlFTTXapdGJD5Yq4Y+lPW6cF4SdWEP7I2l/HtqrVuYXQoab6TDxyXWXUH3rhK+V7JcDurXI6HucYq7VWnDWv8HIO7cnEqht8SqI7Hnn2D7F80yOt04LwEycIz2Ra4s6V/xP7aytzC6FD1bsb4tGfVbo/kF3OcdbnJB0phdwfqHimObY87itqu+PaJ++OyuojQagg/MQJwmua6uP65/4UDc2OnS7bviRaHvte66QgPF+Z6QzCS5d9J0oqn8x9AOg1QnDIRPz+6m1RsakuZ0DbZpFo26slDJdd6HZQd9fLSb4waP03kzV9pOLsliSW037wkYmmhkzcf21NVO3wVZtdkVl1U2Qe/+4LE23mC8LzlJm+ILx00+0xeMnXskukA5lMS3zzlg/Fwfr9nZyP26304uxImH1kpaR1W5fNPk8nLJNznu6gDYn7U5425O0rsmrPe/HZroVJFefp47Knk/qdAtqQ1IckLpe4NXLaX9twIH766Kcik9HndMWi63fFxqeqE/fLiNwxVs681sUTXidBeDfK6f5Yrf28wst5/p6G2LbYjdWu2FG1IX7ywBejoamuS31Ocj/Sbir/uCKOYp+TOIbJd7xl1X6U+5zEIy673JyFeh6EVx7YEDc89ZXEbUIemYj7/qc8dm9xfyANfU7SkdLZ/YHmhkws+UVtVFcYq3XFw+tXxQ0rHs2ZLwg/cYLw5bu2xC0blubUTQcyLdHyi3dF1FZlnRMF4cllpi8IH1C/N4be9rYI9wegzwjBOeE9//TBeH7JwRemsi6SXOgeWaaDdXLmJdTd9XKSLwxa/81kTR+pOLslieW0H3xkorkp4skb6zoOJTmiqS7iof9sP0hLGrB3YXAqCM/Xzjb1FXoB0/pH3wfhg5b+ZxQ1+NqzQt329LVRXVcVEe1OYy9MZ5+P2xCEt21hUsV5+rjs6aR+p4A2JPUhicslbo2c9h+q3xcPr/W16IWqP9Qci2/Y9cJU4WO1nHmtiye8ToLwbpSTPMZq/TeTNX2k4qx5hZWTyUSsubU+Wnx5T0FaMi1x46LvRnNzY+J5UxB+4gThz1cujvU7n8otgERbVhyKzUvdH+iwnOOsz0k6Ujq7P9DSFLH6lnr3BwrU0NQUv1z6QLRkMp0HsNnT2ftZ0j4kCM+alXDsHiNB+O0bl0Vtk2/vKVTmsf+OqNnTZkbbPwXhyWWmLwgvqt8bg5Z9K7ceoFcIwTnhLbpjb/LgtHUye1CcZyDdbvECBtJdLidhkFvIBaoL3bzltB98ZOL5PzVGY12+URNtZbYujpbKhK/zTRqwd2FwKgjP18429RV6AdP6R98H4QPXXJddGnk8+Mzv201nneoTzsdtF04430X2/pPUt7RdNvs8nbBMznm6gzYk7k952pC3r8iqPe/FZ7sWJlWcp4/Lnk7qdwpoQ1Ifkrhc4tbIaf/ijX/MXZlEq+6pyr8PRHQ4xsqZ17p4wuskCO9GOcljrNZ/M1nTRyrOmldYOQfKW2LPhuacNpOrvqkmnlx7e+t00nlTEH7iBOH6nMKtusf9gTT2OUlHSmf3B7b9/+ydd3wcx5Xnvz15BhkgQIAkmKOYoxhEKsumZGXLctrV2lqns631+tYXNvmyb73r3dPtOsjZ67PslS3Zkq0cGUQxiFFMYiYIkshxMHmm748ZzHSonoBMoH76CJyuqXr1utJ7r37T1ftixMKi1U3CiJMtl7jQnnn1giTCjeNSczfGPFntklZ/1ZAkmLtjhAjffvl9U70SYiT2/9ycqOsSSYSLZY4/Itx94qfmOiQkJIYEkgSXmNDo645x+mDyV95C5zR9aXSKLRxpXfY8HOmC5Qic3HwC1HEa6GY+ZglCDGVyBbrv74qY9JUQ4EiSyBM6mCKHvQDnVBLhVnpq6ss3gEl/GF4i3HX6KbPOEia8f2U/7f6rps42LPWC9VibWbDeYRQpsi3avMZ1WpDHtE5n0UE4nix0sIj4RpuUEOk/3ER4V7CZC22HzIUlTHh/RzeQZQwA2XwsU1o6u2guDl6OIUt+PtY49dVU/Z8c61l+ci7tkY+C54NdJ/9gMabJMa40kES4VkNRxQOyOcIZZ5RryjQ4Ivx08z76wp3mwhI6BHtiNBzuAwZucwQzTu4PZKm7cDnWtiLzUWxzRDMl1/6AtDn54Y3Th8z9KIlwTdlMmjBPVrtkPefHKhG+++pZU50SZqgX34Huy/nvqxnSQeQv9KdLIlykZ+arsUeE2/ou47hqfqWEhITE4CFJcIkJjYaTAQI9MbI6p+lLo1Ns4UjrsufhSBcsR+DkGiz3RAl09U5DliDEIDibnIuH5LsmcyLURaJhb/pSEuGSCLd1ncXWdUqst0Qaxxt3E42FU0uWYHXKuh5rMwvWO5NIkW3R5jWu04I8pnU6iw7C8WShg6VOhtotg0+dhqKKLWyc8Vpkd/LQQWRDhPmErZH+EIuHOSOPp82Jzsthuq+E0dl50RiArD6WKS2dXTQXBydH+mr6TKr+T471LLec9rMxooFsBlMC4NDFbYDVmCbHuNJAEuFaDUUVD8jmCGecUa4p08CJ8ECkm0sdglOcJHRoOhUk1Cv3BwqSM4ZsjnHcG25HsJ7lltP0ntwfyIW+SIjjTZcAQT9KIlxTNpMmzJPVLml11c/VsUiEt/R10xSQr0zLifM7kq8aRGTzMayJkggXyxxHRHgshKPxLZHWEhISg4QkwSUmNM4c8muusjin6UujU2zhSOuy5+FIFyxH4OQaLPdECnQzzZMlCDEItgp0G4/LX3rnRF8rtJ7UJUkifGIT4Uq0B0erfKI1F4437kl/Ti5ZgtUp63qszSxY70wiRbZFm9e4TgvymNbpLDoIx5OFDin7YrYVhtotg0+dhqKKLWyc8Vpkd/LQQWRDhPmErZH+cLZ1v7mQhA4tZ0OEg4nUlWbMicYAkM3HMqWls4vm4uDkpMd3oT7WOPTV0n9Vw3WmYkNadjk9VxKEerMZSwmAE1lsjmjdlET4+CfCz7TKH17lQsN7cn9gQHLGkM1R+7/JYnNEM8Vqf6D1fUmC50JXsI8LHZqj0I39KIlwTdlMmjBPVruU0lXbPsa2ydLuI0mEB2MRzne3meqT0CNxbrvuWhLhMNGJcMeVbWKdJSQkBgVJgktMaJzc25tjoy75wejQCnKbHWld9jwc6YLlCJxcg+WeKIFu+q9quM5UbNREKEcFYhFoPC4D3WxInHxNmC6J8IlNhDsuvmitswQtPY1c6TinS0suWYLVKet6rM0sWO9MIkW2RZvXuE4L8pjW6Sw6CMeThQ6WtsJQu2XwqdNQVLGFjTNei+xOHjoIbIh4fRC2BqjQ2nOBjr4r5kISaZx/t0cwps0bh6Jxmcmi71jjzBkuIjytWaE+1gT11fRp2eU0HZG+WjYcv7yHSCysSxOPaXKMK60ASYRrNBRVPCCbI5xxRrmmTAOzOaeu7jYXkNDhwrt+uT8wQWyOaKaIfLt4BFrfj5v0lMhgz8XU+5+N/aa9lkS4pmwmTZgnq13S6q8akgRzdxSJ8KOtDaa6JDJQOxug9bQ5XWDb9V0iiXCxzPFBhNs738fWc8FCaQkJiYFCkuASExotDSGsnEqhc5q+NDrFFo60LnsejnTBcgROrsFyy0A3XbFRE6GcRAK6mmSQmxXtpwpzhEUOewHOqSTCrfTU1JdvAJP+MPREuF0eh54V/mAnXYE288Y2mDrbsNQL1mNtZsF6ZxIpsi3avMZ1WpDHtE5n0UE4nix0sLQVhtotg0+dhqKKLWyc8Vpkd/LQwainoP5kPmFr4A91Egh3mwtIpNF5OULBYwCy+limtHR20VwcCjnZ/Rzpq6UrNqRZy+ltSiBhjabOi8QTZn9WPKbJMa60AiQRrtFQVPGAbI5wxhnlmjIVbnNaes6bM0vo0NEo9wcGJecaszmimSLaH+htlvsD2dDQ2WI9ZrTXkgjXlM2kCfNktUta/VVDkqAfRokIv9Inj0PPimAnqr9VuGcliXCYqES4EmhBCbVbKCwhITFQSBJcQgKwciqFzmn60ugUWzjSuux5ONIFy7EINjRFZaCbrtioiaUcidyQRLiVzIlLhEvkB0mEi8foRCXCJfKFyFczbxyKxmUmi75jjTNHEuHWdRcux9rHUvV/cqxn1nIkcsN63TS2MDnGlV6o2I4YarHyKxhBmyNKt5xvhtpH2OYIZ5xRrimTtDnDB7k/MFFsjmimSJszMEgiPMsYMxgM4VpizJPVLmn1Vw1Jgn4YJSJcIj9IItxK5sQkwiUkJIYekgSXmNAwhXlZg6ZUHl0Wo1Ns4UjrsufhSBcsxyLY0BSVgW66YlO/m+VI5AtJhFvJnHhEuERhkES4eIxKIlzCiNztL4nw8eir6dOs5UhYwTgWBd9KIlygk6H2EbY5whlnlJtzDdTmlTanUGS3Ocb1K5VHl8XaVghmnNwfyFJ34XIGbnNEM0XuDxSCPMae9loS4ZqymTRhnqx2Sau/akgS9IMkwsc0JBFuJXPiEeFy6khIDD0kCS4x4WEK87IGTak8uixGp9jCkdZlz8ORLliORbChKSoD3XTFpn43y5GwxGAcYZHDXoBzKolwKz019eUbwKQ/SCJ85GBcAwXfSiJcYCsMtVsGnzoNRRVb2Djjtcju5KGDUU9B/cl80tgUitztL4nw8eir6dNEciSywzgWBd9KIlygk6H2EbY5whlnlJtzDdTmlZOmUGS3Ocb1K5VHl8XaVghmnNwfyFJ34XIGbnNM64ZJPMN9/QAAIABJREFUjkRW6MarxZjRXksiXFM2kybMk9UuafVXDUmCfhhhIlyiMEgi3ErmxCLCJSQkhh6SBJeY2BASBjLQlYGuRE4MxhEWOewFOKeSCLfSU1NfvgFM+oMkwkcEgk0BSYSLx6gkwiXSUFWhzS5oDPTL0eYzdKxx5kgi3LruwuWIfCxNS6mG60zFhjSRHAkhVEwLmyTCRWWt5puh9hG2OcIZZ5RryiRtzpBA7g+k5ExMm2NaN0xyJLJCEuEmPYRjzGAwhGuJMU9Wu6TVXzUkCfphxIhwOXlyQmizJREulimJcAkJiYFDkuASEjLQTckxtcDA5BgDm1zOsqDuwuWIAwP9xyxBiKGMDHTzxGAcYZHDXoBzKolwKz019eUbwKQ/SCJ8RGBYs8Hcr6og0VhsIhDhZp0MtVsGnzoNhTIlEX4NIicRrhlzojGQkiHIbfjH2sfKyB8KOdn9nInkq6n6PznWMzlv8oF+7TOORUFeSYQLdDLUPsI2RzjjjHJNmaTNGRLI/YGUnIlpc0zrhkmOhAna9pFEuEkP4RgzGAzhWmLMk9UuafVXDUmCfhgRIlwiLwhttiTCxTIlES4hITEwSBJcQgLEzqmFUyl0Tg1yDLnNjrQuex6OdMFyLIINTdGJEuiq/d9o2kgYhBgFS+SHwTjCIoe9AOdUEuFWemrqyzeASX+QRPhwQtV9MK6BgrwTnAhXU/9l018S4eMfuWy2eUybNw5F4zKTRd+xxpkjiXDruguXk2oVwTqk6v/kWM/kvMkHVjZHEuGislbzzVD7CNsc4YwzyjVlkjZnSCD3B1JyJqbNMa0bElmhYmjncUaEK6nY2tpWGtIkES5RKIQ2WxLhYpmSCJeQkCgcjtFWQEJiNKGiMZ+qCoqiT0NFVRUURV9CBZR0RlXjFmfkGHInDZ4C2m8y2TXXabGDlZPSSnNDOk1VUBWd5ik5Koqia4GByUFFyShqKpMUqS9nrLtwOamWyjSdvvU0HWfse1XRaYJEdujbT3tBas6IAihtv5jLJntRNcmzLCuoS3F4sZXUpDObiijGS0FfK4JymrKaEDidlvA3QzRouie9/gqmsaWbzxjao/+jkhJglCdSUiszVZ9QplnPzNqjpOaJ/gvTbVmlS2SFxnRoDUnyO0O/JrPoE43FzOtxLrtmrEdkW7R5DTbBYuy57G6cdhd2uwOHzYFdseOw97uZCk67izJvOV2BDuJqLF0uloiiqgmi8SjxRJxoIkIsHkU7ds22Qq+/3k6L2kkjwTTuRTYuexubx72FDkY9UYxdnhYpUQAENtvc/sb2zt9Xy/xj7WOlyw2JnOx+Tr+P5Su14/b2GyKj1wWgEA4kCPoTWeWYWuka8tVE65lEdljZHNFaLh7T2g+5bY4qGJumvk4VEvVlPjZHUWy47C6cDhcOuwObYk/aHZu9PwdeVxE+p4+OQKuubDQeRlUhGo8QV+PE0jYH63kyyjbHbJvNOpjbydrmSGRH7nVn/OwP2B0KTreC02XD7lCw2ZP5jD5jPAqxmEosrBKLqhbjePzZHLk/UCgMc0M3Xi3GjLYfRX1tsgmaa+M4E40hrQ7G+ZD+ymiXMvPK63Kxdd5SVtROZ8fFU2xvOEU4FrOwlYY07aAzrCV2xcby2mlsnbuUq/5unjt1mPagH/241LScwSBnt0vadUHf7sJ+yNbGg213OW1yQr/uaC9SSYK9tbz31QQy891XQ7FhL50MDnfy0ljA6JulK9MnCl0QRftR1aWpkT4Sfa2WbZLRv399z+Sz2lfLXCoY99X0Mg3QydSXzdlvkFrfVNMXJr8uM2WlyyYhMYyQJLjEBIc4QB2vga5JU8vNHkmES+RGNsdvNIhwxe6i7MFv4132ACh2c8bhgpogfPQ39D77RYgGUmlY6G9w1lN5xwMRLpE/9PsYBotj6FfTJoqg2EgQ4Q67gxJPOWXeCsq8lUwum8Lk0ilUFNVQ4ZtEqaecIncJXqcPj8uHy+7C4/TlbIu+iJ94IoY/1E0kHsYf7iEQ7qXN30RrbxMtvVdo62uiN9hFV7CdYKRPqP+1ToRLZIMqWHsmFhFeXufgE39bS9VUZ9aWam2I8m//s4WulphQznjw1frXM4n8YWVzxjIR7nK4KfWWU+atpNxXyeTSqdSUTqGyqJpyXxXF7lKK3aV4XUW4HG48Ti8uuztnW/SGuognEvRFeghFgwQivfSGumnrbaLVf5WW3iu09zXTG+yiO9hBOBYS6i+J8PGM8bk/oNgUSiodVEx2MmWOm0n1LirrnJRU2PGW2vEU2XA4zQMlEVcJ+hMEexP0dcfpaYvTejHC1XMROq/G6GmPk4ir5pYbJzZH7g8UivFBhDsUhdVTZ/K5tTexdPJUFBRun3MdexrP8f392zneemXARHhdSTl/tHQ9d81bitOe3LPYOncJPziwg20N7xOJJ8RricEgXxNEuERe0K872otU0igQ4Z4l91B2/z9j85YXfD+DQbzzAr2/+ROijfss20QS4RISEgOBJMElJK7BQHfyLA91s9xcPhOi7VIkh5yRJcJdHhuzV3iIRVQuHQ8TCV17ga5E/sjm+I00EW4vmYx32YOgjPCbPhQb7uvuJ3z0N4RPPp8jgEES4RKAtp3BuEM92kS4YrNRVVTNjKp5TK+aw7zJi5laPoNSbwUlnjKK3CVD0gYARa5iAEo91gF2PBGjL9xLT6iTNn8TlzrOcbHjDI2dZ7na3UBvqAuzndbclchOm8a9JMLHNoyeAmmbnbP9GZivlvnH2sfKyB8KOdZ+zozFnpwEOED1dCfTFrjpao4V5vMV5GP1N50kwq8lWNmcsUCE22wOakunMHPSfKZXzmbu5MXUlk2j1FNOiacsrx9U5YuSlK0p91Va5onGI/hD3fSEumjpvczF9jM0dJzhctd5mrovEYz2MRo2RxLhI4lrb39AJMdmU6id7WH2ci+zl/uome6iuMKefuI7H9jsCkVldorK7Eya1m+HilBVCHTH6WyKcfFYiLMHglw5EyEWGX82R+4PFIprmwivKS7ls2tu5I65i/E5Xek67TYbG6fPZWntNH574gBPHtlDZ7BPYCsN8zN17XY4uG/BSj66ZB21xaW6+5taUs5fb76L2y8v4gcHd3K6o0W8lhgM8pgnwqW3ljf06472IpU0kkS43YZ35cdGnAAHsFfMxLvpK0R//QhqImbZJuOdCJeQkBh6SBJcYmIjR4A61gLdKXM93PBABfPXFuPx2ehujfHTv26k/fLYIcK3fr6CxZuLUBMqHVdi7P2Dn/fe7CMRsy4z1gJdiRww+29ZnNORI8IVTzkjToD3w+7Es+5zRM68hhoL5whgGJ9EuEROmNdU7T6GweIY+lW7iaJPQ9OnAyfCy7wVLJ66mjUzN7OwbhnVJXV4XUU4bKPvKtptDkq9FZR6K5hWMZsV9RsBiMRCBKMBmrovcbLpECeaDnL08rsEo35deUs7bRr3kggf2xgIET44Xy3zj7WPlS43jES4rRDT1p+3UJ+vIB+rv+lG0VeT/lpO5GtzRoMIrymdwvL661k5fQPza5dS4avC6yrCNlp+nAZOu4uKomoqUj8GWzvzJlRUwtEgwWgfDR1nOXH1ACeuHuRk02FiiYiu/HDaHEmEjwBy2IrsNn9wNmeoiPCiSgcrbi5h6ZZSJk1z4vIM/bxSFCgqt1NUbmfaQjfX31NKT2uMU/uCHHrNT3tjLN0k48LmSGSHqYmuPSLcYbNx14LlfH7dzdQUWf/gt8Tl4Y+Wb+CWWYv44f7tvHLmGPFUA1jNz2U1U/nK+ttYOKnW0s45bDY21c9l2eRpPH3iAL84updANDIOiHCJrDD6AIL0dNIIEeEoTmyeUsEXIwPXvA/gqF1K7MrBrG0ynolwCQmJocfo72xKSIwi8glQRzvQtdkVame5ueljk1h4fbFuI7SsOnmkWdvlSB4B88gQ4fWL3CgKKHaFSfVO7vxCBRvuK2HX0z28vztEOCh+V+WYCnQlckPoSFp8N4JEuBbhM28SPvWarmzOPhZkUCzSAbzrPoO9YiYArlk34py5OUmEY90eGf0NznoqryTCxzfGChHusruoKq5h09zb2DD3FhbVrcBhz/2kaaZelVg8SjQeJRaPEIlH6A520BfuTR1p7icQ8adj0q5gO7F4FJfdRam3Mt0GdpudMm8VdpudCt8kfK4iSjxl2G1OnHYnDrsTh02sl8vhweXwUOatZEHtcu7lEWKJKCevHuLgpbfZe+EtWnuvEI1HrO20adyPAhEukRVq/x+RjwXkR4Rj2ji8lohwI3Y/101vexyA8hoHa+/Sb1QN2OcryMfqbzrpq41ljBUi3OP0MqV8Bpvm3caGObcwu3oBSgGEt6omiMajROMRYoko4ViY7kA7vaFuQrEgPcFOIrEwKJBIxOkKdJBQ43idRRRrNnKTNqgCh91JmbeSEk8ZXmcRDrsTp82Jw+7SvFs8AwUFj9OHx+mjwlfN8mnrAZVQNMSRy3vYf3E7By+9TVegnXgiNqw2Z9BEuERW5BPXZ7f5xvXLWo4ht6F/s8X1/WIzcmwOhbpZbjbcV8F1G0pwurOslipEIyrRcIJAT/KI877uOIGeuCmr22ujqNxOWY2DojJ7+h3ixunrcCpUTnGy/l4n199TyvnDId59oZfzh0PEIqq0OeMeqnjduQaIcJti47qaKXxl4x2sqK031Xmpu4NtF05xx9zFaXJcQWFaaQX/5eZ7uWfBCh7f/SqnOlpIqGr6lhSgrqScP121mQ/MXYzdMGn8kTCvnjvO3MoaFldPwZaqt8Tl4U+Wb+S2WYt4fO8b7LtygVgirl9LDAZ5rBLh0uTkiTz3Z4CRI8JVzRiI9NH72v9KXmjyZl0fLb5ULL5z1C3Hs+wjyTxOL75Nf07Pb/4E1ETWNhm3RLiEhMSQQ5LgEhMeYzXQdbpgxmIfa7dWsGh9sfAdXdqbyC9gHhki3IiKOgd3fbGSdfdEOfxaH8ffDtLXFZeB7rUOoSNp8d0oEOHRhr307fi/yQsrZ11QXqRnMt2cpsYilNz5d6DYwObAs/YzRM5vg3g0jwCG8UeES+SF0STCJxXVsGrmJm697m4WT1mFy5H7HarhWIieYCcdfa1c7rzA5a6LXO26RLu/ma5gB12BdvzhblM5BX1Ep597ij5Nyfxjt9kp8ZRT4aumzFdJZVENdWXTqK+Yw5TUseylnnLsgqfUHTYnS6auZcnUtXxs3Zc42XSQnWde5sDFHXT0tWjmzdghwiVyI6uPBeQmwvOQM6aJcD2OvOWn6Wzy6dNpC90mElx3d4X6fAX5WP1NJ321sYzRIsJtio3asno2zL2FWxZ9iNnVC4UEsxGBiJ+eYBdt/mYaO85xpauBpp5G2v0tdAU76A60p44k12OgNsdpT75/vNxbRXnRJCYVT2ZK+QzqK2ZRUzKVMl8lxe4ywdN7Ch6nl3Uzb2LdzJsIRvt47/Jedpx+gSONe/CHe8YkES6RG2N1f0BEhNtsyT2DjfdWsGBdkeVR5+Fggs6rURpOhrh8KkRbY5T2yxGC/kRGK9380U8mBQWXx0ZFrYPKKU7qF7qpX+ShotaBr1Q/rxUFZq/wMGuZh0snw+x9rodzh0JEI9LmjG+IfK+xTYRXeIv49OrN3L9oFV7N0ecA/kiI504e4scHdtIdCvBv7+3h06s288F5S3R5V02ZwRP3PMJvju/n347upaWvlyKXm3sWrOCTy9dT5S3WyY0l4uy7cpHv7HuTM52teBxO7p2/nE8uW88kXybvtNIK/vct9/PWxVP85PDbXOxuT/mD1w4RbvZgJSyR5/4MMHJEeP/30WBmXw19Wb2vpS9XyL6arWgS7gUfRHEnYxrXgjuxV84h3n7arLKl/v3reybfNUuES0hIDDkkCS4xwZF/gDpSga7NbmPWUh+bH6xk9vKi7OR3WhoFBMzDS4RbQkm+q/K2T5ezamsxB17yc2x7gEBPgrEW6EoUAKEjafHdKD0RbpZXeFBhVVfo0JP4Nn0Ze/l0ANzz7sBZt4po454860IS4RMUI02ET6uazdalH2bLgg9SU1pnWuO1CEaSx72eaTnBqab3ONf2Pp19rXT2tZFQE+l8xnXZTJ6YiTxL26oZT/FEnK5AO12B9kyJlJj+Y2qrS2qZW72YBbXLmFW1gMll9SaCwmFzsGTKWhZPWUNbbxNvn32Z1048Q1N3g9lOm8b9yBHhcoMoF5JtlPVJbiC/J8Kv3aPRjU2S7ceHOhkD8fkK8rH6m076amMZI0mEKyhcN3Uldy59iHWzt1Duq8qqW0+wkwvtpznVdIzTzUdp6DirsQEZDJfNicbDtPubafc3Q2umvAJ4nD4qi6qpLZvGvJolzJu8lFlVC6gqnmy6D6+ziHUzb2btjJu41HmGN99/jh2nX6Qr0DYsNmegRLhELuRvK7Lb/MHZnHzi+urpbm56uIrrNhbjdJtPVohFVRpPhji518/5I0FaLyXf2Q391fbXkJ+tiIQSNF+I0HwhwoldfdjsCpW1TqYtdLNog4/66zx4ijJ6KDaYfp2baQuruXAkxNu/6ebSiTDaJwzTdUmbc+0j1WbXAhHustm5bd5iHl29hVkVk3SyE6rKnsZz/ODdbRxtvkwiNQKa/N387x0v8NKZo3zx+ltYWjM1XafH4eQTy9Zz44z5PPv+IW6auYDF1VNMel/oauenB3fy5sVTROLJVwaEYlH+7fi7vNN4lk+t2MStsxbhtCd/WGK32bh11kJW1NbzmxP7+fXx/YTi0UzLGYzamCPC5eQpDHnuzwAjToQPRM9C9tUSfW0E9/0Y3w1fAUg+Db7xMXp//2VRtVn071/fM/kkES4hIQGSBJeQYKwEuopdYfYyH1s+XMWspUU4XGbz5++K03QuxNxVRTrt9Q5t7oB5OIlwLTqbYgT9CabM1f+qtrLOwa1/Us7qrcUcfKWPI2/0EerVO2OjGehKZIfJjRU6khbfjTMiXA11E3z3JxTf9vVkgt2Fd/0XiP56TwF19W/s5nCEhfqbHfbRIsIlskPURiNBhNeWTePhdX/KjQs+SKm3QqybqnKl6yKHGnZz4OIuzrQcpzvYQSgazAgTBGXmzRHz2BsoKWFqldTYjcYjtPRcpqXnMseu7Md2xEaxu5TasumsrN/ImplbmD1pke5pQwWF6pI67lvxJ9y84B5ePf4bfn/k5/RFevs11NWv091kK81tPHgiXCI/TGAiXNwcqMInLFTDlSTCJyIGY3MGQ4TPn7yEj2/4PGtm3oDH6RXqllATnG05wcGL73Do0m4a2s/QHewkGo+gNTajZnNS5VUgFA1wpesiV7oucqDhbeyKnVJvBTMq57Fy+iZWz7iBqeWzdHopisL0ynn88fqv8oHFD/PcoZ/xxvu/I5bQEBcm5QZmcwZGhEvkRv62IrvNH5zNsTwxzg0b7q5ky0eq8JWYT1fo64pz+K0eDr7eQ1tjhFhU1egotjkDsRWJuErb5QjtV6K8t62Psho7izYUseqOEipqM1uNNlvyyfBpC1y891Yf237ZTcgvsFVj2OZIZIeq/TCGiXCAOZU1PLbxdjZMn4PDcDpJW8DPt3e/zitnjhGOR1OpGZuQUBMcuHKRx55/kjvnL+XRVVuo8hX156K+rJIvrbvF1D6ReIwn39vDU8fepSPYl1QlrWuyLRp6OvnGzhd59dxxvrDmJuZW1qTLV3mL+OyqLWyZPo/v7d/GgeZLqOo1QIRLFA6jDyBITyeNMyI8uPeHeNc+iuJOvnbAvfgBAtu+SbznkqjaLPr3r++ZfJIIl5CQkCS4hAQwmoGu0wnzVpVw88cnMXWux3SEmapCb0eMt3/bwf5Xupmx2KsjwQ21Zg2YR5oIb78c5dffaGP2Sg8b7itl6gIXdkfKTVCgotbBLX9Uxob7S9j3Bz+HX+sj0J1AHfVAVyI7FLMzK3QkLb4bJiLcLC+7ngMJKkR6hvb9GN/6L2ArTgaq7sX349j+D8SajxZQF5IInwAQbtgPExHudDi5f9Uf8/H1n9e9D7Uf0XiEq92NvHbsd+w9v51LHeeIx2P0n+gh3iwxB2WjQYRrVUuQoCfURW+om9PN7/H0gR9RW1bP5rkf4Mb5H6K6ZIqOEC/zVvLg6s+wae4H+dd3/pH9DTtIqPGM5TCNe0mEjzpU/cXQEOFklyMkJUBLjo0kEW5cYD/9zSnpNJHdLPg1NlY+X0E+Vn/TSV9trGAwNqdQIrzUV8Efb/wSW5d9GLfDY9IlFA1ytuUEb5z8A++e30FrbxPxRCz9va6vdfMsh/7DZXNEOqgQJ3NSyeHG3fy/3Y8zq3ohtyy4h/Wzb6XUW5k+lURRFGpLp/GZzX/JTQvu5oc7v8H5tpOo2hkwBDZHEuHDBeO6k0wbTSJcURRqZ3m494u11C/y6vtUhd7OGLt/38W+F7sI+uMpO5EqrZFjZXMGsz+QiEPn1Ri7nulm3/M9LFxfxMb7S6me7kq/P9zltbF6awmzV3p56YkOLhwJ62I4aXOubRjtyVgjwktcHh5ZdQMfX77edPR5MBblxVNHeGLvm7QFMq/bUJS0IJ3f1hcJ8+tj7/Lm+ff59KpN3LNwJW67eXs9lkjw7pXz/N89r3O+sy3tzpliuNTnSCLOO43nONh0iY8sXsMnll5PiStpUxVg0aQ6/uG2h3j9wkl+eGgHTf4ekz8rGs+SCB+7EO45GX0AQXq28oMmwodYz3z31eJdDYQOPol3/ecAULzleDd8Ef9L/1m3Dmevq19m//qeyXctEeESEhJDD0mCS0xoZA92kmnDFei6fXbmrCxiywOTmLHYJ9wc77ga4d2Xu9j3UhfB3jhid8RUqylgHo5A13Jz1YBEXOXMu0HOHQoye7mXdXeXUH+dO3PMuwLeEhtbPlbKqg8WcfCVPo6+FaC7JT56ga5EXrgWiPBceg4kqDDqmQh0ENz7fYpu+etkgs2Bd+OX6f3t5wtzhFWubSJcIi+MBBFeXVLLY7d/nQ1zb8Y40LoC7ew5t41Xjv6WY5f3J483V9KjyKIekW3Jor/oHk3rtHacGWxrpjpMrWIxH/rX+HgixuXO8/xq3/d4+sCPWDvrJm5f9ADX1a1Ov/9cQaGubDpf+8A/8vvD/8pT+58gHAtmLIdp3A8vES6RHYIV2LThVzgRnoccEdmnudD5XensglGrkaPYFSonO1On/WTyGeded2uMSEh75/pWyP2qnBy+WiE+X0E+lrjuwuXk46vJyZMPRoIIn1uziP9w5/9mTs1CUz2tvVfZ9v5LvHL0GS62n0l+oRhHmcDmjGEiXDtPYokYp5uPcrr5KE/u/Rc2zLmd2xc9yOzqhdgUe+p2FeZPXsZ/vfuH/HzP/+GNk78llogNqc2RRPjQYTT3B7IR4Xa7wurby/ngozV4i/VPr/o7Y+x7qZt3nu0g0BPXdfRo7A9EwyrvbfNz8p0Ay24uZsP9pbonwytqHXzkr6rZ9UwPu3/XS1Rj78auzZHIDhVdK6cabiwQ4Q6HjS0zF/LF9bcwW/N0dT96wyH+7PknOdx0KVUW9PMjJcj4Q0hVoa2vl2/ufImXzxzlS+tuZUXd9LTcS90dfH//Nt44f5JYIpEZsdp5LiDCVZJHpP/r4XfYduEUn1tzI5umzUkfke602/ngnMVcP3UWPzm8ixfPHCUYi45JIlxOnfwwFonwodYzr/0/NUFw7w9wL3sIm68SAPfShwju/g7xrga9vKx1oZnHqq7QtUKES0hIDD0kCS4xwTHwAHWgga7bY2Pp5jLWf6iSqfPMT34DtDSE2fVcB8d39eLvjKfTRU6D1kMRBcwjEegKWsmERAzOHAhy4UiI6Ys9rN5azOwVHt2x78UVdjY/XMrKO4o4viPIwVf66GyKjXigK5E/xhoRPhA9BxJU6PVUCR1+Cu+6z2aeBl94F4GaRcRbjhdYF5IInwAYTiK8tmwaX7/3cebXLtHJ94d7eeXob3nu4C+40tWQWg/1Ao1D8lolwvsRjUd55+yr7Dv/FkumruWupR9nRf0G7Lak+2tTbNyz/BHKvFX8cOf/IjRKRLhEbpjH02gR4fqO1aWlswtGbUrO6ttL2fqZGlwe87tb0/kTcHRnL09/qwk1kZTT2xknkUgeKZsN8ZhKX1fGbxzPRLi0OfljOInwRXXL+W8PfJvKompdntbeqzx78EleO/Ys7X0tALp5pZ+bIj0zC73I3RtLRHg/ekM9vHr8aXacfoHrZ93CXUs/wezqReknw72uIj698T9Q4i7nt4d+POSnkORLhEvkwsjvD+SyOR6fjdv/uIb1H6rQ7R3EYyrHd/XyxpNttDREIC3W2naN5P5ANJLgwMu9nNobYNOHy1hxazFOT/J7u0PhhofKmDzDxSs/6qSnTWO7xqLNkcgONfNhLBHhcypr+Nz1N3Pz7Mx7to0IRCMcunIxo4NxPmhifuGJQCocbmrkW7te4ecP/mla7i/e280rZ44Z5qLxfrEkwhXgYnc7X3/rWW6YPo9HV2xidkXG1lZ4fPz5ulu5acZ8fnJ4F4ebG1HTewHi8TzSRLh01vLHmCPCh0HPfPb/Yu2nibz/Ip6VnwDAVjIZ98pPEnjzG5j2urLW1S+zf33P5LsmiHAJCYkhhyTBJSRGKNB1uBWWbi7nhvuqmDLXK9zIbGsM8/bvOnhvew99vXGN7IwDLnRHxkigK/qtp1FOLKZy/nCIhmNhps53se6eEuau9qJ9HVNxhZ119xSzeIuXY9uD7H/RT3drXAa6YxSSCId45wVCh3+Fb9NjACjeCrxrPo3/hb8YQF1cu0S4RN4YDiLc43Dz2O1/oyPAVVQOXNjFT3b+H041HU1ujvR/pxtPIrtmrEdkW7LoL7pH0zqdRYdMdZhaJUcAqxUZS0Q5dGkXx668y4r6jXx07ReYNSn5xKKiKGyZfyfNPY385sD3UU2bdwbdTbYSSYSPCAZAYAPzX/klAAAgAElEQVT5EeHGfhw+Ivy6jSVZCXAAxQZLbijht//UTDyRlHP2YICXfthK3Wx3UjOL8XPldJjzR4P6exunRLhEYRgOIry6uIav3fkNHQGeUBO8cuy3/GLXd2nqbtSXMdic8UiEq2ry6Pdtp55n34VtbJr7AR5a/VkmFdcC4LA7+fDqz3Cp8yx7L7yBbgYMgc3JhwiXyAdjhwgvrbRz/2NTWHh9ia4f+7rj/OGJJo693Us8qo3r+8Va266R3h/wd8Z59ccdnH43yAceraBqmhNIqjf/ei8lVXaee7yd9ssxXbmxZHNktJMHRGM6NdhHmgj3Ol18dPn1/PGqG6j06l8lGEvEicbjpiPRdToY50P6K6NNyMyrhOFXRvGEmvb/BkOER+Nx3jx/koNNDXx8yToeXLgqrbuiKKyqnc7CqlpePHuUnx5+h65QQGfURp8Il8gXY40IHw49c+7/JeIE9zyB+7p7Uu8GV/Cs/CTBfT9G9TcJfKVsdfXfe//6nskniXAJiYkHSYJLSADDGeg63TZW3VLBxvuqmDzDjc1m3ixpaQiz87ftvLejm3BfIi3RKkDVa67Xx6D9iAe6IojkxGPQcDxM4/sRauc4WX9vKfPWeLBrjvgsKk+S4ctu8XF0W4D9L/bR3RxPt8HwBboShWLCE+EkCB38BZ5Vf4TNWwEk3w0e2P0dEh3nBlAXkggfhzBv1pn7ZTBE+E0L72LdrBvT15F4hJ+//S888+7PCMdD6XTLDfNxQIRbkRKKknwP+r4Lb3H86gE+suZzbF3yURw2BzbFzoeWfZI951+nofMMup4yjXtJhI8ehosIz9/nM+Q29K+1j5Uul2ef978/tV9OPAZ7ft+d+R795FP0Fzl9tfFBhEvkwlDaHFHZj17/WWZUzU5fdwc6+OfX/js7Tr1MXNWcZJXF5oxXIlxRIBDx8+rxp9l/cSefv/GvWTNjM6DgtLv49KavcbBhJ9FEBF1PDYHNkUT4UGH0ifDKWhcP/8epzFjkQ/vVxWMBnnn8Km2NkXS6Pq7vF2ttu0aaCE/EFc4dCvLzv4lw26cqWHxDUdrW1c118fBfV/P037XRfCGqKydtzrUDyzGd+mIkiHCborCufjZ/tukDLKyuw2YYh+c7Wvnm9hf5xIoNbJ45X3ATGh2M8yH9ldEmiKwT6WGTvH3jXDTeL1mJcICuYIDv7t/O6+dP8sU1N7Oyrh57ahL5nC4eXLiKG+rn8sSBHbx54X1iahyr8TyiRLhEQRgTRPgw65lr/y965SCR8ztwL7wTAHv5dDxLP0zgnW8j2v/LXlf/vfev75l8kgiXkJhYyHGonoTE+Ib+yWXVQDCrmb+quER/AYOLgaqCr9TO+ruq+OoT83jwz6dSN8ujI8ATcZXLZ4L8+h8a+b//7gz7Xuok1JdAJ1HVyrY2hhn1jLmzy1FVw7XA8VH1F8YWSMnJbait5CTiKldORXjm79v46X9s4dj2AOFAQlfWU2xjzV3FfPpbNdzx2XImTXdqNogF+uhv2FS3Pi3VUoK+l7CARfOoqsCTs7o0fmcsm07PXr+q9SoLcNit5VnrKCybTodY8zHCx36XTrOV1OJd8yiqojG1BdUFVgG1VdnMR0XQxkLVDTI17ZmHnpm1Rwa5eUGwhor6xbiuqboP4vIKCluXPZjecIgn4vzTy3/Dk7ufIBQL5VjXzQKNagnXSGNZK/1F92hap7PoIIzJLXRItXG2du4L9/DTXd/i2UM/Teta5C5h3axbxPbeNO5FttJ4LbI7BinS1OSJbL5aKk2XTeCpqKYRIRjTOeRk8bFMaens1p3c1x3nue808/vU/+cOB4T5RHJy+Tn5+GoD9vkK8rHEdRcuR+SrSWSFZV8IsuZpc7TZKourWT/nJvr9hq5AB3/7uy/x5skXiCfiBdkcsR0xaCRcRy30Hy6bI0q3nG+Zzx19zfz9y3/Bvgvb02lVxbUsm7Z+2GyOcMbJ+ZMXhnN/oBA5k6Y4+dT/mK4jwOMxlT3Pd/KTv2mgrTGsq8Uc1+v1MdRqGCfZ5AzQVohsjgr+zjjPPt7GW7/sIhbJ5Cmf7OCjf1tN/SK3sJxV3aY0Qd2FyxHZHDmB8oHlmE59IfThdFMuj7Gnvdbk9zldfP3W+/n2vY9wXc0UHQHeGezj2++8zif+7XvsvnSGeEK/36QfD1nmg/aGdOqpmMeIIY9pLgrSVLMeuuZJJHi/vZmvvvoU/33781zp7UaLyUWl/M0Nd/J3tz7A1OJyXW3G8Wwd26mGJEE/mOxu7jVAwgwVC59FtLdi6cPkVz7vfTULmSIMRs+s+3+qSmD736PG+3/opeDd8CUUbzmqYL8qd139n8z7gFnL9ZcRtrFQfYNMpbB+A+S+moTE8EGS4BITHsMR6NYv8PL5f5jDA49NpWqKPpBLJFQuHOvj1/94mSf+4jwHXusiHlMLDlDN96HXJ185w0qEG2KBXHKaL0R47vEOnvx6G++9FSDo1wcnTrfCitt9fPJ/VLHhwZKsdcvN1eGFVVuNKhGeb1lRXYMMKvrrCu5+AjXsT6d5ln0EW3GtZVCRuy64ZohwifwgWPuGhAhXYEHt0nTascsHeO3Yc1gVG+9EeFq+hQ6qmuDpAz+iN9SVTptTfR02m11s703jXmQrjdciu2OQIidQbpjmzHAR4XnIGUIiPBxIsPf5LvY838Xe57toOh826ZJNjiTCJXIij7Uwk5afzenPVlVUTXVpXTr9zRPPc7Rxv6CsQAeBzRHbEYNGwnXUQv/hsjmidMv5lvkcjYf51b7vEo0nn3JVUJhbs8R6vRkCmyOccXL+5IXRJsJLKh18/C/rqZ6W2UeIRVVe/mkLv//uVSLBhEa2ta1Q9V8YazWMk2xyBmgrLGyOGoddT3fzh++06+L9onI7dz9WyeSZTnM5aXOuAeSYG6kvhosIv33eEu5bvAqH5r2D0XicV04f5U+f+TE/2reNYDQqNiIYx0OW+aC9oSx2SZhnCIhwVJVYIsGr547zhRf+H785sZ9AVHsqhMK6KTP56OK1JqM28kS4KUlCgDFJhOdT1qKefPXMtq8WvbSP6Pkd6TR7eT2exQ/o9TT5Stnq6v90jRDhcu5ISAw55HHoEhMbKoJjtFQGe/TZmtsrqJ3p0VeVgAvH+tjxdBun9vuJRvoDvvyO2xQdO2txO3nKSedOZddcM/Cjz4z6GKrKKUdVVa6eDfP8P0eYVO9k1QeT7wZ3+zLBjNtnY+ODxez6da+u3FAdfSaRHzTDzJA+OkejD6We2XTMpme0+RjhUy/hWfphAGylU/Cu/CR92/8eq/ct5a6La+Jo9NwrlEQawrXP3C+FHI2OCi6H2yDAfJn3EaoGuybWM7uNGu2j0c32Xa+Doig6/Zx2V3qWWh/naNDdZCuzt7FYf4mcMM0Zo6+WSmOwR6OnqxvWo9EFt2eRll1OLj8n32Nqr8Wj0SXyRB5rYSYt/6PRbTYHDpt2K0EVzA1yjCv9ej+ej0aH5DG9Wn36bfZw2hzR0egSOSCcM4PfH8hXjq/Ezsf+Uz1T5nrTpSLBBC/8qJk9z3ekutDo91jbiox6+vnpK7FRM93N5BluJtU7Ka9xUlLhwGbXj5hAT5zejhjtV6K0XIzQfjlK+5Vo/90M2OaoCTi2vY9oWOXuL1bhKU7G+uWTHdzz51U89T9b6W6J68tJmzO2oRnI2dc1Cx9ukEejl3m8WoGc72jlX955jW3nTxKNJ8eS5RHdojGk1cE4r9JfWQRBRuFauyG0lYY0rfEQrSUpm9kW8PP43td588L7PLryBlZOrk/fY5HLbeqH/vE8kkejS+QHsV82Wkej56/jYPXMtv8X2Pk4rjk3038MqG/TY4QO/RI1Fuy3JAJfKVtd/fr3r++ZfGPtaHQJCYmhhyTBJSSGIdC1O/RWrOFkgNefbOHMQT/RcNKkpW2vhRxDrWkjatZfRWs5LR1pg5zcAfPANkVN6g1QTkJVaW2I8sqPOtn3h17W3l3Cspt9OFzJfHaHMmyBrvQ68ockwo3Ovkrftr9Pk+AA3vWfJ/D2P6PGQqkNXnUAdfUH7ebgYmwR4RJ5Q7D2DYqUAHqCXZR6k0ffLZm6ihsXbuXNE3/QCTUUE6zH+g2W8UyEP7Dy0xS7y9LpsUSM9FNKunYabiJcIi+Y5sxwEeH5+3yG3Ib+FflYel0VNBNCZKMs5ejvW9GVz2iqWvhY44IINzeXhBVyrIW6rHnanHA0RCgaxONMkg43L/oQrx//PSeuHDbMDXKMK/16P16JcKfdwcNrPo/DlnnCNRbXvvt4+GxOPj+kljBAOGeGnwh3OW3c/fk6Zi0rSueOx1Se/c5VDrzWlSZjC4/rk5+KSu0s2VLCgrXFTJnjxlNkT8fW+SARV4mGVTqbopw9FOTY236azkZQ+3/bX6DNURNwak+AZ+Mq9391Ei5Pkuiorndy71eqePLrrcSiqr7cKNkcaXSyQ9V+GC0i3KDT1174FafamvInaUVjqAAi3PhjCRWtuga7UQAR3v+dakGEJxIqh5ov8Rev/prfP/wlilzaH0Wb/WKQRPhYxVgiwgvRcbB6Wu3/RS7sJHLhbVyzNgNgr5yNe9HdhI48lRqP45cIl5CQGHpIElxCAoYl0O1HIq7yz18+YzCKg9hcFaie7y++rzUiXEWFuELH1Rgvf78TNaGyemuxWHa66YYi0JUoBGOJCB9qPQcSVMSaTxA++QLuhXcCYCuejHftowTe+XZqrI9fIlwiO0zNJVj7BkxKqNDU3ZgmwW02O//pQ99kWuVMfrf/5/SGe/Tls67H+g2W8UaEF7tL+fDqz/ChZR/X6dXe15x8l62wnSQRPlpQDRcjR4STXc4AiHAtKutc/PfnF+a8cZGc5TcV86Ev1uD2Wr/ZKh5TefMXnbz9dNc4JcKlv5YLIns9VER4X7iX3lB3mgQv91XyjYd+yHff+AZvnXiBcDwsKNsvb2IR4VVFNXzuxr9mzcwbdTq09l416DR8NkcS4QOAcM4MHxGu2BQ2f3gSK28tT6fHIirPf/8qB17tTNqQAcT1DpeNGdd5WXdnBQuvL8bhHPhIsNkV3D6F2tluame72fRAOc0XIrz7Yg/H3+4j0BO3thVZiPDT+4I8/c02HvrP1Wn9pi10c8dnynnpiU40rtko2hyJrNCGi5oJkX1dG3oiXItgLHVigYCkNSmv/WgcQ/kS4Vbtop2fBRDhNUWl3L9oFctrp+G0OWgP+Hn9wkm2XzxFJB5L66YqSV81HI9ZaCGJ8GsJY4UIL1THweop1DEWIfDOd3DN3AiKHRQbvk2PET7xB9RoIDUeJREuISGRHyQJLjGhkTtoGmCgK6ppKJ8yEtVgdMjTYq3lXCtEuFVgM3yBrkShGBNEuCnj0OhZcFChJujb8X9wzbsNxe4CwLv+cwQP/Bw13JMa65IIn3Awd3c6YSiIcBVo6r7C/Nol6TwOm4NHbvgym+bdyq92/4A9594iGA2iKZbfhvk4IcKL3CWsnrGZe1c8wuxJZvKxubvRlGZpp01r2cCJcIlcEK13I0GEZ2ofMiJ8ILcukHP93eVZCXBInpiz6YEy3n66y9rHuqaJcInsUNN/zcv04G1OX7iX3mA31SW16TwlnjK+tvV/cfOiu/jl7ic4fuUQ0XjUtG4nP45/IryqqIZNcz/A3cs+QXXJFJN+TT0ja3MkEZ4fhm1/IAcRPndFEbd8rDp9rSZg+9Ot7H6+M7O9UEBcb3cozFrqY8tDVcxe7sNms+79eEwl1Jcg1JcgkUhW1p/b5bHhKbaln9I2YvJMF3d9YRIb7y9j3ws9HH7DT6AnXrDNOXswyKs/7uSORyvSp+otvamIxvcjHHm9Ty9H2pwxCFW/dmsmRPZ1bQiJ8CxOlrn/9Zmz9f2i6imp+aPQHQrQ2NOZJxGeCf4KJcI3Tp/LX26+i0k+/QMgm2fMY9vFU3xz18t0hwLp9uknwk3VG9vdYNSGmwgfgOc7sWDRPKNOhIv0NPohorKD1FNUNnLmTaINe3HO2ACAo3YJ7oVbCb33tGY8SiJcQkIiNyQJLjHhMSyBrlVNQ0KEWzuS454IFwsd8kBXYmAYdSJcqBQmR3IkiPDY5QNEz+/ENfcWAOzlM3AvvpfQgZ+nZYw7IlwiNyzIZNHaNxBSornnsqlKBYV5kxfzV/d8i5NXj/D84afYffYtugIdBvsjWo+1fSzWfawT4TZFYVrFbDbMvpWNc+9gRuVcFEW8kdvSe8VCp2ybdwbdTTYuexvLQDc/mLws05wZLiJ8oL6aYhifyb9dLZnjj7Ohuy1Kop/1EMgxvnbHCrp3u1r5WNcoES6RB0TrtmVfFGZzAhE/3cFOU5WKYmPtrM0sr1/HgYu7ePHI0+y/8DbBaMC0bo5HItxhczC7ehFb5t/J9bNuprqkThgfqai09V4dcZtjFU5J6DHSRLivxM79X56K053xT47v7uGNJ1tJJBIgkGOoVTeHqutd3PLxahZvLBEed56Iq7ReitB4KkTDiSDNF8OEehME/QkS8UycoKDg9trwltipmOykbq6b6Qs91M314C3W+1IVtU7u+FQVy28uYftTnZx4py85BwuwOYde8zNpmpO1d5aAkvwx140fK+PqmTCtF2PmPpI2Z+xhFIlwkS76S3P/a6rT+zaavv/+/X+SPmL8xVNH+KtXnzHvl6mpMiLBhvlpsl2GOT27YhL/+YY7TQQ4JOOam2YuoCsU4B93v0o8kUjfqyq4N2G7G4za8BLh4uaW0MAiHhxzRLhA5kgQ4WrET/Ddn+KsXwc2O9gceFZ/ivDJF1CjQc14lES4hIREdkgSXEKCYQp0rWoa5Oaq2B/RO+CjSYSb73foNlctMeSBrkQ2qP1/8nTWk+kjQIQbsjjrV1K08bPCe7CMf6MBQkd/hxruNelSSFChxkIEdn8P56zNKHYn2Oz4rv8c4ePPoYa60zIkET4BMYxE+JXOBstqbYqd66asZGHdctp6m9h7fgc7T73KoYbdyfeSWq7H2j4W6z4WifDqkimsnL6RzfM+yJzq6yhyl1i2Tb9eV7sbMNtpjQ4iO21aywZAhMu5kxdGlwgnu5w8ifDX/rWV3vYYvlJ7spxhnClAPA5H3uohHlM1a7Zejhb+zjjHd/nT17NX+Jg0NfPe4bx8rGuQCJfIjvQoGSYiXE2oNAlOz+iHy+Fm/ZybWTPrBq52NbLj1MvsPP0aZ5qOk1Djeduca4UIn1m5gFUzNrFx7u3UV8xJHxNvhYQap7mnkVGxORJ5YSSJ8K2P1jFpauY9vu1XIzzz+GWi4URBNkdRYNVt5dzxSA2lVeatPn9njAOv9/De9h46rkYIBxI6TRTNX1JTItQXp7stRtP5MCd2+3E4FYorHMxfU8TyW0qYtsCTaQMFJs9ycf9Xa5i3zc8rP24n2JfI2+bEoyrbf9XF5Fkupl+XbI+SSjs3faKcZ/6hjXhE0EcjRoRL5I1RIsKNvSTqs4EQ4VluU7dfZiESy303CyL8/kWrqC7KxC3RRJxAJEKpx4uSqm3r3CW09PXij4Q0tSk4bXZTCwjb3WDUhpMIl8gDFsNoVIlwDRSnx3JfDcVqBiSINuwheuVIwXoadQyd+D2+TY/hqF0MgGvmJpyzthA59bKu/LgiwiUkJIYckgSXmNjItkEwiEA3SzUFyREFuvnczGgS4ULNhmhz1XzHwxToSq8jJ5LBk9nhA+vhOtJPhHsW3I5nwe3Zb8QskdCCO+j85SOg9v+yGgzDTKijUc/ImdeJNb6rObppKa65txE++rS2uvFFhEtkhXEtNrWdYO0rhJRo6tITEvvO76SyaBKzqudhU5KbIjbFRk3pFD60/GHuXPYQ/lAPhy/t5cCFtzl25SBN3ZeJxMLEE7G08LFMhNsUBZfdjdddxPzJS1g6dR1Lp61jesUc7HaH0I7E4lHeu7KXqqLJTK+cC4A/3E1f/49fTHZao4Pl5p1Bd5ONw5qUkMgOndkYLSI8Dzl5EOG9nVFe+3+taYmZTZcMlMwXlnK06GyO8vz3WtJyHvjqZB0JbtLUwse65ohwiZzIanMs+yJ/m3PVYHNeP/4HlkxbRU1JXTq/w+akvnIWH1//eR5e9xk6+lo41LCHfed3cPLqEToDbURi4dTTrghtzlgiwu2KDZfDQ6m3nEV1K1gydQ3Lpl1PTclU7DryIYNwLMTuc6+zsn4jpd4KIPk+8Lja/6JjaXPGFIZpf8DKj1q4toTVt5Wnq4+EEvz6W5fo7Uz6YfnaHLdX4e7P17H6jnLdWFJV6LgaYeczHRx+q5twILOApksXsD8Qi6p0t0bZ92I3+1/uZtpCL5seKGfeal/6lBKHU2HFbSVMmefmd4+3cvVc2HSqm5XNCfYmePF77fzx/6zFW5J82nzuai+Lbyji8Bv+UbQ50vBkg4p53RwdItygl6ivVZVIPE4o9c7wcExzyoDRtzF2u2rQQdXvl5nyptvFYl4ZiHCv08WSmmlpEf5IiK++/BQn25r44tqbeXjJWgA8DiefW71FfNMmJSzaXXMNkggfLVgRt+nvhX7ZyBLhiruY8vv+Iee9GJHwt9L+g7uItZwoWE/dAyahHgJ7vk/pPf8Eig3sTrzr/pTI2TdJ/zoqPR7HCREuISEx5JAkuMSERuFBU36BrrgurUEbWiI8I1vzyeCQGzfCDLVaBroFE+EWuKaIcIm8MNaI8ORxSImkYzxgKLgX3I5r+noiF3cJFcs3qFBjYQK7v0dZ/RqwpZ4G3/hFIqdeRo34NQUYF0S4RH4wrsWmbhWsffmSElcNT+V19rXxt898iZsXbeVDKx5m3uTrcKbeUw9JQrzUW87m+Xewef4dALT2NtHQfpbzrae42H6GhvZzdAba8Id7CET8JBJxS92Hmwi32ewUuUoodpdSWVzN/MnLmDVpPjOq5lFfOVt3byIEowFOXj3I7w79jKNX3uVbD/0q/V13sJOAdl6a7LTmriw37wy6m2wckpQYAFTTenNtEuE2h4LHZ8PtteF0J/8vrXTgK7XjdNsoLndgdyg43UrqSfFMxRfeC3Dg1R7ttNK3kcFXs2pHm01J/r7LwseSRPj4Q1abY9kX+dkc45Pgx68c4l9e+x9sXfZhti57gCnlM3TEsN1mp7qkjtsX38fti+8jocZp6r7MxbYznG87xYW20zR2XKAn1Ik/3Esw4kdVVcHcFOmZMTaimTAQm2O3Oyl2lVDiKaOmdCrza5cys2oeM6vmU1c+HVsOf7Mn1MWBizt59tC/0tzbyM8+9Vb6u6buSzkIh0w7S5szshiu/QGRrXD77Nz+R7XpY9BVFXY91875o4GC5JTXOHnoq1OZs6JIdy+Bnji7nu3gnd93EuxN/uhC++Orwe4PJBIKDceDXDoRZMG6Im58uJK6Oe50KFYzw8Un/0stf/hOGyfe6cvb5rQ2RNn2qy4++JnKtM5bPlrK6XcDBHoET5aPhM2RyAt6GzPCRLiVToK+/qedL/HDfW8BEIsn9Hny2YcSEuHWDZJ1Xmlsl9vuoNiVORWipa+XYy2XiasquxvPpUnwwpCl3TXXMPREuER+GHNEuJpI7q0NErbianwbPkvPc/+e9AMmBeip1TF05CmKNn8Fe+UsANzzbsc5bS3Ri2+b5EoiXEJCQgRJgktMeIwIEW5x9NmAAmbzDeQMUIcq0M18I4nwCQ2dTzh2iPB4VyPBY8/jXXwXgyHCFVcR3rWPEGnYC6r+l+GFBhXhE88Taz6Bo24ZAM5pa3DN3kL45AuGAlzzRLhE/jCuxaZmFKx9+ZASPcEu/OFeilNHf9eWTSUUDfDikad588QLLJ62ktuuu5vl9euoLZuK6N3Y1SW1VJfUsnrmprQyvaEeOvpa6Q500uZv4nLnRVp7m2jva6Uv3ENvqJtgJEA4FiQQ9qOSSJc12xZr/R02Fz6XD5+7hCJ3CcXuEip8k5hcOpW68nrqyqZT5quk0led83jzfiTUBI2d5zjYsIsdZ17ifOsJ4ok4JZ5yit2l6Xy9oS6CkcCokBJyiyg3ctpr05wZTiI8yxhIyXC6bVROcVFV52JyvZva2R7KJjnxldrxldjxFNmF72m1QjymcuDVbtK7pAJYbsJqxtumB8qZOt9Nx5UobZejdDbF6G6N0dMWT74HlqHz1SQpMXaQ1eZY9kVum9PS00Q0Hkn/AKm2dCpdgQ5+ufv7PH/4KVbNXM9NC+9k6bTVVBZVm/SyKXamlE9nSvl0Nsy9BUgeE94T7KKzr43OQDvN3Zdp7rlMS89VOgPtqVM7/ATCfiLxMH3h3gET4W6HF4/TQ7GnDJ+riGJ3GVXFNdSV1VNXVk9N6RTKvFVUFdfgdnjyautoPMLF9tPsPvc6u86+xtXuBlQ1wbQK/Q+1WnqvCNp5ZGyORG6MFBG+4qYyps3PHJ3ffCHEtl+3oibUvOVU1Tn56H+qp35BRo6qwoWjAZ7/fhNXzvQflzx8+wOqCif39HHxWIiN95ez/p5yXJ5kPl+pnfu/UoPD2cp72wVPclvYnIMv+1m6pYipC5KEYOkkB2vvKmHbk93S5oxFqFjYmBEkwkU6pbPr+/pydyeAfuzlQYTrVlADES520Ix2yWJepS76omHaAr1ML0v+AGRaaQUfW3o9x1ou84ll1wvk54CmjS3b3Zgnq13S6p+bCLd0WiVMGEtEOPEogQNP4ZqxDpunlMHAu+Re+nb8M/GOcwPSM/2ASbiXwO7vUXLn3yW/sDnwbXqMbi0Jril/rRPhEhISQw9JgktIMAyBrrASEdkxgIDZYBLv/0odkWDyfWHdrTF+8lcX0VplVYWPfK2OqfP076Y79nYvr/28TVeroih8+bszTaq/+rN2Tu726wLmqQvc3PdnNbp8CgolleKjADPNMIREeJYygwl0JfKAru3HBhGeiIbp+OXnsJdPAVLknqac7j2qBp1svgoqP/Ez7KV1AHgXf4i+t79L9JAjxv4AACAASURBVMphSz3zCSqIhQjseYLS+76dqteGd8MXCZ96BRIxQwGuaSJczpw8IGr/ISTCI7EwHf7WNAk+pXx6Ol8oGmT/+V0cvPgOZd5K5k5exPWzb2TVjPVMr5preYwrKJR4yijxlEGV8XZUIrEw4WiIaDxCLBElEgsTi0fpDLSn6+0Ndadvrl99RbFR6ZuETbHhcrgp9VZgt9lx2l24HG5cdjcuhyeLXtaIxaOcbT3Be5f3cuDiTi62n8bff9R5aj6UeyvxOH3pMu3+ZmKJaKpNs23+9Kdm27zTt1EuUkIiP4wdIlzsq7l8dhasLmH+mmJmLvFRXO7AU2S3XksLvn/N5qkGtbPdfPm7M9LXJYb3wGrbbdZyL7OXZ/zBeEwl5E/Q2xnn0okQF46EOP9ekJA/MeaJcOmv5YBK/jbHsi+y25yuQAfhaChN7k6pqE/n6wl2se3kS+x4/xWqimtYPHUV18/ewtL6NdSV1Zv6uB82xU65r4pyXxWzjLekJgjHQkRi4aStScSJxEOEo6GknQH84R6CkYDJ5jjsTsq9lSgo+NzF+FzFOOxOHDYnbocHl8OFy+HJ+XS3CKFokBNXD3KkcQ+HL73D5a6LhKJBnQ61ZdN0ZZp6Mk/RS5szNjHcRLi3yM4N91djsycLxOMqb/yqBX9XFMhPTkWNk4//Zb0uzo/HVN55roM3ftmWfPo7fQv6/YHh+KF80B/nzV900HgyxL1/VkNRWdKHc3oU7vrCJIC8ifB4DF7/WSef+G+T08esr95awsFX+uhpi424zZHIE6NIhJu7SdUOV3Ffm04JMRPhRrH6caXRwRyGa/RQ0vFyNiI8Eo+z69JZVtbNQAFcdgf/bu3NxBJxXPaMf9cR7OMvX3+G7rD2aV2FH93zCD6nS1uzmeRG0O7GPFntklb/7ES4nDl5wLivZhi3uqxCv2x4iPDAwd8QubAbtD8C1PlW1ntrJTd/Fd+qjwGpp8HXPkLPy/8VhYQ+Y5569usYOvRLirb8e2zFyX1o9/w7cExeQqz5qFDutUyES0hIDD0kCS4hkcJQBrrWlYjIjoEQ4RmUV2fe++hwamVnPpVPdlJdrz8mtqTSIQx0jfkAPEWZI9r6A12nWxHmNd2yQPOBEuFC2cMQ6ErkCaPDPhaI8HAfastpc2WK9qNqSgMIHvw3im/8SvIrTylF6x+l67dfQVUTgyLCgwd/SdGWv0gf3eSatRln/Tqi2uPWNTKuWSJcIj+I2n+IiPBwLEybv5npVbMB8Lp8lPkq6A50pvMmEipdgXbePb+Td8/vxO1wU1E0ieumrGTRlOUsnrqS+spZuJ0e7IrDkqiAZP+7HR7hE3KzCmmTAUJVE8QScULRAOfb3udMyzFOXj3EyabD9EV6icYjhmmS2XAq81XicWQ2ja92NxhkZ9v86U/NtnmnzSdJiaHCWCTCi0vsbHmompW3llNS6cBmK7xT1URyHvdvoKoqunU1/ZR2utbMl05Xfv4YKpTX6EM/u0OhqNxOUbmd2lkuVn+wlGBPnCPb/Ox5tofejrim+NgiwiXyRL42x7IvrG1Ou7+FYDRAceopoYqiSbgdbsKxcLpsggStvU28dfIFtr3/Em6Hm8mldSyZtobrpqxgQd1S6srrcdld2Gx2i2gnCUWx4XH6dD9gGkkk1ATxRIzeUDdnW49zuvkYJ5sOcab5GMFYgHgiZlhHlDQJMLlUT4JLm3NtYDiJcIfbRmdThOqpbuxOhYYTAY5s78pbjsuj8PB/nKYjwGNRlRd/1Mw7v+9AjWdYqJE8MS6RUDm1L8DP//YqD36thuppSfvk9tnY+tkqejviXDgazGt/oPH9MMd3Blh6U/KYd2+xjdVbi3nz513S5oxljBoRLlDFOB4GQIQLb1E3rqw2O7RfZSZQ1nmlKjx38hC3zFrIddVTALApio4Aj6sJfvHebg43XUomaOpOqEaSMdXumja2bHdjnqx2Sbt2ZCHCJfKDcV8N1WTb01mFftkwEOGJOLGOi2YFFO1HVZje+8bf41vxENiS49Z3/aP4tz9OItA5YD1VVSER6CSw+3sU3/a3yUS7E9+mL9PzzOfMeqbHoyTCJSQkkpAkuISEBsNFhBsDgMEQ4XnchDBAtc6fPXDA8I3lcZtZ9RkiIlygoQx0RxlGh30MEOHCuvIILPzv/ADfuk9h85YB4F3+IP5tjxNrP5tVz//P3nmHuXFdZ/836HV7Z1uSy+Wy915EUrK6LMmWZDU3WbEluXx2XBMnXxLHKV8cJ7Edd1uyZdmWLNnqnWKTWCX2KtblNm5vWHRg5vtjsABmMMBiG7kU530ecoGLW87cufeec897y4CTikhYeXSTYMCx5q/pPr+LlNWwsTx0IvyDCZVvQRWmpRvQHEPTkRLhaIh2T0s8zGQ0U+quoMfXqcg1OX0wEqS5p5GWnkY2n3gZAIvJSmVRFRMKpjCpqIrKwioq8ibisuVgM9uxme0D3r89kghHQwTCfgJhH72Bbpq6zlPXeZr6rnOcbz9Jc089ETESf6j4kwrqbpJwOBW6yjAZE4vImnrqNHRFJudPUo5pnXfJ8TKQEjoGhbFEhFfNd3HX1yaQV2ImE0IBkZBfJBgQ8XRE6GkL4+mK0Ncdxd8XxdsdJRQU8XtEkCS8PVH6T8MVgHAwyQ4DOV4W8PeJ8ae1WA2EAiLenihWu0HzOHaDAZx5RlbcmsuctS6e/0EbZw8E4r/rRPjlhUHrnLTvQlvneAI9eIMeit1lAOQ7inBYXAQjgXiuyWklSSQQ9nO+4yx1HWd55dDTADgsTqaWzGBCQSUTC6cysXAqFXkTcVic2Mx2rGY7JsPFc1sEI34C4QCBsI9uXwcNXec433Gahq6z1HWcodXTiJT0YBl1Tqy9lqlJ8G4lCQ66zhmrGC0ivLczzKN/f5ZJs5ysurWIXS93EIlIivaTLh+TUeDWRyqYPDtxB3g4KPKXHzSxf1NPPGzwV54pxweV9IPIR6L5bJA/fqeZu/6mjLLJss1odxv58JeK+f0/XqCjKTygfyAaldj9Yi/VS+1YHfKi/FlrHLz7koe+rqiuc8YUJJU+0dIxo0+Ep5NsWER4aoapbUi9DVyRd794iQ6UqV91+318680/8zdrbmTxuErMSadidfq9/P7QLp46+m586i0M8PyjSoRLMakz7QjXkR2y8FfFo2raZaOzIzwrv5oqPNJ2Gv+h57DPvwMAgz0X5/K/wrPpP4YlpySB/8CTOJY/lNgNPuMWjMX/Q7TtOCmIt8fLkAjXoUPHiEMnwXVc0Rj0PVBZT3RTSlJOs4ZFhCtx4VxAPuoM8HRE4kmTDemm0wHExGYeBKCtIag50T13yKcsQECeZKomugFvlNrDftQYX2PDZE712IwIEZ4GIz7R1ZEREukNxsuZCI921ePb+wdcqx8GQLC6ca56mJ4XvjagnANNKvz7n8Kx/KHEbvCp6zFPWEK4bncGQ/hyI8J1ZAOVb0EVpqUb0BxD05ESTV0Jx7rZaKYkp4yTzUeSFYlmelnXyIGhSJCTzUc52XyU/rmfIAi4rbnkOQrJdxSS48ijwFlMoauYXEchTouLPEcBZqMFm9kOCNgtdowDEBf+kA9RihKOhghGAvQFeukL9tLl66Czr4UuXwc9/g56/F10elvxBmPHaCbJnla3JnxLCl0LAqXucfEQUYrS0dcS+/XiE+E6MkOS0tgLl5gIzy+1cOdXx6cQ4KIo0d0SprU+SONpPy21QTqbQ3i6ovR1RRAjSQ1A8SdRSsLpkoCQ+IHXH2tjw72FWO2pV3/0f4lGJHY8mzgFIhQU+fU3GnHlmXAXGMkrM1M22ULFVCuF48y48k2K+nHlG7nhs4X84itNKhJ+jBDhOrLCoHVO2neRXudUFk0DIN9ZgMPipMvbrtA5mmlJ6BxfyMvhhvc40vCe/KMABsFAnqNAPhrdXkCOI58CZzEFriLy7YU4rC5y7Pnx6zMAnFZXxtNLALyxqzECYT8RMUy3rwNv0CPrHG8bXd42unzt9Pi76Pa1Ewj7h69zJEGxEzwcDdLta9ec4+g659Jj9PwDqfN6URKoPeKl9ohXjpalf2DRtfksuDovHisSlnj9sRYObOqORRHUparmAcpSbE4DVrshfjQ7sV9DQYlQQCIcFAfMR4sI77wQ5s//2cI9f1dGQbmsK/NLTdz4uSL++N1mIuGB/QMttSFOvedn9lqZ8M8pMlG9zM6+1/riVaLrnDECtc10kYlwl9WqEMdttSXHHhIR7rbaMKTZ5Z3ShlKIqyTbKT62JzpQpv7Z7Onhq6//iYXlE5lTOh6byUSbr49dDWdp6OmUM03u5xqK1mYyYzIYiIhiot5VCkuz3tVxMuqlZPlTiXAdAyOjXw1JFSEpnaZdNnaIcM/W/8E262YEs9wPHcsfxLvrV4i+zmHJGe1uwL/vCZxr/xoAwZaDY8VD9L7w5YQcGvledkS4Dh06Rhw6Ca7jisfoTHQ1S1JOs4ZMhCvx6q+aObnXG/8eV5pJSvSlnzUrEic7V5MdYRICv/6bemU+sT/qiW7T6SCP/W2DMl8EvvLoJHKLNYaWdBPUMUiE6/Z6dshosF+mRLh35y9xLvsUglk+WtC+8GN4Nv0HYl/rgHJmklH0deJ/73Fc1/4DAILJimPZZ+mp3xNrh6l1IveZy4cI1zEQJFTuDu36HyYR3tzTGP9sEIyU5o5LKkClcVTptZwo/ckkJHoD3fQGuqnvPJtIJCjlNBpMWMxWBASsJisGQd69oJQzkSgUCSCKIhExTDgaisVVPlQqAaAe75XOtWxIifLcxH3p/pCPHn9nBl2RyfmjrCeFEylFOG0dpyM7jDUivHSilbwS5YkIjaf8vPLrZpprA3h7oigO+0gqWFA1TNXIkEImxB4n3j+bTgd44juNKbZa4o+2zRcKiHQ2h+lqDlN3PMChzWAwCuTkm5i60M76+wpw5Sd2HBVUmDFZBEKBsXdHuI5sMESdk9VYKONCks6xmR3kO4to7DqfonMGIsKVMsnHqHd62+n0tivbkUrnmE2W+MkkNrM9HjedzgmEfSBBKBokKkZicS+uzmnvayUcDWeYG+k651LjYhLhg/UPlE60cs39JfF7siUJdr3UyY4XOxMcXJqd3CazQGmllbJKG2WVVgorLOQWmbHYDZitBgwGZT1EQhLhkIS/L0p3a5jW8yFa60K0nAvS1RomuYREsUnfkWirC/Hsf7dy/z+VxxduTZ5nZ/H1Oex6oWdA/4AYldj/pofpyxyYrXI9zFrj5NBmL5H+BVoXQ+foaic7XAIivNSdw/0LV3HH3KUKUb530z38as8WXj5xkGAknNoeMhDhRoOBlZOm8dml67Cbkhc7pvoBMvuqtPRgYkKu0NKKebpEJBplT+M59jSek8MUdqQiw4Q+TcLScZP5x6s+zC/3v8357o5EvasUlma9q+Nk1EvJ8qt1jt5xskE6387lTIRHWo4TPLkR26ybATC6S7Av+Bje7T8dnpyShH/f77Ev+gQGZxEA1hk3Y3znR0Q7Tqf1q8nNUifCdei4kqGT4Dp0MFoTXUVmQ57ophinWnbksI8sS2NIDzoflbGkUW/DIcIHwkhNdHVkj4wG+2VIhEc6zuI/+Gcci+8HwGDLxbXqIXpf/05WcqaXUcJ/8CnsSz+DMU/eDWSdfgPm8vmEm/YPYAhfHkS4jmyhGF21638YRHhjl/KI1bLc8aqyVBpHlT7uRNEgwtONrcntKSpG8Ifko0f8ocQCLVC3HyH+J6WLpuzE0Jjgp4z3SudaJlLCIBgodpfH8wqEffT4uxQZ6UT42MRYIsJ7uyKE/GL8iFaAssk27vraeOqO+zh/zEfDyQAt5wMEvFH6FxvGxGK4RPhQ8xEEuQ7tLiNlUyyMq7ZROdtG+VQrdleCAAfw9UYT95EPdtFiOptvhGw1nQjPFkPUOVmNhShOHwEoyx3H4Ya9mjpnsER4NjonHAkRjspk3IA6J6F2lDKMss4xGc0Uxo7tBOjytsUXfaWfG+k651JjLBLhJrPA1feXkFuUIOXOHvLyxuPNRCMiaORjMApMmmln0TV5TJ3vwpVnxGwxDLotTJopLxAWo/Lu8PbGECd29XFoi4futjDxY5E1/AP1xwO8+VgHNz9SDMhte+3d+Zza66OjMTygf6D+eJDW8yHGVcs7fSumWSgcb6L5TOii6Rwdg8BFIsItRhMfnbuUB5euo8ydm/LOJuYV8g/X3M7tsxfzw+1vsLfhHKI0MBE+Ob+YL636EKsrqxV3cQN4Q8G0bUiNKQUlmAxGImI0/uSDJcIVcTR1pTLMGwrhssg7b61GExsm17C4opJnT+zjySPv0hP0X1wiXEfW0LLB5I+XJxEuRcP0bf8p1ukfQjBZQTDgXP4Z/PufQvR1DkvOSPspAkdfwLH0AQAMrlIcSz6N5/W/y7jBRG6WlwcRrncfHTpGHjoJrkNHDCM50VVrrKFOdLUmzBkeIK1T9GIS4ZqipTivhkaEZ8w3OUyf6I4uJLIyTi9LIhyRvrd/jH3u7QgW+dg9++KP493xC6Ke5qzkTCdjtLse/74ncG34JiAg2HKwL/0M4ee/BJKoE+FXArQcDorw1LE45bVqjKHJ76XH34U36MFpdQMwPr9So2iVxlG9V7WjRStZJlIinexq50mqbkmOO3qkhMPiJteeH8/HG/LQ7e9UVYCWrsjk/NGqpyxJCR0DQO2EGRtEeOMpHztf6mDtHUUYDHKo0SSQW2Rmzppc5qzJjSftaQ/T3hCiqzVEd2uYnrYIvZ1hfL3yfeCRsIQkyUeYI4EYlYkG4o+VbHMlO2KIl2swyM9kNMufDUaBnCITDrcRd4GJ3CITuSVm8ktMFFSYcRdkngaGAxIbf9tJwJvYzj7WiHAdA2C4OieLsbC5pwFREjEI8mKQ8QWVGkWr5w0aYg6DCE9dpJIqZ3IiranFaOqcYlc5JkOCtGz1NMk7wRWiXUQiXEfWGGtEeNUCN/PWJo5B9/ZGePaHjQS9Yko+ggGmznNy02fLKJ+SOBZ6uDAYBWxOgfHVNsZX21h/byEH3upl0x868HREk8RP6vdI7H+zlynzHMxcFZtfuQysuyefZ/+rFVFM1wfk+o9GJI687WXcNCsIYDILzFjuoPlMSNc5YwWSpBy0RpEINxvMrKycxpfXXM/0ksSi1n5ERBFT7FgDo8HAgopJPHrHg2w8fZQf79zI2Y5WpGT9EnvXZe5c7l+wknvnr8BkUC4KDEej7Guq5bG976S2s1he/bZgP+6bt5yFFRP50c632NtUKx9LTnI1qfWS1txIFWcAIvxf33mFb6y8jgp3Xrz95lhtfHLeSm6omsNvD+7g9TNH8UXCOhE+VqDph1GHX55EeKh2F8HTW7DVXAeAqWga9jm34d396PDklCR8O3+Kfe4dCLYcAGzz78a386dEexoy+tXkZjn2iXAdOnSMPHQSXMcVjWx3mgx2oqtd1uAnuppGpUa+SQ+gMorTGNIKR1TyBDXVkB5KPtrPPwpEuD7RvbTI1mC/zIjwSOtJAsdfwz7vowAYXSU4Ft+PZ/N/Zi1nOhn9+/+AY+kDGGI7gqyzbsW048dEWo9nrBO5rV8GRLiOtJBI1QNJo6t2/Q+BCO/1d9Pj74qT4MU55RgNRqJiVFWWSuOo3qva0aKV7HIlwu0WJ25bwonc0tuEJMoO5FTRLgIRriMjtKyqsUKEv/bYBXIKTCy8Jp9MyC0yx3buOTV/D/pEIiERv1eM7bITFfdw9yMSljCZU9uMzWHEZBYwGMHmMmK2CFjshpR42UKMSmx8vIMDmzyoe6ZOhF8ekJI/DEfnDDAWNnbVKUjwstzxMYtKSqtzrjQivNBViiGJUGnpbaR/16BStItEhOvIiNHyDwyXCDcYBTbcXYKQNLRv/VMbrfVBUOUjGARW3VbI9Q+UaeoMAFGU8HtEvD0Rgn4RX2+UUEBUxHHlmbDaDdhcRhw5RmyOVL1iNAksui6XiTPtPPOfzVw4E0wSP9EIIxGJTb/vYOJMW/zajenLnEycaaf2iD9DH5Dr/8QOLxvuz8dslX+fPM/O20/3EAlJus4ZA0jonKRBa4SJcIMgMKd8Ap9dvoGrptakENXeUJCXju9ne+1J7p2/kiUTpmCMkeGCIPChabNZMbGKJw/u4qmDu2n29IAAuTY7t8xYwKcWraHUnYsaJ9ub+cWeLWw5eyK2q5vUdiZBp89Lc18PZa5EHjOKK/jBzfey+exxfvneVs51tavWC6j1ktbcSBUnAxG+u+EsDzz/G+6YuYiPzFhIocMVl6XE6ebrK6/jxmlzeHT/dt67cF5+HrWNoB6T1HZERr2ULL+WBa9DE1n4di5HIlyKhPHu+jXWqnWx3eACjmUP4D/0F0R/97DkjLSeIPj+a9jm3QXIu8Htiz5B36Z/Q26XGnImpR/zRLgOHTpGHDoJruOKx+hMdFNLGexEN16SyqjUOmpJywGjKjXVkFY4opK+x8Ubaj4qwTI6rwZJhGtBn+heWmRrsF9GRLh8dNPPsdVch2B1ycb6ko/j2/sE0d5mVZ6DI8KjnefwH/wTzlVfAMBgz8e++NN4Xv2mLGCGOpHbuk6EX+5Q64Gk0VW7/gdJhPcFPPQFeuNhLquLHHseXd4OVb4KQeLprwQi3GFxKUjw5p76NPKTKpCG/MMlJXQMDM2TX8YAER6NSLzy6wtULXCRU5h8Z+TgYHUYsDoMOPMGjnsxcO5QgAMbPUhRYBjX2OikxKVFqm4Zos5J+y6gtfcCohgFg+xWKMkpx2gwERHDGjKo5w0a8n4AifBit7wYrR/NPfXJqg+laKNPhOsYGGORCJ8610nl7MRCqrb6IDte6NDMZ3y1nWvuL0khwPu6I9Qe9VF7xEfjqQB9XRG8vVGCviiSCMmNpd/RbzTL12c4c4wUVliYUGNn0iw7FVNtcUIaoHiChWs/VcQfvtsUX8Sl9jO0N4R477Ue1t1dAAKYrQILrnVTd9yPGCVDH5Do7YjSfC7EhBr5SPSyKWZceUa6WyOa9a/rnIsPtR4h9nkkiPDynDweXLaOD89aiNtqV5QbEaPsqD3FL3Zt4kBTHRISO2pP8aHq2fzVsvVMKUhcR+Gy2nhw6Tqunz6Xx/dup8Pn4bPL1lNdVJbynlv7evn9gZ08e3QvPQFfPDweT9XOWjw9fP3Vp/jc0nWsmjgtHs9sMHJt1WwWVVTyl2N7efLQHroDvlEjwnuCfh7d/w5vnTvOfXOXc+3UWViTjnWfVVzBv119O9vrz/D4oZ2c7GhJtRHUY5Lajsiol5J0PTqyRha+ncuRCA+e3ESo7l2sU1YDYC6fjW3mzfj2PjFsOfu2fh/bnI/EbVD7ss/i3fG/SDFfiE6E69ChIxk6Ca7jysYgJjtjhwjXzlsrH1WpqYa0whGlNFbVE5hs80l9ZkWU7Caol5gI1x1Eg0S2BvtlRISH6t4leG57/OgmY0El1pk349v1q0HJqSWjf8+vcSz9DIJZnsDb5n8M7zv/jdh7IbOcsTx0Ivzyh1oPJI2u2vU/CCI8FAnS7mmlukz+7rDKR3/3k+DKfBWCkFSUSlZloDrZQKSE0+pm4aSVFDiLaO5t5EDdLkKR4CUjwotdSkKi1dOUXoa0eiqT80erntKTEjqywGDshYtMhPe0h3n10Wbu+tqEeD7hkMhbv2/FbDVQVmmjeLyV/FIzZuvQd2ePFAJekc4LYTqbQrQ1hnHnGVl8Q2LXUigg8sZj7YQCCT0z1NN7RpOU0E217JCqW4aoc9K8i76Ah15/N0XuUqCfBDfGSfDUotXzDw15h0mEF7nLmDthKU6ri7Nt73O86QCiJF4yIrw0Z7yizlo9jell0HXOpUeGcedSEuGrby9WvPPNT7Ul7dxW5jNlrhObM2Hn+D1RXnu0heO7PXi6I0j9p6f3lxJ/hFT/QDQMfV0R+roitJ4PcnynB7PVQEGFhTUfLWDeupz47vSKKivuAiOdF8Ip+YBMnO19o5eF1+aQUyi7IqctdpBfZqajMRx/lHQ65/ReX5wENxgFJsyw0t0SuSg6R/cPZAe1HiH2eahEuEEw8LH5y3lo5dWau7RPt7fwo+1vsO3sCYKRfr0j4A+HeOHoPradfZ975q/g44tWk2tLkOfjcwv41vqbESUpfnR6P0LRCM8d3ctj771Nk6dbQyckfU9qZxJwpLmBr73yJOumzOALy69mfG5BPF2hw8WDi9ZybdVsfr13Gy+/f2jUiHAJqO3u4P+98yovnzzEZxetZUHZxLjcFqOJ9ZXTWVpRybPvH+CX+94mIkVBNZYoxiS1HZFRL8VkTXUQ6siELHw7lxsRLkVCeHf8AuvklSAYQDDIu8EPPoMUCQxLzkjLcYKn3sI6XfbZGZxF2Bfch2/nTzPLmZSZToTr0HHlQCfBdegYhYnuQIVlM9FV6ssMRLiUFEcjH1WpqYZ00gTVaheYuTKHU/v68PeKSKI06HxSxRuiU1TDuZo270z5DGGiq2MIyNZgv1yIcDFK37YfYa26CsFkAwRcqx7Cf/AvSMl3B2chZ4qx3n6awIEnsS/5NAAGRyGOFY/Q9/rfDyxnLA+dCL9Moa5XtTNB+VWZZBBEeFN3ffyz0+oiz1GIJJ1SjanJZak0juq9qh0tWsm0SQmBJZPX8NXr/4V8RxGCICBJEg1d5/jui1+htv3kJSHCK/InxdOIkkhrb0NmGWJ1DKjshEzOH6160kmJYWEQ9sLFJsIPbOli1socZq+SHbRmi4GJNQ6e+G4d0YiEQRAQjPLRsnklFvKKzbjzTThyjDjcJlz5JkwWgZwCE4IgYHPKO8MTyNxYfL1RwiGRSEjC2xsl7Bfx94n0dkTwe6J4e6L0tkfobong94qy7IDdaeThH05U5PX209201IZipQ7eVrtYRLiO7JGqW4aoc9K8i6bu+jgJXppTgcloJhD2Z6VzRpIINwgGlMpZGAAAIABJREFUbl1wH59e/WVsFgcCAqIUZf/5XXz/9b+lo6/1khDh4/ISOscf9tHt64jnoBPhYxT9JnbKiTsjR4S785NdcULifyER1v8xv9TC1PmJY43bG4Mc2dGd0ib6+7X6WHO7y8jaO4soGm/hzEEfF84GCHijRCMS0Qgqu0fdPyUMBgGDScBsMeDKMzJhhp2apS6qFjoVx7NLiarTzAcEetsjHNriYfVH82OyGZi5ysm2P3UNqCvOHfSz/r7E9SMTZ1o5vMWr65wxBrUeIfZ5KET4lMISvnX1LVhNZkX+7X29PLpnK08e2EkgEkm14WLjY7ffy892buT5Y3t5ZMU1XD99LnazBQCDIB+x3o9wNMqe+jP859uvyveGJ+eYJREOEIxEeP3UYd6pPcl981dw99xl5NvlUxwEQWBSXiH/tOE2bp2xgB/tfItzXe2snlTFsglTKXG6afR083btSd5tPEcoGk3tn1kS4SDfj36wuZ7/89qTrKuczgMLVlOZWxiX3Wmxct/spZzqbGHj2eOpNoJan6jtiIx6SeVv0KGJFPsiC9/O5UaE+4+8RPjCEcwVcwGwTFyMdfp1BI4+ryH7YOSU8G75HtaqDWCUxwjHqi/h3/8HpEBPZjmTMtOJcB06rgzoJLgOHTDiE121wZdugjoUIjyt/BnyUZWadqJbvcTFnV8rx9cb5exBH1uf7uDC6cCg80kVb2SI8Ix5Z8pHn+iOMNQTnhiyNdjHABGOyY65cBKivztxxLlKzuCZdwid3YG1eoOcpLga++xb8O757aDlVMvo3fETbAvule9GAnnF6tv/jehTEuw6Ef4BhLpe1c4E5VdlkiyJ8IbO2vhPBsFAaW6FHC2FsEouS6VxVO9V7WjRSqYeWycVV/H1G/6dPEdiF4QgCEwomMKXrvkHvvn0pwhHwxedCC9xj4vHj4oR2vqaFTloypBGV+ikxMWA2rEw9ojwSEji9d80M2mGA3eB7ISZvsTNwmvy2PNqF1FJQhDlXeM97WHOq/NJKlhI+l/5R1BFV9aBMMh8BANsuL+A3OLEdLDpdJBdLyTd0TcEW00nwscKJNU7UOuWIeocjXfR0FnL3AmLATAZzRS7y+gL9Gatc0aKCF8yZQ0Prf+b+P3kAAbByKLKVdyz7CF+sum7l2RHeElORTy+J9CNN9SnfFKdCB+70HgPI0GEG4zwnT/PHbJYB7Z04/dEY/KoSSeB3s6IMoEAhRUW1ny0iDUfhWhUortF1ke9HRH6uiPyIqqeKJGwCAg4c4yYLQYcOUaceUbcBSYKyiw4c4xp25HfIxL0iklNTd3P5e/7N3pYfkseJov824yVTnY+3004mFlXtNaF8XtE7G65j1dUW3WdM5YwACE7FCLcbDQqCPCegI8Xj+7jV7u30OKJkVyCuh/IifvDJKCpp4u/e/0Znj60hy+s+hBLJkzBHDsVSpQkjrU08ss9W9h67gRRUV5EktLPB0GEI4E3HOQX727htZOH+ezSdVw9dSa22LMIgsCiikp+cdsnafV6GJeTr2hpH525iC3nTvDdrS/RE/Cr5iUqvTFAvUtAJBpl49njbK8/w50zF3HHjEUUO91xWRwmS/p5qVqfqONkoZd0ZMZlTYQjYMofj2C2E+04hxQNp8opRvBs/i8K7vtNPJ1r3ZfxH30RAeWircHKGW7cT/DMZqzV1wJgzK3ANucj+N99bMD6SM5MJ8J16Pjg49KfyadDxyVEut3Fiu8aR/hI/cpRK01qdDmGpPwe/19KiqMsWCM7SSN/Kat8VKWqspI/Ldgg72By5BiZtdqNzWlIyjb7fLQgJcXXlFRK8z6yOEIpq3yyeGf6MWeDgYDmq0nXFRThQtqmku51pywA0bCJ0/6mSiuY7eR/5PuUfHkbxY+8hmXiEm05JYm+d36sSOtc/QiC0TIkOZOTRNpOETz6Qvy7wVWMfelfpclTuyy5SausaY2ytOpazlNrtpTpvfUj9f1JWkOTjhRoj4PJ31Xjvlb9a+oGFGNfc08jopSYUFbkJXZ6qsdUZVlq/ZdSREqgOlnyOHpV9Q0KAjwZ00pnMbNioUY5WrolWabMMsZlSNMfjIKBkpzy+PeoGKW1tylV12rJkEZXqOXXlglFZWu9Yx3pMRR7IaPe18xH690NYGPJBSMBzbUBtj7dhijKMYwmgavvLaGgzDxwPhlsrJSweHStvph9PpPnOph/dU48fuIYdHHYttqQbT7dVhtRpB0Lh6tzVO8i+fQRgIq8CYmoWeqc9OOmuk2r5Ux8uXnePQoCPBmrq6+lyF2mUZaU9DwaMgxT59hMdvLshfHvvf4uvEFPau/VkiFtf1OVruucEcVo+gdGYvwKBUSObO9JCkn1M3g6w0TC6csyGgUKKyxMmetk/vpcVt9eyLqPFXHTZ0u59fPl3Pr5Mq75eDFXfayQJTfkMXOFmwnT7Thz0xPgAL7eCAGvqLKfUnVXe0OIxlOJY3BLJ1nIKzH3P03yoyi+R8MSrXWh+PeCcjMms6DrnDGC9GN2cr1m4fNSx0nCz3e8xb9sfJ5mT3eKPtG04RRmnsTBC3V8/tnfsq+hNh7c6evjwWd+zVunjxKNiknRs7B3pAztLPaxrqeDf9j4LH/98h/Z33QeMSmNxWhivIoA78e6yTV8Y/X1mPuPa1f3q+RmP0C998fxh0M8fnAn39n2UmqB/fWuZSOo9Yk6ThZ6SYcWBJIXCimQxq5QhgsaEZJ+17IPtDZWZVFWuvSO2bdQ8oWNlP6freR86FvEjwdRyRk48QaR1vfjYZbx87FWrcver5ZGTikSwrfz50jRmG4QjDiWfQ7BlqeRp3ZZib6kXZ+Z6iSRZ6ofMGO6/jSadZxGTh06dAwLOgmu44pHNpOdQU9005WkoQXTOinkglH8rPFNEZomH5tdoHKWQ12qQjHnFJmYOCNxT1LnhRAXzgYBcBeaKJti0zCuU/NJlS/5lyFOUNNaRoPMR5/ojjAuTyLcNm0tjoV3IpismAonk7Phr+UtGRppAyc3Ezq/J/7dXDoD25wPD1nO+EcxinfHT5DC/Q4gAfuiTyDYtQnDy4EI17tOdrgYRHhHXyvBcMK5mExIyMnTaBWlIMlFqWTVSK8xtk4snBIPC0WCvHPqzfh3i8nKRxd/ijxHoUY5Wrolg/xa7TtlvJdhMpgpcBTHw32hPnr93Yo4GWVIayeoSteUCUVl611mcLgciPAdL3ZQf8IXD84vtXDNfSVKf9AANl8iinKsUPf64RDhdreBD32iEIstMRXc90YvtUf8CcmGaavppMTYwMUgwpu66hRlVuQrj9i/WET4pMKp8bAefxd7a7fHv+c7Crl94SewxE7guVhEeI49D5vZEQ/v8nXE9XNKrWjJkLa/qUrXdc6IYlT8AyM0frXWBWipC6S0n2RxPF1hAt5o/Hs4KKYckT4SCHhFZbmdEaIRsV+k5N6d+BRrmMd3euNhBqPA5Ln2pNjauiIakWivD8d/Mpogv9ykTKPrnEuD5OofRSK8J+BP6nvqBT7ZEeGhaARfOBgPiogifaH+cVnVHkaICI9KIrvqz/DFF5/gu5tfoKWvV+Pp5PvIk3HV5BrmlU8guYIVtTuIek+O0x1I2Kqqh0nRHYm0iTDNOFnoJR3pcHkS4QZbDu5rvo4xpwzB4sC54jOYS2s004pBL55t/5sIEIy4130FDKZhE+GhM9sIn98VDzeVzsBafV2aPLXLSvSlsUGE69ChY+Shk+A6dKBhqGpMksYWEZ6ab7p88krMfOKfJvGpf57ElLlOdey4Yq5a4MTuThCBJ/d68Xsi2JwG7vpGBQ/86wRmrXanHI+rzkdSKX61k/ZyIMJ1DAaXGRFutOBc/gCC0RIPt1avx1q5QjMjSYzi2foDhUCuNV9EiN05NBwiPNJ0iNDpt+LhxrwJ2Offo23sZyhLbtJjhAjXkRVGmwhv97QQCPvjQSU5FZiT2rycXFIn0xIkuSiVrBrpVWNrl7c9/t1isrJ86npFmqVTruJnn3yez6z9KkXuUgSFWarULWoMlZQwm6wUuxM7wZt76tXFDSxDPDiTDDopMWIYpr1wMYnwUFDkzz9oUOzAW/ShAmqW5NBvJWVj8yWiKBumutcPhQgXBFh2cx7jptnicdrqQ2x7upOkAyQGtJd0IvzywWgT4Q1dtYryxuVPSpXhIhDhnUk6J8eWx/yJyxT53L7wE/z8ky9w28L7cdtyUdo/UlLb0pBhiDon31GE3eKMhw2oc7TC0/Y3Vem6zhlRjIp/IPZRlCR2vdKe9K+DXa90sFvj38m9HkX+tce8hGOEdsqIGwvw9kQJ+hMDemtdkO99+n1+839r2fTHNo7t9NBaFyTgjRIKiERCEpGwhBiVEEX5XzQih4WDEqGASF9XhPr3/ezb2MPLP2/hp18+zx//rZFoJCFFR1M4Redo9FwkCc7sT5DgABNn2rLSFZ0XEiS4YBDILzWnphkFnaMjCyRX/wgR4VpFqMc1EKjIzeffb7ybm2fOz4oIT3mv6vevEFX+MrdsAj/68MeZXTZe8/qM5LzS2S2+cIjnju3j7id/wrHWJkWZ/7z5Ba79zfd5dO878dRWo4lFFZWZ+9Ug6l0dRxM6EX6JcPkR4bbpV2MpnxkPMzjyca36XGI3uCqt/+hLyt3gk5ZhnbwyrYzZyilFAvh2/wqiMf0gGHEs/xxY3Gny1C4r0Zd0IlyHjg8i9DvBdVzZkG3m2Mc0d0UN4Q6wVLsl072TshASae5vkwuO35ek9Qjp8hlXZePub06gZKK86+Fj3xjHo98+T8v5YHJsBGD2qpy4TNGwxOGtvRhMAjd/rpTJc+QdDHd+vYI3Hm1j9ytd9C9STc5HZQkn1VviDjDF06Wrf4m0d3dp1usQ8sl4B5iOQUKI9Q1VsOK9ZLjLSJKyvsdIDh/6HeGWiUuw1VyjlN5sx7niAYK1u0BMWn0dSxs4tYVQwz4sExYBYC6fjW3mjfgPPz9kOSWAaAjvjp9iqdqAYLaDYMC+5NP4DzyJ6OvUvMs8XVlyWx8bd4TryA7a41eau9gSX1F8TNINya+gy9uJP+wjH3mXdZ6zAJvZQTgaIhmjfUf4O6c2cv3cO7CaZLLNZFCanQIC+Y5C7lryIDfN/Ribjr/Eq4f+xPnO00TFSEIidVtMJ79G/1CP93azI777HKCltzGljlVPri1DPHj4d4TryIyMNlU6PZ/Sti/eHeFNZwNsfbqVq+8tBWQ/0C0PlXP+uA9fbyT+TAPZfPF4qoapGhlSbKxE/tr5lE+xsur2/Hj0SEhi4+Md9HVFU+4aH8heuqR3hOtdZ1BIrU+1bhmizpGguacJURLjR5GX547XHo+z1DnaY7lWm1bKuen4i8watwCQ7RqjoNI5gkBF3kQeXv9t7lj8GV47/Aybjr9Ac09DbI6RGOg1zKUh6Zx8Z3FcBwI09zYMrHNG+Y5wHQMg3ViFdthQ7giXRIkn/7NWlbf63clf1t9VQvUid6wsqD3iJf4lxQaU20DAG8XbE6GwXF4AaXcZkUQ4vtvD8d0e+uf/ggFceSYcOSZMFgMOtxG7y4AYhb7uKJGQSNAn4uuN4u9LkOr9umLO2hxM5kTpXS3hpCrUsp8S0na2RPB0RnAXyP20bIolc/3H+kB3SxIJLoC7MOk0r+Q0un/gIkNjDNUcs5MGLUnK6o7w1HIS41qu3cEd85by4LL15NudzB83ie21J+ny+dLeEZ7xEZLff1J7sBpNPLR8A6srq1k5aRpPHdrN7/Zvp9mTuJpgoDvCk+cNPQE/4aRd370BP6+fOow/EuGN00e4a84SXBbZh1fhzk/KIk2/GuQd4VqLmdX1Lgka93+jYb+q46j0ko7BQEBuqyr7QssmSwm/uHeEC1YXrjWPgGp+b593G54t/0Ok41xKnqK3k749j5N30z+DYEAw23CteohQ7U6kaDh7v5qGnMHjrxJuOoB5gnzVoXnCYqxT1xM49uKg/WpyXxobd4Tr0KFj5KDvBNdxRWMoO02yWfGdtqzkb5Ly1/j/knaKTLv+tPKpXuTige9WxglwkCe5U+c7U2Lnl5oZV520I6gxRPO5AO58E1PmJY7wM5kFrn+wmOsfKMFiE1LyyYSR2hGeku8Q8xlwZ9gHGHsPHee51zZztq4x/Q77TNBMcjnsCBfIueoLCIbU9V/2GddhrpijURBIwT76tv8cJPlYQcFoxrnqIQRzos8MdUd4qHYn4fp342Gm4mqsNTdqpx2gLLlJq6zp1I+ada3vCB8Y4XCY5//yPMeOHicYDAycQAOpO6q1xq/k76rRVav+NXRDVIzQ3N0Q/57vKMRucaRZBZ7qBNEQJI38qYHJyQ417OEve39LRFQe7RcRw0TEsCLMaXVzy/x7+P7dv+ebN3yPueOXxnavJ+pIc4gZ5O68slzl0fAXYrvy1HWsWStp+sPwd4R/sLFrxy52bt9FR3v7wJE1kfryx/qO8K3PtNF0JnEaQ2GFlQ33FMc2RmRv86liq/5IquhafVGZj9EE1z9YjNWRmAIe3d7H+7v7MuSTod4GU/eqrHVbLTPqGpv543OvcfT9M0Qi0YETqDHAWKiIMkydEwz5afe0xL/3H4c+HJ0zlB3hrx5+hh2n30opIxQNIkrKOix2l/HxlV/gf+59kofXf5spxTUYDEaSx5uR0Dnlucr70Vt6GjRlT6kVrfC0/U1V+hWuc1579XX27d2Px+MZOLIGRss/MHA+2v6B4gmJ+UYoINLaEEyKktof+/PpakksfHTkGLG5jCk6RxLlI8xbagO01QepnOVg1W2FLL0xH4vNQOPpAO1NIfx9UUUp/boieRe2GJXovJAoU6271D03GpZoSzraPK/EjNGsiJJaRxJ4upR92Zlr0HXOCGC4/gHF+02u/pHYEa5RmtloZH3VTH57z0N8fd3N5NtlH9fEvEI+tXitTEFp2XBpMk7bZmLfN0ydyYqJVQCYjUbuX7CSx+54kI/NXYbTkvC3ZbsjHKDNmxijcm0O7py9lEl5Bdw6YwFOc+IEr4aeTm37T92vBlHvqVWjUe8jtiP8g4uR8A+kvozEgsB08TRURexj5oU7I7kj3Fa1BuukxSlJDfY8nCseJMW3FEvr3/8nIh218WDrtA2YJyzMKGM2cor9u8H7MxAMOFY8hGA0D8mvJv/Rrs90daLMM/X5M6brT3OF9B0dOi4F9J3gOq54DLjqV1CFQVYrvlU/auQzxB3hWk8gJVaxGYyw5LoCbnywDLsrsTI6EpZ45ZfN7HqpE/VK0MrZDlx5ieHg9L4+Ar4oAZ/I4//YwJ1fr6Cs0hrLX2D5LfnkFpt44cct9HVHVdKneXj6i036ztBWamvUwMiv+P4Awx8IsvfgMd47eAyH3cb82dPxev0DJ4whPtFJqaqxvSPcUjET24wPJUUQ6T+qSbC6cK9+mI6nHkZQOUqRIHDiDcItJzGXzQDAMmERlsmrCJ5MHGc+pB3h0RDe7f+LZdIKMJpBMOBc+QiBo88hBfu0V71mKEtu65doR/gHHRI0NjbR1NjE1i3bmDhhPNU105k8uRKTOXtzKnVH9ejsCG/orGVh7Jh/ty0Xty2Xlp6mYe3O05ZfueMgOVlUjPLb7T/icMN7rK2+jkJXKWfb3uftk69jNzu4Ye6drJ72ofgdrQB2i4O1069n2dR1HG86wGuHn2bX2c0EwoHUtphOfq1njI33pTnjFOHNPQ2p9RfX2YonjweO+I7wDzj6PH2cOnmK/fv2k5uXS03NdKZVV5GTm5t1Hlo21ljeEe7rjfDKry/wyX+oxGw1yEeQ31DIsZ29nD3kpX+czZjPKOwIX3RdLpWzE4sbfb1RXn+0DVEcKJ8xuiP8A4xoNMrR989w7P0zmM0mZlZPxWQyUlRWlnUe2exUTtUtg9c54WiYlp5GSnLkqyaK3KVYjBZC0dCwdM5gd4SHIkH+/eWvs2raNSyZvBan1c2h+j28e+5txuVP5OZ597Bw0kpF2bn2Aj684D42zLyFA3W7eOXQUxyo24UYs0m1zN3B6JwSd0U8LBgJyNeEZKtzRmtH+Accba1tnDt9lt07dlFSWsL0GTVMrZqC3W4fOHEMo+UfGDgf5bsTBIn84gTRHA6I9HaGVW0i1QYEiY6mBCFtdRhx5JqQ6oNpdc6q2wpYf08RBoMcUjHVxmN/V0fT6YDmTm5JgsKKJNmCEt6eaEbdlZyPGCW2q1t+LwajQG6xiY6mcEZdEfAq7zY3Wfrl0XXOcDBc/wAoWgcjtSNcC9OKyvjimutYN3UmVpNyDtYXCuINBRGQ352mDSel81qlaTOSQEQUafN6KHMnbNeKnHy+te4mbq6Zzw92vMF7Dedi4me3I3xb7ftcUzUrnt8Xll/NJxeuItdqj6cPRMK823gutU7T9KtB1XtKBWiMJcPcEf6BhzQy/oFUYyPWgtWvS8smSwkf/R3hgsmMe81DKI89T/jWnMs/iWfbjxF7m1BAgqinFd/+p8j50LcAQb5LfOmnCdW9B2I0rYzZyOk/9Gec676GqWgaAJbJq7FMXkPw9KYh+dXkvnSJdoRfCf1Hh46LDJ0E16GDUZjoahcy4EQ3o1GZKFj7CSQBs0XgmvtLWXtHseJoMl9vlGf+u4FjOz0JZRrTzAajwMwVibu+I2GJ47EdQSBx4WyA3/59Pbd/uZzqRfIKW8EAM1a4yS0286f/10THhcTRZxkfPl5s8hRp7BHhVwIMRgPRqIjPH2DX3sOIosip2npmzprB9BnTyc/Pz5he5adMwtglwnOu/mr8Lm8Az9s/w7nsExisLgDs827H/Nb3Cbe+n1KW6O3Cu/NX5N32PRAMCCYbrlWPEDr7DlIksSNjKHIG3n+DcOtxzOVzATCVz44f3aSZdoCy5LauE+GjBQlAFKmrq6fufD0Gg4HxE8ZTM2M6k6dUYjAaB8riohDhF3oa4/kLgsC4/ImcbjmuWb4cNjpEeCQaZs/Zbbx79m2MBlPsmHM5uyON7/Hk7p/z4QX3cfWMD2O3JMg5q8nG/InLmTN+CRe663j50FO8eew5+oKeWH0NIL/WMyKl7ASfVjqTt0+9SiQaVjp+Er4lUmolTX8YKhF+JUCKOQF6unvYs/s9du/aQ15+HjUzaqipmY7D6cgij8uLCD+518O7b3Sx8hb5+H2rw8CNnynnV397joA3mpTTADbfCBHh+eUWNtxblHgOCV5/tB1Pl9wnB85nbBHhVwokIBSOcPjEKcSoiPHISabUNlAzYzrjJqTeS5qSPs1YOJJEeESM0Ja0E9xsNFOaN4762FGYF5MI94W8vHn0ed469iIGwUA05lA9136SPWe3Mb1sDnctfZBFlatip43IcFlzWD3tWpZNWc/p1qM8t+937D67hUDEr2UuZaVzAMpzJ8Y/Gw1GppbM4HTrMXln+iUiwq8E9D9na0srba1tvL1lG6VlpUyfUcO06iosFkvG9HIel54IN1sM8g7uGMIhkb6u/nl35mOkO5sTJLggQEGpmdoj2jrHbBaoWeKOE+AgnyD3qX+eyP6NPbzzlw76eiKxipUTCwKKneBBvxjXJ9kS4b0diZOCBMDuNgLhjLoiGpYI+UUs9hjZkrSQX9c5w8Nw/QPq9zsaRPjd81fwN1d/GLdVuahFlCS2nT3Bf2x+kdrO9sSObEHbhkv/CNpt5s2Th9nfVMtnllzFnXOXYjHK7c4gGJhbPoGf3PoJ3jx9lP/duZELvd1ZEeGbzhzn9pnnWVAxCQCjwUCeTWkPbz57ggMX6lIqOFO/yqre01ZA6lgyHCL8SoEEQ/YPpK8yee40Folw65RV2KrWxKNFOs4RrNuLc8EdABisbtxrHqL7pf+r6Rf07nwU14oHMbiKAbDPvZ2+bT8i3Hw0o4wDySlFgvh2/IycD39fDhcMOFY+QvD0ZhK6NbX9j0kiXIcOHSMOnQTXoSOGASeopE6S0k1009rVA0x0kyNpGpUZ5DcY4PYvjmPJ9QWK8Na6IE/+v3oaT/ev5FVOLvKKzEyekzgivbslTN0xX5IuluhpD/OH7zZw41+Vsvi6XAxGWd5x02z81fcm8qtv1NHepDzaVvXIyk8q52q2E9SUvPWJ7ohAFOUV9YFAgAP7D7Jvr7xbr7p6GtU108nNzdFMp/JTJmHsEeGWshpsMxO7wKOeNno3/wgpGiZn/f+RpTZZcF31ebqe/pJmWb59T+Fa+3lMhVMAsFWvxzx+EaHaHcOTU4zi3fw98u59PBYg4Fz/TQLHX6H/CPbLgQi/0tDvXImKUerr66k7fx6T2czkKZOpmlbFxMqJGDJ0gtEmwhs7zyvGyPK88Sr5tSa/o0OE9+u9iBhWjMcRMUpt+yl++OY/8sSOH3Pboo+zoeZmit1lCLGV5EaDkfEFk/ncum9x34pH2Hjsed48+hx1nadl4jqT/BrPWJarrIdb5t3PzIpF/HH3T9lft13euaiqY9WTxwNHigi/0iBJss7p7upmz6497Nq5m9LSEqZNq6K6phqbzZY+rUpfx8MG0vOXgAgXoxIbn2imeqGLonHyaQcTZzhYdWshb/2xNTZwSrGcRndHuNEscP0DxTjzEk6447v6OLSld1D5jCUi/EpDNCr3m0g0wplTZzj5/kkcDjtV06qYWjWV8orytGlHmwgXJZHGrrp43gbBSGlORZwETyvDKBHhCCBKIqIkKtpVKBriSONejjy7l8qiam5f9HFWVl1Drj1B7JiNZmaUz2fGTfNp9VzgtcPPsPnES7T0NiGpTgoaSOdYzXZyHYl5mdlo4eF1f8+yKRt4as/PeL/lMKIkDqxzRpgIv5IgkbDXWlpbaWlp5e2tbzN+wnimVU9j6tQpGXfrjaR/wJVjxupIjMFC0v+qP/FPNqdRcbJbwBdFEok3mExEeFdLiGhEwmiSYxRW9F8xk+pniESRSW4V3Pkm1t5ZyPKb8zm4tZc9r3bRci5AJCxhdRjjbcPdAAAgAElEQVQVBLTZIlAywUpfV6S/4tPqrv4q9SaXKYArP/Gs6XSFGJWIJnVFo+r16f6BkcFQ/QNK+1g1fg2FCFdhbsVExXdRkjjR2sQP336NbWdOIMbfk6DQJwPfB54sW2qbEZFo6/Pw71te4rmje/nKmhtYOmEyJoPcZq0mMzfXzGdNZTW/3fsOfzq8B08wkJEI94aDfPvNP/N/N9zK4nGTMRkSu2pD0ShvnTnGP295QT6ZhH7xlHWaa7Uxp3Q8kwuKESWRk+0tHG1tJBCJZK73TBhBIvzK6jUJfTM4/4CWDdYPAVmXq+wgLZssJXyUiHBBwH3V50neBe7Z+hMCZ3fgmHUjQmxRu2PxvXi2/YRob3NKOVFPK327HiXnmm/KT2m241rzBbr+9LByjqch40By+g88hXPV5zHGfHaWqg1YKlcSqt2ePm2GshKq6+IS4Tp06Bh56CS4Dh1JGLxTVHuiq1Zbgz36LJNRmSqzDKvDwOLrlAR4T1uY3/5jLW0NIeK6V1Vy9RIXjpwkp+huD5FwzCmbNIEJBURe/GkzggGWXJ8Xj+/KNzFzpZttT3eksVBUE6E0ztVsJqha0J2rI4v+CW9Pdw9739vHu+/upbS0mGnTpjFt+rSUowRVfsokjCEiXDDgXvswBqs7/rN3z++IeprxvPNLXMs+jiHmpHTO/yieLT8k0nY6pSwx4MG76zFyb/pnOcBgwrXm83Se3w0pjtHByRk48SqRluOYSmcCYK6Yh3Xq2tiq1TRpByhLbus6EX4x0N9vwuEwZ07L5ITdbpMdrP3kRLyC1ONgIp+RJMKbuusRJRGjII/vFXkTU3TaxSbCFc8Y+7G/PXV623h023/x7N7fsa7mBq6b/REqi6oxJE2wXdYcblvwcW6ccxeHGt7l9SPPcLB+D55Ad3r5VTKWq3aCA0wtnsHf3vQ/vHtuK4/v/AF1nWdS6lj15PFAnQgfHvr7TmtLK20tbezYvjNOTkyZMhmzxZwytlxORHhvR5hXfn2B+789CYNRDr3qrhKO7OilpTaQdT7DJcLnrM1h+lJXvLS+7igbn2gnEhYHlc+A9TaYutdttSGjf3ezz+fnyOFjHDp4OEFOTJ9Gbl5erN+k1zfyryNHhCeT4EaDgbLccSOqc4ZChMefUUPn1Laf5L9f/3ue2vNLrp9zJ1dNv56ynPEKWUrc5Xxi5Rf56KJPsfvsFt489hwnLhwgEE4cEZxJ5zgsLgXBDrJttWjSauZNWM5rh5/i6b2/ptPbNrDO0YnwYUMSY71Ckqiva6C+rp5tm7cyeeoUmZyYNAFDEgkVTzdoXZHaLgBufnAcK28pGdYzBPqiKXZhOiK8uzWsIMELyvp3v6f6GSRRYtsz7YyrspNXYkYNi93AkuvzWHh1LueO+HjvjW7aG0I43Akfgt1t5GPfquCZ/7rAqff65GIGIMLDQaWGF1QdOJ1dPBB0nTOyyN4/oGUfq8avESDC+9Ha18vj773Nk/t34ondxyzE/0t6w7HG3j8WTi0sZVxOYmy2mcxMKSjhbGdrkmxp2owkcKLtAl98/nGuq57DA0vWMrWwNC5vrs3Bl1Zdy/qpM/nKS7+nzevJSIRf8HTzlZf/wIoJVSyfWEWezU6r18PO+tPsqT+HSHzVS1I1yXW6dPxkvr76BibnF8WfRZIk9l44zw93buREe3PaetesV9V7GCki/ErF4PwD2jaMDAFZl6vsIC2bLCV85IlwS+UybNXr4j9FOmrx7n8GMeDBd+h5nIvvAcDoKsK14jP0vP4vmuV4d/0G1+qHMdjkBTX2eR+hd+O/E+08r5zjaaTNJKcY6MG7+1fk3PivAAhGM47lnyN0fifEFmJfDkS4Dh06Rh46Ca7jiobW/uoBJ7oaYdpEeIayNB3l2RLhWnnLx6N1tYSSJrgyQb30hgLeeLyFcFBKMU6NRoFZK3MUGR15pzdZQMUEZvJcZ/xI9MSzQ2t9MPFF++EvKyJ884mX+fO+du3CPiAwGlOdPGr0G+4tza20NLeyY/tOKidPYlnUhEVtdGsabWODCDcXT8Ux+6Z4cNTTQt/uJ0CSiPY00rf7CXLWf0mW2OrCvfYLdP35y5pleXf9Bteaz2PMke/ktM24HnPFHMINB1JkHYycUiSId/uPyf3Ij+PBzrVfJXh2W/xuJM20A5Qlt/WLQ4QfCU7hzR/9VEOIKwvR2PYUvz/AoYOHOXTwMHl5eUyaUaZ0XqQ4NGRo6xwGTYRf6G6I7biVHZSluRUYBSNRKarSX0MnJbTlZ8hEOECXt41n9/2ON48+x6JJq7hh7p3MGb8Ec9JVBhaTlcWVq1k4aQUNXbW8c+oN3jn1BrXtJ5EkKSMpoUWCg3yc4bIp66kum8Nj73yfLSdflvNJqgDVk8cDtSewmepJqe9f/uNWJGmrplwfHAxgI0kS/Sfp1NXVUXe+jm1mMzUzpoPgTrW7SHVMj1Ui/Mg7PRzZ3sPctfICQpvDwG2PVPCLb52LkzJJxY04EZ5XbGbDvYXxa3IkEbY/20nLedl2G8rO8iQhhlf3w7DV6oPvsu9Hp8gWu/Yeyjru5QQxZiP0dPfw7p73eG/Pe5RVlGMsiaba2VrjfUofUA9h2emcpu66pFwFyvMmJPIfIZ0z0kQ4QFNXHY++/V88v+93rKy6mmtn3870srmKMpxWNxtm3MKa6us4136STcdfYNeZzbT0NmrLHxPHYXGSY9c+PthkMHHTvHuZPW4Jv9z27xxqfDdF9hSdMwJEuE0s5CcfcFtNi8hWo/9EknAkwqn3T8rkhMPB/AXz5PpUXW82Wv6BwUIwJLXzAXRFT4dMgvcjt8iM0STEwlL9DLVHvfzym+eonOUgHJSYucLNzJU5WGyJ+jSaBaoWOJk634mnM4IrT3nErzPXyJ1fLecP/9rIuUO++PiQVndpYCD/gNEMZmuiXkN+Uft9jLDOeffMK7x1JHv/wGubt2cdd6xgOP4BRDHl/Y4YEa5CMBLmleMH+Mn2jdR1xd6JAOo2rXjDEhQ4nXxy8RrumLuUAkdiYWCe3cEv73yQX+zexHNH9hKMRlCkVrcZSSAUjfDi8f1sP3+Ku+Yu5RMLV+O2Jk4yml02nuUTq3jx+H5lW1S3M0m+93vzueNsOXci8ZBJbVdLj88vn8B3r/kIBXalb04QBBZXVPIv13yEL7/6R+p7utLWuxopc7gRIMJdXaEPvM7JBun8A0unl1GuaVeBsgMIaL41rbQp4SNIhBsEctY+rLhisG/7rxB93YCE551fYJ99U4zYFnAuuZe+3b8l2t2QUk609wLePY/jXvsF+QnNdtxrv0j3c19LkXWwRHjg8F9wrnwIY558coS1+hrM4xYQbtibOW2GshJDm06E69BxuUInwXVc2RhgspNugiQrv0tFhGs8BBAOSfzuO7Xc9+1J8WM3jSaBNR8tIq/YzF9+2IS/L6owTp25JsVR6B0XQtS970suNWbswIKr87jps6WKFd+RsMSbv23j/T1epcGmkCzNREhhyKef6KbUW7q6HcGJ7qyKhYyb9cG1Pk6cruXwiWwcxwIGA4gSlJeXMb1mOlOrpiC8+CZhSDW6NdvoJSbCEXAtvR+DK7FC2n/4ZSId52INVML73h9xLf8kBnsuAI45t+DZ+iMi7WdSyhIDvfjefQL31V+Tczeaca16iK6nHtI0WgdDhAeOvoBz1ecTu8EnLcMyaSWhc28P8IyZy5Lb+ugT4RPMLVx3/bUaAnwwEI1E2bjxraziGgwGRFHE4XBQM2M606ZPoyvU7yzvf0+pDo1+aBN8DIoI7/F14gn0ku+U7yMuyx0v38kdiWrsWNKa/F46IhxJoi/oYevJ19h1djNTS2Zw49y72FBzM6akSbdBMDKxYCr3LnuY2xZ8nBMXDrHx2HPsOrMJf9iXQkrk2HNxWhMLv860HicQ9jFr3KJ4WL6jiC9e/U+My5/MH/f8lKgYUdSx6snjger+oLVxKB0psXD1TIqc4/mg4tDBw1y40DxgvP73ZRAMTJw8kek105k0aSInnz4GaNhdmv1k7BHhoijx8i+bmDrPhTNXnnpNmeti2Y357HyxM4vFj0MnwgUB1t5VSEF5YoFkwyk/u1/qig/r2eQzlEWLo02EF5qnsvCayQyE7u4uOltbWDRnxoBxxxJa2zvZtP3drOIKBgOSKJKfn0/NzBqqpk1lx5mXAI13pzXep/QBtW4ZWOe097YQDAewmmUSYHxBZYY509B1zmgQ4UgSHd42Xjr4JG8de4F5E5dxy/x7WThpBQYhMe8xGy1Ul85mWsks7ln2EAfqdvHW8RfYd347UTGaonMKnMVYTQlSZN/57RS7y5lQIB/RKSBQWVTNt2/+IT/d8l22vP9yiuwpOmeYRHjY4PlA22oA27a9jd/nHzCeQTAgSiIms4Vp06uorq6ivKKCl8RdF9U/MBi4800o+mMGXRHwRenrjsSPU88pNGMyG4hG+hfXpubT3hSkvUk+Qe7I9l7KJ3ew9MZ8Fl+XH99RDnK7yinUdiU6cozc/qUy/veLtYT8Ykw8bd3lzFWS6AFv/y699DrHYBTii7riaS6CzplauoCSmoHfZeuFJqRImJqqygHjjiUM1z9wcMtzQKpNMVwiXI2jzQ38x6YXebfuLBExCv1keepEI943zEYzt89ZxGeWrWdCXmGKfQ5Q5s7lbzfcyjXTZvOdN5+lvqczlk16IhwBOn19/HzXJjadPsYjK67h6qqZsVoCsyHpeP8BiPCU8SO5flT9wWI08dnFV6UQ4MmYkFvAPXOW8Z/bX0NM1idpHQZJoowgER5wmrju+qvSlne5Y7j+gXx/I37QtKtUBgAg+9VA9Qq10qaEjwwRbhk3D9v09fHv0e5GfAefi2UA4cbDBM+8g33WjQAY88bhXHgnvZv+O7UcScK353Fcyz6FYJUXpdjn3o5ny/8Q7W5IkXUwRHi0pwnfe7/Dfc235fqyunEsfZCehn3EJ0Bp0mYqK9FXdSJch47LEToJrkNHhsnOiE10M0y0UvMZgAjXfAZZo9af8vPzb5zh7q9PZMo8F4IABoPAvHV5FJRb+N136uhuC8eN05krcxSTyINbevpPiImXajIbuOquItbdXaSI29cd4YUfN3NshwdJSkxgtB89zURI4dAa2Lk6EEZqolviLmd2jYsPKrp7+zJOcg0GAVGUyMvPpWZGDTU11TiciUlWKDmy2ujWNNouHRFuKqjEtez++G+ir5vebT+TE8fKCre8j+/An3GteEB+flcRruWfpPvlf4jHSy6rb/svcC77BAaXfKShfe5H8Gz9IZHmY5pGa7YGu+jrxvfe4+Tc+G/yhN5kw7nyEUK1O0GKZEw7UFlyWx9dIjxX8GKbNlWj8A8GwqEwbEz/uyFGQpjMFiZPqaRmxnTGTRgfr5+uC43xuIMiwiFNH1OMrprvtKGzNk6Cl+SUYzSYgKDm2DcWiXAEgWAkyPGmA5xoOsijb/8X18/+KFfPvJWKvAmx55HhsLhYOGklCyatwBvwsPPMJraefJn3mw/jC/UhSRIl7nGK5n24cQ+/fvv7rJ52LZ9a9RVKcioQEDAbLdy5+EEEAf6w+ycyuZFUAaonjwemEuExR0XaepL1fdn4YiYVfXD7zrmz57hwQfs3Iea8lCSJ0tISps+oYVp1FRaLRRkxnd2lstXiYQPo+YtNhHdcCPHqYxf4yJfGYzAICAb40P2lnNrXR3tjaNSI8CnznCy5IbETNRKSePHHLQT7iYkh7CxPttWAS3Y0ut2Qz9RpeQyElgsXEMJBZtdUDRh3LOFcXSNkIMH7nalOp5OpVVOomTGdouJizbgXgwj3Bj10+Tooyx0HQEXeeEVGlwMRLgkC/rCPXWc2s/vsFsblTeKmeXdz1fQbyHcWxa/nEASBXHsBV02/kbXVN9DpbWPziZd459Tr1HeexR/2AVCWk1jcJEkSm068wI7TG7lp7j18bMlf4bLFFl9aXHz5mn9B/P/svXWYHceVPvx2X8YhDWpGOKMRSxazTLIsQ+wYY2aIE2c3cbK7od39ZZMvaDuJ17SK2Y5JJiUmWbKYaSRZTDMa5rnM3d8ffW9j9YWZO6OR1O/zSHO7uurU6aJzqt6uaobBhuOfK3RX2Jw+EOFRNozR57GvBgBbtmxVvZdoXxRNoaK8AmPHVWPkqBGgdVIyVrU8k9mKFOsD+zZ0o70pJOii1E5xSYHC7GUFKKrgXqbQG2gYzTTCQe6I5FS2oqMxhMJy7uX4nEID9CYg6EdaNoeJsWg8EcBHfw1g9VvtmLUsD9Mvz0VukYH/vIca8kuNGDXJiiM7vKL2rLRdFtEn2cBy3zwXqU9cH7A5ycR5f9ucfFspRlepk44J0GwMbDh4ztmcvq4PcAUHpf8gGWtl41c6RLhMj7d2b8aW2uOKsVtsK9j4XSOtw+zhlXji4qsxtqhM0edcQT90tA52I9dH9DSNecOr8OE9/4pnN3+F9/Zvhz8SVm8zomc51tGCF7d/zZPgfJmIr7JEhA/LKcCUEuFkqxavC89sWwOLwYgn5l0Bi4HzoReNGIPnd67ljoqXl7sCrORXtojwiIE+r21OX9cHmAZhfUDuV8l9GA4UuDmIzA8ipVWE95EIp3VwLhaOLwdYeLa/jmh3A58Xy0ThXvcMzFUXx78NTsE26274dryJmLddkU+k7Tj8e9+DbU5iHa4QtvmPwP3pfwIEXdPfYMIisPcd2GY/CNpRDAAwjb8G+s3/i2jLQZnMQUqEa9CgIevQSHANGoCsT3SV4jOVo06Eqz8DZ1G727jvgF/3vaGYdnkeL6Oi2opH/jgKb/++HmcO+0GxwORFOXxyhmHxzSaXxNobLTSufbQUM5ZKFxk7GsP44Olm1B3kFnmIx2RKnj/JREiyoKWc6MonG4py7aeJ7oUGiuKIameOE9XVY1A1pgq5eeqLy+rONQYREQ7YZ94KOk4CAkDg0JeItB2LaxQHw8Cz+W+wTrme/za4ddqt8G57FdGOU4q8Yt42eLe9Cufl/8bJMZhhX/AYuj94nNOT8PzpOuyBmvdhnf0A9EOqAADGykthrJjJfcMo2aQkjby4tt7PO8IvMFAUN7bQNI0Ro0agemy16jcl5UibCFeMX0ibCG/qqcekCm6Xs81kR54tH4Gwj49wrhDhbPxmt68Db29/ER/teR3TRszDlRNvxISy6bCbhd3dFCjYzU4smXA9lky4Hm3uJuyu24QtJ9egyFEm0aXZVQ+GjWHDsc9xpLkGDyz8N8yrvBw0RYOmaNww7T4cbqrBrrqNijKWPTkf2JtvhF+IM90EgZdfkI9x48aickwlrFZr8kRq5SnzsfiwFHZ+oInwPau7MWl+Dqpncu3VkW/AsvtL8PbvziAakbcJqMqJKy9bOJY2TBaAxUbjmkeLIR6OtnzShcYTQSFdhjvL5b5aynLLpOw1Xy0lEoupBqMRlWMqUV09BiVlpWmVSn8T4b6wDz3+Lp4Ez7UVwGqywx/ypjkWJsLOPhFOxfVo6K7Fi+t+h3e2v4h5VZfh8vHXobJoAswGC58nRVEosBfhphn344bp96K+6yR21W7ClhNfYcSQMXy8GBtDm7sJoWgQH+55BTVntuDxy/8fxhRPAgDoaB0eWfxTnGo/jIae2tQ2pw9E+IUGCgBoCmCAsqFlGDtuLEaOHgmjQfntawl6uz4Akn/F4vBOFw7vdMl0k9ouSnoBABg+zsaT4AYzBWe+AR1NIUj6o4qt6GoWXl02WWjYnHp4u6PJX7gnyPF0RrDmrXZs+qgTY6bbMeOKPIyYaIXJou7vhgIiQpsXK2qMFJBbKCxHsiwLV1tEHJu4PuDIl5LgPpeQj2ZzsotM1weUYxPJP5bFSYMIl+SQeEEd4rFPSoTTNIUJJeV4ZO6luLxqomKTSiASxupj3+D/tq8FAPzssm9hVsVo6OIOk9VgxI8vvgqXVo7HUxu/wL7mM1wbIrUZ8Vgg1xWEtpcFIrzI5oBJL4xf73+zE18e/waggNnlo7BkNEfEF9mcMOoSfUxa7gqwsryArBHhFxoyWR9IzALlc0fJT6kDEL8YeCLcUDQGlnHCSTIxdxt8u95V5BU6vR3B4+thmbAMAKAfMgrWabfAs+FZkcx4PiwD75aXYJlyA2gLN7ZYL7oFvi1/Q6y7jvAwZB3FevL6ddVyRPiiHwCgQFtyYZ39INwrnwBYRiZzEBLhGjRoyDo0ElzDBY10j7/KmAhXyysLRLhSrviCs6h+XwzvP1UPV2cEi28uhC7+tnZesQElI0w4c9iPvBIjyscIizjNp4LoaAxL5BgtNEZPlS5KnzkcwPtPNqKzMczrQ1oUlWuXdCKUZKIrn2zIxWsT3d6BZViehLDbrHA6bBg3aSKqx45NXwaSOOzEOhtYIpy2DYF9/gNCvFgErq//TNQ/0nwYgW8+g20Wt2tc5yyBbdZdcH3+K8nkm1OBhX/Pe7DPuQ+0ndt1ZZlwFTwbnkG07ZjqxCIdh53xtiGw913u6CaKAmW0wjLzHoTrdwJMlCBz8BDhFwziiywURWHY8GEYO7Yaw0YMg16f2qWSF2t/E+ENXXWS/Etzh6Gpu16i0LlEhCfCgpEAthxfg20n12J4QSXmjL4EC6quwOjCcYqFriJnGZZNugVLJ96EQNgnedYWVwP/u83TjKdW/RS+kAdLJ94IANDTBnxr6p3YVbsRkioQTBkUpaLQPxGcupzPa1BxmxNjkJebi+rx3I5vh8ORMikrvyD6XYOfCA8HGXz+cjPKx1j5Y9HHz83BxAU5qFnbQ5Cj7OvpEuEUDSy+tQCFFSZeVmtdCBtXdBLkq8sR/qj7ainLTfPV+oTEkc1GowGFBfkYOrQM0+fMVox1JJBtjrq94dL0jggPhgPo9LQBpVw6i8GKfNsQjgQXxTuXiPAEXIFufL5/BdYcWonRReOwaMyVmFt5GUpzKiAGTdEYXlCF4QVVuG7qnYgwEf4ew8TQ5hGOxDjVcRT/s/Jx/NuyP2JS+UwAgNOSh8vGX4/XNj8ttXtqNqfXRPiFAZqmwbAsikuKUT22GpVVo2ASfbNXDX1eHyDJgbJdp5QTr9iOpiAf32jWIbfIGCfBhUhqtqKzWdh5DgAFpUa01gWhtF3J5cQfACE/gwMb3Ti4xYO7flmBcXMEG87EWNA67pvj+9a5UXswAHHrFMRyjVGnpzCkXDj1JRRg4XXF5LEV41Z+qUD+sQzgao9qNidL6NP6ACv6kW0iXJGXcm6QGLtH5A3BvbMW49oJ0yTf6AYAhmWx/cxJPLf5K+xtrEWM5U5UeOzDV3HDpJl4dM6lKLRzLypSoDC9fCReuOE+vLFnE17fvQmeUJDcZlIwV9kmwj3hIBiWBR0Pm1o6DCsO7oJFb8ToPOmJMPMqKvHliW8QjkUhqwSpjrKy5VXpKxF+oaAP6wNcebESO67ugwlpuHFc1k1IaRXhvSDCoYNj/gOgrcLpUr497yPaWavMi2Hg/vppWMYv5SYkAOwLvwvfjtfBBD2KfCKtRxA8uhrWqTcB4NbhLBfdAs/XT4KC5JjSpDpy4dK1Md+Ol2GdfT8oE2erzJNugG/904j1nCHI1IhwDRrOd2gkuIYLHv1FhKvm1WcinGCYIXVEQVGIRll8+WoLulvCuOaRMpgsNDZ/0oldq7oBsKieYYfRLLyNeHSnF6EgI5Hj6Yrind834r5fD4fZSuPQFg8+/EsTfO5kE1S5cuqLqxkT4eRC1Sa6vYDRZMTkcVWYPL4Kw8vL8OnqjcjNyUmdEIjXRdzxhppzjbNOhNtn3QadXZgIBr75FJHmw2TnlGXh2bQc1mk3g9JzpIFtxu3wbHgOTPzoJnFe0Y6T8NesgH3BdwHECfc5D6DnH//BE+WkiUU6Drt/1+uwzXmIP7rJPPF6+DY/i2jzARWZg4QIJ2R1voGmKJQOLUP12GqMGj1SeWRzGpAXa38S4Q1dtZK8h+YNw67Tm6XVShj7zgUiHAAYhkFtxzHUdhzDyr1vobJoPC4b/y3MHnUxcq0FEIOmaNhMUsL1oUX/jouGzcOh5r2o6ziObn8HPt77GuZXLYE9/u3wCUOng6K450+LlFDYN3HwhUuE2202VI8di6rqSuTn52ecPr0XEAc/Ed5wPIDNn3RgyV0loChAb6Bw5b2lOLnPB09XhODzgShH3jeEYuH+r6i2YNYy4TSgaITFly+3cf4bv+giKk6NCB+U0Ot1GFc5ElMmjEHVyGHYuvsAKKM5LQKcYOK5a7mfTVzszJwIZykWDYldOwDMBgvy7YWo76rt1Vg42IhwAAhHwzjSvA9HmvfhvZ3LMaFsOhaPvQqzRi6W7A4HAL3OAL1OIOsMOiP+46onsffMVhxprkFD92l4Aj1YWfMmqksmwxj3PScOnSEplJQ2RyPCFaBpGkOGFMSJ70rY7KmPsJaj316U7wUR3nRS+L653kChbJQFx/d60iKwO5slH7FCfpnYb+0dEQ6KAq0DbLnCUqK3J4oXf1wLe64eflcM3W0RMDFuEJLO64V5l9GiQ6GIBG8+GZT1RaXNoSgKBeUiEpxl0d0WIZabZnMyR5/WBwDpnCZbRHiKzKRjH4sH5lyCW6fOUUQ/0dGKZzevwtqThxGMRIQ0FItgJIK3927Ftrrj+JeFV2LJmEn8fYfJjO/OvRwLR1bjT+s/w+7GWk5BeZtJ8UZ4NonwJncPWrwulDm4nbPzh1Xh3Vu+C72ORoFVOtf52aKrcdWYyVi+ewP2Ntdx8xmW4n0EiY4QlXuWiHBSPucbsrE+wJXX4CXC9TmlsE2/mb9mQl54NrygmleodhdCp7bCNHo+lz6vApZJ18O38w1lPkwU3o3PwzL+Kv4Idfvse+Hf+QZinlaQ1qxIOgrhwtpYrPMUAvs/gHXmvQAA2poP69yH4Pn8lyoyBw8RrkGDhuxDI8E1aECWJrpIb5LUdyI85RPwFjUWY7H9s050tQk1tnIAACAASURBVIQxcX4OPv1bM/+W9pSLcyWLo4e2uoly6g75seKpRpRXWbD27XaEg/FFWZUJKlk99cXVjIhw9cfP6kT3fMdFE6sxb8bktI5sVgWLeJ0OTiKctuTAsfBh4V4sAve6ZwnChctwwz4EDnwK60U3AODeQrXPuR/u1b9X5sUw8G1/HdZpt4G2chNQy+Tr4d34LKLdZ5JOLFI57Iy7Gf6dr8F+afy4daMN1jkPw/3xD7jERJmDgwg/n6Ez6HH3/XenPrI5GYiL2LJFI8k4KE6aORHe3CPsdAaA8vwRYjUkep2rRHhCpD/sxf6GHTjQuAsWow1TKmZjYdUVmDFiIexmB2hK9r1PAOV5I1GeNxLXTb0TUSYGlmVAUZSUuKCNiszkixGyJ+cD0yXCz3fMWzBX9t3I3uF8IcK/fqcNE+blYGglR5oVlBmx9N4SrHi6HmDTlyPvG4liMVspLHugGBa70Ob3ru7Bsd0+UXRCqz3HiPDzHaXFhfjZ4w/AaExxZHMyJLU56vaGS5o5ES62OUa9CUWOEmlaiU7nJhGeENnj78LmE19h68mvYTc7Ma/yMiyougLjSqfCarQriE6KojC2ZArGlkwBw8YQ422ODgYZWS7PLKXNyZAIP9/x7Ruu6xebk82j0TMhwlvqAggFGP7o8cqpdqz/sDUtAruzRbYTvMSkaD+9IcJ1eho5BcJSYmdjGB0NYXQ0hkWyybYi8aui2gydQYjdcCzIq6C2PqA3AEOGCn0kHGTR3SScuKDZnN4jK+sDEI/H8rGJ5B/L4pDG7DQyE8d9c9cmXD1uKuzxXeCdPg+Wb1uL9/fvgC8UlK4p8BlxROLprnY88Y+3cNXYqfjRomUodnAvAFAAJpVU4MUb7sfPv3wfXxzdT2wzqdXNDhHe7vPg40N78OisS0BTFGiKQomD/LKCjqYxvWw4Jpfcji1nTuL/dq3Dya42QEVfodvL6qKXRPj5jmyuD3C9ZHAS4Y5FD4O2CG3Mv2eF5FvgSj0ZuFb9AUWPfoTEbnDnpT+Ev2YF2IjwYlcin/CZ3Qid3AjzuKUAAF1eBSyTvw3v5hcEPQnPnw4R7l3/FKzTbgfi/pVl5n3wrnsKbKBbRebgIMI1aNCQffTNw9Gg4VyHxM5IjQ7JkWUTRo2UJkm6jOSwhLC4Y6MijKxNPAHDAsd2e/DhXxsQizBgWaBomAmlo4TjoVpOB+NHo5HlfLPJjS9eaUUoyIgVFMVTf2ZBPXns5HK46OI7KvUhSkqMIys4VpSvmpzzHTarpc8TXADxshImR9Jw0U9imVLkNq1WFZJwSrWeEjLts++APncoHx449CXC9TUqwoVL1+onwUaFXROOhY+CspB3LYabDyFw8J/8tc5ZAtvse0UTRukiGElPZTiXxr9tOdjEEaIALFNvAZ0/UlV/cdp08+L6jMxDJ4lX1f/8n9iKQVNU3ya4AMQDnrxYhXqSj4Pi1KTxS3wtGV3R1H0GDCt8K7E0ZygvVFGthDGU1HZI37sjKKKivzJQnkw5risFqpcdwLIM/CEvtp5Ygz988e+475Ur8NtPn8BXhz5GJBYBCRRFw6AzwKg3waAzShZMDzTulKos14FYnyT7Jg6+AAyNCH0mIzLyl5Q+Fild2v5CRj4fyVdjFX00EmbwwV/qEQ0LkWcuzUPVRQ4hTRpySH2DooBZV+Vh+ARhrOpsDmPN3zvAxBhZdFJfVPfVFGGqcpKUWxZ9tfO9H5lNxr4R4AkktTnq9oa7K69L8o/EZWNXnaQuS3LLyeO2Wt/tg80h6y+9QTCzKW0OqZWJ82LYGNyBHnzxzQf4xUeP4OHXr8XTq36BHafXE1JyoCkdDDojjHqzhABnweJAw87kdk/N5pDCL4B+QkJ/2pxsrQ+wLIuicjNKRlhE/8woGS5cF4/g7uv1NPzuKJ92aJUVOQVGKG2FqK3Ew7uaw2CFoR8F8Z3gihE3hRz5ExiNFJwFQtvtao2InlUqh3te2TWAsXPsEi1O7/dD3JBJcgxmGoUVAgneWhfiZA+AzTnf0ff1AdJ4LB+bVOpXHEc+ZhMG92Rj5PH2ZrxXsw3uYACv79yI619+Cq/sXA9vKKjepuM3WBaIMQz+cWgPvvPW/2Llwd3xY8Q5mA0GXBL/3jaxzSgMrUJ1Zdtjpe0spZ8bj/9mzVasPLwXkZgwz0vAHwmjtqcDMUbo/AZah8UjxuCl6+/DTxZcye8iJykrlEuSuiDadqWver4jO+sDEBUVJStTwk9FsQovCpFlkn0w7qf6elVCps5RBMfce4WwcACur59JmVfo9FYEj67lw/VDRsI6/TvENSuWZeFe8yTEBsux6Pug46e4qa1ZJXQk686liXWdQWD/B3w4bc6Bdd6jqmUiTquUSc5L6Kvk8kyeV+LXhbW2pkHD2YC2E1yDBhaZ7VhBit1BpCwyfOM7oRNpRzjR7vLPQN4dJHpEACyqLrJLdggd3eVBKMAkXkBUlSNkxStIfFNbXb3M5JB2GSll98Mb3xrSBwsMth3hlDkH9lm3C20tGoZn86tgolHVN2QTl5HWIwge+QqWiVcDAGhbPuxz74V7zdPEN0I965+BdepNoAzcSyXWGXfCu+kFxLxtgp6Jyb1M12RvrsY8Ldyx6PMf457JYIVtziNwf/rvqm+SJtKe9R3hGoiQLvaId0aI4vD1JB8HxXLS3xEeiATQ5e3AkPjR+omd4GTbkFDt3N4RLtGIBXwhLzYdX4UDDbswc8RC/ph0f9gHX8iDAnsRaEq56BdjojjcXIP/W/9bfvFJVQchOyhKRaF/IlizOemDlbX3c39H+Jkjfmxe2Y7FNxUBAGiawjUPl+LFn/jh98RU5Cj7utxXK6ww4+JbCvl0TIzF6jfa4ergCIrUO7lxTu0I16AOlv9fXneiOLK66+uO8E5vB4KRACxGbkE4qc1R67t9sDlnY0e4PFGntw1fHfoIp9qPYNbIxXz8Hn8nKFBwWvIUc0IACEeD2HF6PVbsfkmqJ6n81GxOBjvCNaRA0vbRu/UBcRhFU/j+02ORW5j5sbm5Q4wYOcGGmvVhKG2FaIRmgWiEgbszgpxCjrAuKDOq+FGZ7QjPKzZC7Dp1NYchbpip5vUGE43qmQIJ7nPF0HQyqLA5cjlDq8wwmAStG4+G0rIV2vpA/0NicwDpnKaPO8IVOcnHZVGbZlgWy7etxcqDu3G4rRk8w0Qlb9OJG4l+0Opx4RdfrMCaE4fwx2tug1GnF/Lnf8nbjFxblrwOmIUd4cFoBL9d/ym21J/A1WOmoCj+LfPT3e1YeaQGh9ubcMXoibhjyhyMyBvC52XWG3Dj+BlYVjVZUbLKtTpCWK92hGtIC3yZDa4d4fY5d4G2CMfs+w/8E5HOOmVUWV6IhuHd+jLMYxYDtB6gaDjmPQj/3g/ABD2KNatQ7XYET2yAuepiAPHd4FNugG/Ha1I9Cc+fdEc4YvBtfh7mCdfFj1sHrNPvgn/bcjC+DmKZ8GnP9o5wDRo0ZBUaCa7hgkavJ03JJroqNitbRDhJvqozz2UscU71Bgrj5zr5tCE/g4NbXGnLEVRTm6CqPD8vNl05ygmzumxtojuQUNQyCwwmItw29Vswlozlr0OntiJ4cjOXRu7Myh1QJgbPhudhHrsElJ5bmLLPuhPera+C8XcrHOFIS5w0n3QtAEDnLIZ1+m3wrPtLWhOLZA67f8fLsM68G5SRWySyTL0Vvk1/QczVpOpAE58xRV5cn9GI8IGAaGRDVohwuWzZzDgSi6DV3cyT4CU5Q0FRNFiWIS9c8KqdX0Q4SwF2s1NyzPnWk2vw6uankWstQFnucORZC5BrzQcoCp2eVpzuOIrajmMIRgIq/UGmg5AdFKWi0F+muIakYNEbf0mZhpTubBHhLMti7bttGDfLiaJh3EtUpaMsWHRTIb58tYXfNZcJKUHRwFUPFsPqFL3kuNOL/etdsvaZ3MeS90+5r5a+nAEgwjUkhXrdieLI6q4vRHi3vxP+sJcnwUtzyjlhLEset9X6bh9szmAgwlkAubYCSdz3dv4NW06uRr6tEKU5Fci1FsBpyUGUiaLD04ITbYdQ33US0Vi0bzZHI8L7jH5bHyC09d6AooGLLs3Hgc09iEXjFlLFVrAxoKs1zJPg+cVx0r2PRLj02+JAZ0tYMd4km9dXz7TBkScsRZ6q8SHgiclzVcgZfZF0x2XdwUBC897VmWZzsgp1eyIfm1TaiQoRrpaZGhHe6fOg0+fhwhNxRA2ZoihYDAb4I/EXSSCNk+gHUSaGr44dQDh2s4gElzwYn9ppsuDqcVNVVO0fIjzCxLD6xCF8ffIwzAYDAArBSLwvUsBHh3djXe1R3DxxBm6ZOBO5ZqH/WA3SPsxCWe5Ct5eFZUKEs8Qi0aAGviAHBxGucxbDMe8ePpAN++Fe/wLAxLg08jUnWV6BY+sRqtsN08jZAAB9cTXMY5fAX/Mhcc3Ks+FZmCsXIfGWlX3Bo/DveRdsNCjVk/D8ydbVIi0HETqxBubx8TW7nKGwTLkFvi3PqZZJIq1GhGvQcP5AOw5dwwWPdI6/6tXRZ6S8COenJJXDEsIU+bDC/6wQJonFCnEsdh2sDh0Yhgtrqw+i6WQwIzmyXCF7BJlq8jTpyhH9kskhREmvzmTln7LuNZBBKiIWEC91kOKqVSOQvaPRaZMdjnn3AjRHArCxMNwbXgQbCQpp5McbyfIO1u5A8Oga/lpfMBK26beS0wJwr/kTwAhHpdkXfQ+02aHUk5AXJ1MZBgDR9hMI7FshPJutANY5jyjFEGWSFw3U8uL6jMxDJ4lX1V9bHEoL8jFOOQRx16IxWBmWuMMKKxbi2KK00VgEra4m/r5Bb0Shs1QxFiuqlTCGktrOYD8aXVzARc4ymA3C4k991yl0eFpxsu0wNh77Aitr3sLrW57BG1v+is8OvIvDzTUIRPwEG51EB2J9qtjJeBlrNid9ZO4vKdOQ0qXtLyTzFRRyWEKfYSVt3NMdwT//1oxohAugKGDet4agfKw1iRxWISdxPe3yPFTPFHZqBLwx/PPFFjAxacOU9xySjyXvn3JfLX05yetM89X6GWyyuhNFk9UdcbxXGwtFP7p9HfCFfHycXFs+bCZHcpuj1nf7YHPI+ktvEMxsSptDanWK/hm/Hl5QKYlX13kcra5GHGneh7VH/omP9ryG1zb/FX/f9hxWHfwQp9qPIBKLZMfmkMJV+psGMvplfUClrfcG42Y7UTzcLAoh2QpuV2xXs/BdcL2RRs6Q+AuBRD+KLEduc/KKpZ9q6G4Oy2PL+pDwi6IozLoql99JzjJAzVq3YKuSyBkzU7CPkRCLhqMBUZpe1plmc7IKdXsiH5tU2ok4DmEwv3PGQswZXgk6/oJV0jEyHiZWocjuxG+vuhXP33g/bAYTf0NuT1TnzLK8aIrC5VUT8Pbtj+He6QuTRE+j7bFJ2itp/GCFfu4PhxGIhPi7CVHdAS+W71yPuz5YjhUHdyEUJX8aSq3c5fabFCdZuWs9JzUUTYO/PvtHo9un3Qh9bjl/7T+0CuGG/SLdSayz8JMJeeHZ+ALY+CfJKJ0BjoWPgjbZielDJzYidGozf20oqoZlyg1kPRUPQ/b/AICNRuDb/LzwPXKKhnX2A6BtQ5RiFDIzX1eT6CmXlzSvxC9tbU2Dhv6ARoJr0IB+muiq5ZUVIlwpgf9f5BGRJgXu7ij+/NhxPPfDE9jwQTt2ftktmnSmL0cWWzaBkUdPw5FOMWHWiPDBhcSmHmkgcLaJcMuEK2CqEN7CDp+pQeDIWoL+6kQ4Gw3Dvf45iZNsn/8gdPZCYtpw0zcIHFnNX+scRbBOv42sp+JBEvoQwhgGvq2yb4NPuRk6Z5lSDFGmRoQPSsjHOOUQxF0TZrdEIlyWWNzHGDaGFlcjf09H61HiLJUmuUCI8NKcYdDTwi6OFlc9WX+imZHb6CQ6EOtTxU5qpiZjnG9E+OFtLuxZ08Xftdh1uOahMpisOmmaFHLyig244p4iCanw1ett6GwOK3ws4U9yH0veP3svJ3md9dZX05Am2GR1J4omq7veEOHhaAgd3lb+vtOcCzv/PUepYNJYeD4R4eV5oyRxWlwNZP37y+aQwlX6mwYy+o0IZwGWZfDPv9Xj/T/XSv/9pU7yb4Xo385VnbwYg5HGwhuKUtgc7rozTlAncMl3ilFYYYLRTKv4UWQiHBRgdehQNc2OqZfkSFJ0NoVlsUl+D/dr1BQrho0TyOzmU0HUHvTHo6jbnNLRJgn5XvtNAH4PA2kOvawzbX0gq8gmEc6yLBhR/UwoKcdrdzyGP3/7HowtLgMtyUnITB7mMFtw/+yL8c8Hf4zrJ83ArGGjcd3EGaBEusntSbK1CZqiMamkHC/ccB+evvYODM8bQjj1UapIfxLhwk9lubNg0eJ24dW9m7G14RThoQCGZaR1kyUiXEN6GIxEuM5RCMf8+4RTAMIBeDa9BFa0+YPLJzkR7j/4OcIN+/hr0/AZMI+/kpiejQTg2fR/ABP/1j2tg33O/aAMFrKeiodRb3ah01sRPi0Q7PohVTCPu5osRiHzbBDhGjRoyDa049A1aIiDO24mO0efEaaSknR9ORo92ROoHVkmPyYqFmNRd8iPukPxCSfSP25TLEcWm+CAiaMLBSuIVZejdoSaosz66egzDelBVIXxAOBsHY1O603Iufgx/vgkMDG41j0HJhJU/0aQytHoododCNXugLlqMQDAMGQ0LBOvgnfba8q0TBTeDc/BPObS+BHqFOzzH4Z/z3tgAj0KPTM5Gj3SchjBI1/AMuUmAIAutxyWaXfAu+5PSFbGqs+YJK+EjN4eja6tDWUA+RjXj98Ib+iq5ePqKB2Kc4YC9bsgkRoXqqhWwhhKajvnwtHoJTlD+XtRJoJ2T4u6/qRnVNjoJDqITKKiVBT6Q0OGSNdfOheORmcYFqteb8GYaQ7kFnFHU46aZMPsq/Kx4YN2UftQl6PXUVhyV5Gwuw/Ayf0+7PqyW6wWenekOQb10ega0gQ/7pDqThRN7q9nMhYmbE5nLaYNnwMAyLEKJLg0LmHcVuu7fbA5ZP1JbRqSwkhlc9I5Gl1sc4KRALr9naK4A2RzVI5G15A+srk+IGnXDLDti3ZFOtL34ilwcmo2dGPivFxY7NxLUrOuKMDGj9rQeMKfxOawaGsISuQtuH4IZl2Zj9a6IFpqg2g6EUB3ewQ+VxThAAOW4R5Wb6RgNHM7x4eUm1AywozSkRYUlBkl7dXdGUXQF5M0ZLmtSBSF0Uxh8a0F/He9WQbYs9qFoI+JPytU5Uxc6IBOL2R8fLcvfhy8bNzqbZ1pNicLUPcFJHOaDI5GP9PdgS8O12Dp2CnQ0dwcX0fTuGr8VCwcXY2/796CN3dvQrO7hzhGGmgaF1dOwKPzL8Ok0mF8HIqi8PDcS7Dq6H50+Dz8YEo6Gl0+bhbZnHhg9sX49sQZsBlNSAbFWEBaB1TYhMyPRuf7DKHcnWYzrqmeitsnz0GpQ/oCCwAc7WjB9obTyroh2kpZmNiAqdl2DWmBvK4GcL1k4I9Gt029HobC0XzSwPENCJ7aruKXqR+NzkaC8G55GaZh0wCKBigajvkPInDgH2CjIUX60LGvEa7fDePwWQAAQ/lUmMctRWD/x0Q9lQ9D9qvAxODb/AKMoxZxa3YUBdvcRxH85hMwwZ6kZaL6jGp5iZ8/oadcXtK8CPI0aNDQZ2gkuIYLGhl/ByrNiS4xL8WiTm+JcPkzSCXwUwmRR0QisBXLkxl8d1IsRxZb/fnlDjkvNvWEOdnss18muhr6BhY4G0S4uXI+TMMu4pNE2k/C/83nXDQV51SNCGejIbjXPwfTqLmgdJyTbJ//IPw1H4IJehRpQ7XbEDq5AebqywEA+iGjYZl8PXzbXyXonwERzkTh27oc5nHLQBltAChYpt0G/45XwPg7kpaH6jOq5SWS0RsiXOs6GUJlsUdehX0lwpu6z/DxKIpCWV6FyuSZZBsSqp37RHhpTgUf7g954Qp0A5K4Z5EI15AChPErLX/p3CDCu9vC+OzlZtz+H8P5u0vuLMbBLS50NIWT+Gocxs1xYsriXP464Inhy5dbEA5ypELfCWzSQmhv5GSZCNeQGfhxh1R3omhyfz2TsZAFmnrq+XgGHfcJjhOtR9KzOWp9tw8252wR4WKb0+ZpQkyxc+osEuEakqK/1gcUtoIQlmx9wNMVweZ/tOHy27gTfWgdhW89Uo7lPzuBaIRRtTlHdrhw+hsvRk608zKNZhoV1VZUVFuBpXwyhEMJEhzQGWjoDclbDRNjsfGDDoRDTOIBks7rJ1+cg5GThF3gsSgLT5fQN+TjQyLMaqcxfp70cx/HdwufXlCuM2jrAwMOVvyD7Av0hgj3hIL4ySdvYfXRA3hs4RWoHFLCZ+kwWfDwvMtw5djJeG3nRqzYtx2BSPxUApZFZWEJfrBwKS6rmgijXrr07QkFsPLgHgSiYZnZUBLhYkwqrcDrtz2KitwCxeM3urpQnpNPKJqzQ4TraB0WjajG/dMXYOyQUu4IeRE6/V68fWA7Pj68F65QQFLufN1kgwjXkDYGCxFOmZ1wzL1bqOdYBJ7Nr/DHmmdKhPtqPoTzsn+FoWgMAMA0YhZMlQsRFJ2mmEjPhLzwbF6OgoppAK0HpTPAPu8hBA9/yZ3UKNE/MyI8dGItIg17YBzBvaypL5kAY9WlCO7/MGWZqD6jSl7i9L0hwjVo0JB9aMeha7jgkfHxV6zsWhxHbYLEiuIkyZskh3QEkiIFK73m/xdNRqRRRHGyIEcWW6GfNLo8TRI5LDE2IYde1pla3WvICMQ3FVlANIWVhYt+Eou8d0ej517xY/C7wAH0rPkr2KjoeD6V6lU7Gj1wZDXCdbv5YGPpRFgmXi2NGk/LRkPwbnuVnxiAomGbfQ/3bXCi/pQiTE3P8JkdCJ/ewl/rh1TCPOnbKcuDpGeqvMQyWLmHnmZeGjKAfIxTDmXctWRhSR6WuEMaB4F2dyvCUeF7kEPzhhHjiYUqqpUwhpLazmA9Gl1H61HoKOXD/GEfPEFXav1Jz6iw0Ul0INYnyb5pSAq29/6Sot0SCr7X/oJa3kQ5ch9LlIoF9n7djSM73fwds02H6783FJRi7V0qx5ajw9J7i6E3CgufW//ZhfpjAVESdR9LEcZHJ/XFbMhJXmear5ZNEAewJHUniiaru0zGwqbuerAsw4dnbHPU+m4fbA5Zf+kNgplNaXNILZFlAZPejHxbIR/W4WlFNHG0ZzL9+8vmqNSzBnX01/pAWnYqib3b8EErutuEuU3VRQ4suL6QIEewFX5PDK//z2nsXNUp+e62AhRHjpusOpisupQEuKs9go+eacLmTzqkbVfFVuQVGbDkrkLQtCBXb6Rw7WPFGD3VKksjlVM5zYq8YoHErDsYQHdLRBybsM7QyzrTbE4vIW7rSeqFVcaX2yVJC2KBQCSMjw/swi0v/xlPrf0U7qDg41AAhucX4hdXXI937vkBFowaC6vRhB8suhJv3/V9LBs3VUKAsyyLtScO4fY3nsXT6z6DNxQUchfpRrIJADA8b4iCAHcF/fjNmk/w08/fUxSJRKL4mtTPFTYhSXsljR+i+FUFJXh62Xfw2ytuxPjCMgkBHmMYfHBoF+776GW8vncLXMEAsdz5bIi2UhbGKvXQek7voGga/PXAHY1um3w1jGUT+ODQmT3wH14NSVSiX0awGyzARoJwf/0XkVo0ci7/iWr64KEvEGk/yYcbR8yGacRsFf3Ja1YkHdlYBL7Nz4n0oGBf/COA1qUsE7mOSt2JwaK+RF7/S5aXBg0asguNBNegAf0w0SWuipDTnX9EOEnVZBNUNTmkiZAc/TTR1ZyPjMGyas71wBDhlsoFMI+cyV9HWo/Bt+dDop4kEIlwJgbX6j8JOVEUci7/CSjaQEwbPLwK4dodfLix/CKYJ1yTRP80iXAmBs/aPwH8LiIKtgXfB2VypO2sE5+RlJdMhkaEZxfEhbRkiw7iaITZbTpEuDfkhSvQw19X5I8kTpTlY7FCU6L9kkcijaniH8nTKxZRCMl6Q4TbjA44zE7+2hN0weXvJptqjQgftDifiXAmxuLjZxvgdQk74sZMd2DGFXlQkm2CnEtvK0LRMOEozpbTQax9uw2sPM15SIRrxERqJLc5pLoTRZPVXbpjYZu7WUL4VhT0wuao9d0+2JyBJMKHOEqgo3X8dYurATEmenZtjko9a1DHgBHhhHRq9s7VEcEXrzUhFiezaZrC0rvKMHqyQylbZCtcHRG8/fs6/O7eQ/j8lWac/sYHb08U4SAD0TsrqohFWQR9MXS3hrF/gwtv/eYM/vjAMez4rCt+JHlym6M3ADf/eCgc+cqDKO25etz+83JUXkQmwg0mCrOuyQOt4+YkTIzFnlVuvgyS2RxtfWBgIS2nJPUijkPyH1hpLSYueoJ+PLvxS1z94u/wzp6t8IWFl3xpisb44qF46TsPY8u//D88vnApci02UZ4sTnS04HsfvIJH338JR9ubuW+Ni3STqsn9KHXm8sewy+GPhPHevu247pWn8fbeLfCL9BGrTy4flX7eRyK8wGLDLy6+Fq/f9CDmD6+CQWSLIkwM2+tP4a4Vy/Hb9Z+hydMDJjEI8fIlmQnZaET4gOJsEuEUbUDOpd8TbW1m0fPlk8J3upPpCagS4b69HyLSdowPMo2YCcvYK4jpmaAbnvXPIGGgKJ0Bjkt/xJ3QSNQ/fSI88M1KRJr289eGsikwj7uKIBMqFyrPSMhLnl4jwjVoOLvQjkPXoCGObB59ljIvpH/0WbIj1BRSe3mkuegR+ySHrJWYBlU5GosXK8gR5Rova4JshZzsHH2mIYtggf4+Gp2m9ZyjnpjksSzcG18CGw4QjxRSa66ko9GDx9Yj0n4ShsJKAIC+cDQMpRMQbqhRHI2EaAjerS/BNHI2QOsBioJtzn0I7P+YIhqnjwAAIABJREFUO7qJqH96R6OH67YjfGYnjCPmcnoUjIJ5wjUI7HlbWZaEfFSfMUWZcH0mzaPRNaSGyhiUGOOIx9CJo/H1JB9PxaKk46Av5EGPrxOFjmIAQL69EEa9CeFoSHF0mnwsVjQhgv6ktjPYjkZ3mHPhMAvHRTe76slp1fQnPaPCRifRQTBlUJSK1ncyQu8/JTP4j0Zvbwjh67dbcc3DZaBpCrSOwsyl+dj5RRfAsrLjlzk9Zi7N40NiURYrn2/ijkFP4avJfSzhj7qvxqfLipy+H42uIT0Q5w/82EeqO1E0uZ+dxljY3NOIaCwCg457YbDIWQqaosGwTGY2R63v9sHmkPUntWm5npkdjV6aUwFKdDJRs6tetYyJ+veXzdG+w5ExBuPR6LtXd2LCnBxMXsiN/xa7Drf8cDiW//w4OppCMjlSm9PRFMJXb7bgqzdbYHPoUFBmQm6REfZcPSx2PRx5ep5sjkVYeHui8PZE4e6MoLstgu6WMP8d7sTDpFof0BkoXPlAseQY9IA3hmiY5Ulxs43Gd/5jKN7+bSNO1vgTRQkKwKjJVlRUm/m0rbVhnNrnV/rOKjZHWx8YWEjbepJ6Ec9pMvhGOAugydWNn3/6Dj7Ytx2PL1qKuSPGwKDj1gFoilJ8p7vd68Gbuzfhzd2b4BHtIufHbpGtSPzMsVjx7Ukz8NCcS2ExGCXyYiyDHWdO4tktq7G3sVZ9bSHh5MvbXj8ejf67pTdj+tAREnkMy+JwexPeqNmKtacOI5Z48yXDcu/V0ejaRCc1SI4BCL4AH69/j0a3Tlwq2QUebvgGwaPr0tcTIK45seEAfDvfRu7V/xVXiYZl0tUIHF6lkMuyFPx7VyDnip9ClzsUAGAavRCG8qkI1+0QRRTrn+bR6CwD35YXkHvjs3ygbf5jCB7+nNt0QipPosx+PhpdgwYNWYdGgmvQIEL2JroyuVB3VNXy5tPJJszJLeIgJMLTnqCqONLilRzSE2sT3bODDJxgLm7c8QbZkZStU4qQmgg3jZwJy5iF/K1I+yl4937M1TrLpq8nlM4sbc2Hzi4caclGgoh5WhU6JNIGDn6GSMthGMomcboNnwlT1SUIHvpMVf+0iHCWgWftn1Bw7/tIHPluX/SvCNS8n5GzTnrGVGXC9RmNCM8aVMagpIsO4mjiRSPFQlJClDAO+sM+dPk6+XsWoxX5tgK0uJqIE2X5WKxoQgT9BzsR7rDkwGYSPk3Q3FMvaCRPq6Y/6RkVNlpdB7EpI5SKhiQg7ZA7L4lwlsK2Tzsxc2k+SkdaAAAWm04URUa2Udyx6Qkc3OrGqf2+tH01hY9FycL46IRWqxHh5wZU2n7iXn8Q4R3eNoSjIViMHOFV6CiGUW9EMBLM3Oaozpl6b3MGgggvdg4FLSbBe85IEpFG/gElwjVkhAEhwlXbunLMC4di+OT5egyttKKglCP7ioebcfcvRmH5z0/A0x2RySHP632eGPxH/ag/5o+HyzSOJ5Dmntn6AE0Bi28qwNxrhe8kMzEWX77ShsbjQdzxy3LkFnIvzFgcOtzykzKseLIJx/dwOulNNBbdXACdXui/u1f1IBSIJQpMI8IHE8TtuJ+JcIplsafhNL773ku4dMwEPDp/CcaXDJXUYSQWw+eHa/D85q9woqNV2abFY3e8IdMUjYtHj8P35i/B+JJyxXe0z/R04v+2fY1PD9UglPgMGqC+M1St7fUTET5G9M10AGjzufHa3s349Og+eELCTvW+lHtGRLiG9KAyJRxoIhy0DrmX/0CiQ8/qv4CJRVVkqugJKNecaB308Y0lCUS7zih1iIMJB+HZ+Bxyr/1NXH0ajkufQOcrt8oygujZ0yPCgwf/gcj8x2AonQgAMAybBdPoxQgdX0OQqfRLVZ+RkBdJ17SIcA0aNGQdGgmu4YIG8S3sLE10k+aVwUSXtEgrxvi5OfwEOOiPYffqLsVEd9L8XDgL4kc4x8PbzoRwssabyJi30nOvTXzjKD5JoIATe71obwhBPNHNKTRg/BzheNkETBbxcVGCA5IVIlwF2kR3YMEqFjxk90lOHwv0CxGu08G54D5QRmF3gWfnu4h52nld+0KE2+feA9qSw9/z7VmBmKtF9lzCJRMOwr32Lyi4429x1Wk4L/khAoc+Fxxy4rOnJsLDpzYh0rgPhvKLAAD6wmqYxy5F8NCnBHnqzrr8GdMpE67PpEGEa0gPanYj2aKDOJp40UixkJQQFW9VDBsnfTlYDBbk2vLR4mqEZHQlTp5li+pJ9B/MRLickGh1N0o1kqdV05/0jPKFLJB1EJex7MmhITX6fIKOmt9F8LHOJhEe9McQ9DHiZLKCUO46TcDdEQF3bGb6Ly3KFz2FP+q+Gp9OI8LPDai0/cS9bBPhDBNDs6sBOVZul+oQexEMOiOCkQB6ZXNU50y9tzn9TYSX5lRIZEtszmAgwjUkRX+uD2SLCG9vCuLtP9Tikd9VwWDi/JthY2148NeVeOmXJ+DuSo8IT8dWKEbtNOXodBQW3liAS24r5HeXAxyJvfurHkTDLN76dQPu+IVAhNvz9LjxiTK8/8cmnKzxY+ICB4aNt/Bpu1sj2Pu1W2FzNCL87IMV/6DkbT1JvYjnNL0gZIPRCD47VINNp47iF1d8GzdOEb4b/MQnb2LV0QOIJY5xJtoYYewemV+EHy5ehotHj4dJL10qD0TC+PveLXht50a0+9wASC8zqpXNwBHhYuxvqcfPvvoATW7us1hc0uyUu0aEZw8kf0NyX16UfLzsE+GW6sUwlk/mg8NNh+E/vCYeRX29iqgnIFlz0ucOhe2iG/h7jL8H3u1vEJ5LgHfH3+FY+F3ocssBAObqS2Eon4ZIwx5ZRuJnT02EMwEX/LveQM61v+dKRWeEdc5DCJ1cJxz7TipPokyNCNeg4VyBRoJruLCR5mSn34hwKNNlSoQvvL6I/93ZHMLu1V2QT1AX31yEUZPsknQ7vujEiRqvdKJLU7jhB+WKPN79Y32cBBdc4yFDTbj+8bKkzys8aCYTVBVHmrho0z8TXQ3pIO50J3GCAZJzHXe8QXYkZeuU0vwIRLipYgqsk5bx19Gueni2vqV0hHtBhOscBXDMu18IiwTh2bQciV2Jao6w/8A/kdN5GvqCkQAA44iZMI2ch9CpzSovB4j0VJlYsCyASADeDX9B3m0vAxQN0DrYF/8IoWOrwUZDBHnqOiaeMZtEuIbUkNfJQBHh9Z21fJjFaEORowRHcIBPS5ooy8diRRMi6D9YifCSHMGuRZkoWl2NgFSiMq2a/qRnlC9kQamDvIy1CW7muFCIcOVzy/set2CrDjb+P5UhEQ4QF0L56LL+CtJCqLSBpyend0S4ZnhSQznuDAwR3tBZh7Gl3Ik4Q5zFsBpt8ARdULSIdG2OWt/tg83pTyK8JFewOd6QG65AjzSXs06Ea0iKTMb83sw1U9kpkPwrpb07tteF9/9ch1t+NAJ6A3dv+DgbHvldFd74zWm01AVkfWbgiHC9kcLVD5Zg7rcKJO338DYPPl3egmiYAUCh4WgAb/6qHnf8ogJ5xRwR7sjT4zs/HYqP/9qMpfcXCulZYO1bHQj5GXmusr6obnO09YF+BKss34EiwkFRcAcDONrWLFHpYHM9orEoQCVv0zlmC+6ZuQj3zFwIh8kikRFlYthSexy/W7MSp7s7ICxypOfDCXcGiAgXocndgyZXt2DT+qHcE9lSUoFCHK3rpAERma1irAeCCKd0RuRe9jgovZHP1LXueTB+l0hm74lw5yWPgzII/cu3+x3EPG28RnL9AYEoz1n6U15Hx8LvovPth6FYH5Y8e2oiPLBvBWxzHoS+sAoAYKq6FMYR8xA+tVFFprqe/UGEa9CgIfugU0fRoOE8R9xhVwTLJjus2IjKw5LISZpGJR1posUmjGPaUH8bVVUb9ddX1S7S0EKURvIIol+s7JqgT7Iphbqc3tWZaj1q4MAXT9y1TFJciibFcukUyVjZT6JMSiqP1sE5717QJhuf0rP9bcRczQSZlKqeas3ePusO6JzCkWL+/f9ApPkgSWVpXpEg3F//RRRIwXn5TwBaT85LrqdCuKBn8NhqRBr38WH6sikwVl6aRB45XJBJXhJVHTtYkY4qMjWogIVsDExckypGNiIqhzLumhXFUYQl7kh3ggNAaW6FeKCVSiC1H5aV31LVn9R2lPZU/CN5epYQKE+mHNelAstyh/GX4WgIre4mmUiSjUqiP7HKWHLZiRLIy1jrPhmAL7PM/SV5+yDKIVR+Wv4CyVfMyOcj+WpCgN5AIWeIHjqjdKzWGyjkxHfOqYOV9RV1n0+lO0juyH0s/kohR9rA05OTvM40v6wXkI8zKm0/cU+97kTRZHWnNhY2dZ/hrylQKM0t77vNUR0DCDqkaXPI+ktvkPVMbnNKRTany9sOf8irtDlJ7IBmcwYBMhnz4/EVYcnkqIx5tI7CsLF2GE10WvZux5cd+PRvDYhGhHtDK6343pNjMHVxPmiaSmFzRG0lha1QPLmKnIJSI+757+GYd52UAD91wIcPnm5E0M9IRoHG40G8+T/16G4Vjpa2OnS4/eflcOQJe3bqDgdwYIM7qc0hWTVtfWBgIS9faVtPUi/iOCT/QV6/4jipFr1Ycps26Q24ctwUvH/Pv+D7C66QEOAMy+JoWzOeWPkWHn3/JZzqagPLMrJHSbHexkp1U2t7OorGsNwCXD12Cm6cOANLqiaixJEjvL6isAkZ+khs/5e73H4r5GhQBwtATOmqFBl5XU2WVpZeXabwIkQC5lGzYR45i78OtxyBb7/oxEFelPp6FVFPALqcobDNvI2/ZgIuuNc9T1JZceHd8SaiPQ2CnuOXwVh+UfrragRdWRZgvO3w73ydV5gyWGCddT9Ay/aKqvpacpmZr6tJ9JTLU0mmQYOG3kPbCa5BA8D5c1l841spPtPdQcq8E+lSP4ryjW+1Z1bRhhhV+hYbi0zMMldc8UJj0esd4WS5qeRkZxe/Bhn48ky+IxwgVCELZGNHuLGoEvZp1/F3Yr4uuLe9lURm+jvCdfYhsM+6XXibORKAd+urYGNRxVuapLz8B1bCefHj0BeOBgCYRs6BafhMhE5vJTdpuZ6JSaYsHhNww7/zVeSUTQZoHSi9Cba5jyB0Yh0QDajIU39rlXv27O0I15AEwrAs2zmmMgbJx8o+7Ahvc7cgFAnCZDADAMryhsn6mGSUJrcf4m4gsv592Z1HSs9FkQbKk6ntztPRehTYhRNTorEwOr1thHxINiqJ/qRnVNh6cT3Lyk/ITkO64MvsQtgRzqGw3Ix/ebYa3a1h9LRFEA4yMJop5BYaUVBmUhaRol3Gcxc1vNQ7wilI/6j7WHy6rMjJfEe4hhSQVoNq20/EzdaO8PquOsl1Wd5w1NTtUCiSsc1RHQN6b3PIYzmpTcv1JNsci9EGpzmXl+UKdCMY8RPyUrfrRP01mzPwyGTMl1Vkb3aEO/L1WHZPBWYvHYKVy+ux4cOWlPaOYVis+6AFoSCD675bAZOZjssy4M6fjcSOLx348rUmuDojSWyOqD+msBWKUVskR2+kMGVxLpbcVYT8EqPkWY9s92DFU43w9kSJtqLpBEeE3/VfFfzR6GKEgwxWvdqOSCSxW1Ld5vTnjnANKSAfo8XXA7EjPKluLH/sOU1RmFQ6DN9dsAQXjx4HHS3dG9bp9+K1nRvwXs02dAe48Zvi/xO1lHinUfPhxHkL7VVaNnaTGY/MvgQ3TpwJp1kg4Vu9bryxZzPertmKCBMj2IQkO8JT6ZDtck+xI1xDGmARH2PPzo5w2mBEzqIHQRnjbZBl4Nn2d8R83SoyM9sR7pj/gGjjCuCv+RjR7nqynrKLWE8T/Hveh/PSHwIAaLMDttl3I9xQA5Zl0ltXIzw/ywKBmvdgm/eIcNz6uCuhL52MaGOy49bJenIys7sjXIMGDdmFRoJruKDR68XNFJMmkruXclGUEJYOEf7uk7U4/Y0XAIVYlCXIYfHWb2thNNMiw0sh4IlJPKLETtk/PnAkHkWQ4O6MQD7RPXPEjycfOgYkcoqHP/i7kXDmK4eW3k1QlY60XKg20T2LkDvdmThtcUc/0aJVHXaiTI4Idy56ALTZwYd6d7yHaFe9XIzSEU6DCLdOvhaGoir+XvD4BoTqdirkqeXF+Lrh3f4acq/5FaexwQL7gkcRqtsBMLE+EeH+fR/BNv8x6IuqAQDG0YtQ+C9bgFgECiQmD65GuFc+gVjnKaLMrBDhGtKHZOyC+hiUbNFBHE28eKFY0AC6vB3whb08CV4an+jJFzxFo7TK5JklLIKS9R8sRLhJb0aBTSDBXYFu+MNelXxINiqJ/qRnVNh6cT3Lyk+b6KYFxU5uKn1/6VwkwhO+HMC1r5wCA3IKDMD4FOXEsBI50rKARoRfqJBWg2rbT8TNBhHe0FUrEVuaO5Qw7vXS5qiOAb23OdkkwvNthTDHbS0AdHhbEBH5Z4OBCNeQHP21PpCMCM8vMeF7fxyHkhEcAXHtgxU4dcCD+uO+lPYuFmWx5R9t8PZE8J0nRsDq5ObhegOFedcUonq6E+veb8XOVZ38UeJKWyHqjylshWLUZimMmmzDkruKMXKiDTq9cJeJsdi1qhuf/a0VQa/0u8yyXNF0Ioi3/if+jfAiKRF+cLMHZw75RWnU5Sh8ZxWbo60P9BPkY7T4up+JcMWWS5aVDpxxItxqNOG/rrwBk0qHSaLHGAafH6nB/276CrVd7WD5NQOFcRJaSrzTqG48EesiI8L1tA4/XrQMN0ycCVo2uBfbnfjhgqUw6nT42871cRGpiXBFtpI2LdIhi+WeigjXkCZY4GwR4cayibBOWMKHRrsb4dn+jlyMTGZ6RLgupxS2mbfykZigG54tLwEso66nTGnfjrdgn3UXaPsQAIB10nXwbnwekdaj6a+rEZ4/6mqGf9ebcFz+H1xpGO3Iv/sdsJLP2IiKCgAbi8K/+VkE9rxFlKkR4Ro0DF5ox6FruOCR1vFXMoc65TFayfJSS8MSwgh5y9HdGkZzbQAttQG0NwSJcrpaQmipDYr+BeDqjMQnC1JtWuuC3L/aAFrqgmipCyKQmLRCOPIpHGT4uC11QbTWcr+ZqExfkf6s9EEhvyNEJ9xRK4e05aSoM5W615ACfJElPxqdWH0sl06RTN4tCGl1jiI4Z98uxIuE4Fq/XJmWKJNKqidtdsIx7x6A4kwkGwvDs+U1sNGwinBSXix8u99FVPwt5nFLYBo2Q5KXUgGZnoS8mEAPfLve4AVQOgP0QyqhLx6n/FfE/TNVXQ7rnEdU9ef0IXvbqkMQK9JRQxpQNhp5uyGOQfIxTjmUcdeisVwe1u3vRCDs58ML7EUwx7/JJbcDhEtZGCu/pao/qe0M9NHoRoNZshO8qedMkrITCZPXj5r+xCqT23plAlIZa1BHb/2lXvldhMrvta+YzE9UyOF8rA0ftMPniqqPvTIwDIu2+hC2f9ElkSPJKPG/zOcTKU+KLfuj7mMJ8vsuRxZF89V6CZVhTXadzOaQ6k4UTVZ34jbXJPsEx9C84cT8e21zVMcAKDDQR6MX2Itg0gu7+RpFR8OT81K360T9NZszIOiX9QE1OWDR0x5GT7swzzDbdLj755Ww5xiUcgh5MwyLmvVdePaJo2g86ZfoUFBqwg3fr8ATL4zDJbcWw56j58muvtgKg5FG9UwH7v/1CDz021GonGqXEOAAsPurHnzybBMC3mhaNqfhWABv/roBPW3SF3vHzLBj5GSrLI26HGmXULc52vpAFsFKy437I7cjrKRtSZOSxmP5+KhSv2p2iqgbC08oiHf2bAWTGB9ZFt801+PBd5fjJyv/jlMdrfy9RIdghZ+8dIU9kSmgp2mYdAaY9PF/Oj3/26jXY3bFKAUBzoh01dE07p2+EJUFxSL1k4wFKk1V2qb7qdyJtlLrOxmDBSBQtup1qtrYe3E0OqVDzuIHQYle4PNs+zti3k6SGJlM8nqVOKp9+s3Q55TxYYEjXyPcdEhFf3JekfaT8O19nw+mbfmwz31AWK8jOlAEPQm6+ra9BDYkvCCvc5YmXVczlE6C81tPArROVWZWjkbXuo8GDVmHthNcgwZwjmHW3/hOllemO5MIO5xSPYNSTnbf+FaVQ1SO7eOb2kSqVPygWX3jW0NqSNoEf5F8R7j6W5rcG6hkmZC1UQ55S34AyiQshni2vYVIZx05LVGm+o5wy8RlMJZP4a9DtbsQOPSV8q1OmU7yvGLuVvh2v4OcJf8OUBQoow22OfcidGYXwMRSlIlIz8QkUxTPv/1V2Oc+Al1ehfIBVECZbKrlwQf1dUe4hqQg7waV1kl/7AgPhP3o9LZjaB634yHXmge7yYFgJAA+tsgOiEZpcn8i2gay/n3ZnUdKz0WRBsqTicvZYXLCaRGOpk18H1297ER35fWjpj/pGRW2XlzPKuWngQx+YaB3/tK5tiP8wOYeHK/xYOxMByqnOjB8rA32PAMMJgoURYFlWETCDDzdUZw+4MORHW6cOuBDNHFMbCInha+WsH1I6vMJxSL0A+GPuo/Fp+ujnMRibaod4RoxkRrkti4d2/tjR3iPrwueoBsOsxMAeNsjylbxI2ObozoG9N7mkMdyUpuW6ynoUOgogVEvfKqgpaeeONYrbM5A7gjXkBYGckd4LMbg7388iX99ZgLyi7n2UzrSgrt+Nhqv/uoERyKn8em0+uM+PPODI1h6TxnmXF0Ii41bpKdoCoXlZnzrkXJceU8ZDm1z4fAOF04d8MLbE0M4EBMRYuT1AYORhtWhQ9EwE8bPycH4uU4MIXyWQ4xJC504ssONg1vcYNn0bE7jsQDe+FU97vxlBfKKuZcAbDk63P7zofj7bxpxsubs7AjXkBwsZG1SPkaLr/trR7iKXvJ2ApbFJwd3Y9n4qRhTWIrnN32FFft3IBiNSNpn4vh0cYcg9Q0+jswv+c8l38Z/Lvl22mW48tAerDt5GLdOmYPZw7hPqjnNFiwYMQYnOluFZ1LYhCRrhSRbKe4z2Sj3RByirdT6TioobDMLDOSOcGNpNewzbuTFxHxd6Fn3onpaRbj6DmadoxiOeffxijIhL9zrngMbi6VYA5PnxcK7+WXYZt4BOu5bWi+6CZ71z3DHqpPKQ01PWXjM0wrv1uVwXPxDpAvKaON7O6lMOH36uCNcgwYNWYdGgmu4sJHhBDXdiW7qbFMsyEKZ/7lChKsr19cJqnxa0X8TXQ3pgewIpybCAZLDTiHRe1Qd9vi1PqcE9hk38MmZkA+uDS9JJ1npOuwyIpzSm+Bc8KBEYff6F8Ay0fhlZkS4b/ubsM+5FzpnCQDAMvFaGDc8h3DTAUmZZEqEM0E3uj94HI7F/wpKr/x2XgLGEXOReENWTUd5PfWWCNeQAvyc6+wQ4Y1ddZhcMR0AkBMnwTs8bcQ+JhtdVSbPJNtA1v9sEuHFzqGSfJt76lV1P1tEuIY0QPJpiH4O2V8614jwoC+Gfet7sG89dxyfxa6HLUcPHU0hFmPhc0cR9DHKdknJnkBxNHo89xQ+n1AsQj8Q/qj7WHy6rMhJ7StrSI2zQYTHmBiaexrgKOHO8B+aN0zFjkh/ZGxzVMeA3tucvhLhYpvDsAxa3I2QkCmKshPlMkBEuIYUSDJH7E8ivKM5iPf/XIt7f1kJk5Ujr8fPysUN3xuOFc/UIuSPpbU+4PdF8cnz9di3sRtX3FmGMdOc0BuEOEYzjakX52HqxXmIhhm01YfQ2RJCe0MI7s4IfK4oP8YazTScBQYUlJlQUGJCYbkJ9jzyEiLLAp1NIZgsOjjin0Yz23S46UflABrwzWa3vCRUbU7iG+F3/3cFcoYYeFm3/vtQvPeHRpzYO/BEuIb0cFaJcDWdoGwnwXAY//XFCkRjMTS5urmIChuTIRHeB/jCIfx27T/gCQXR5OnByzc/BKvBCAAYmV+ofKZzhAjXkB4Udp8FBooIz734YVA6YT3Jvek1MH7RceCktIpwMhFum3Q19AXD+evQyS0IndkT152w5pQkr0j7cfj3fQz77LsBALStAPZ5D6Dn0/9WLw81PWXh3g3PQGcvhK5gpGpf1hWMgs5ZqghXKxPVZ1TTU5SeVdVCgwYNfYFGgmu4oJFqga33E11CPnI5yfJWSceyrEI4K3M2zjYRLgdpAUaWa9oTVBL6ZaKrIW2Qnb7U3whXc/TjLVrdYWcB57y7oHcKx4L59n2KcOvxpJkkddhFRLhl7CUwDZ/Oiwg3H0Lg4BdSsRkQ4dHuBvh2vwfnJT8AANBmB2xz70P4wycgJu17Q4SHjn+N0PGvAag40QBKf90OKrEjSU1lQj31ymHX+k/aOBtEuPhIVqvRhjx7AWo7ThL7mHhmLJ8oS36eA0R4Wa70e39NrnqJQPWyE2kkrx81/UnPqLD1SpuoLRIlByv+IfdpiH6Osm64qOcWES72sQLeKALeKJCIIbENkozTIMKVfV0jws9vDDQRniDBx8RJ8DxbASwmGwIhH8GOSH9kbHNUx4De25y+EOFim+MPeeEKdPMKDRYiXENy9N/6QGo5B7Z04fPXGnDtQ8Og01OgaGDOsiEIB2P46LkziEaZtOwdw7I4fcCLl355HJVTnVh8YzGqpzsVx5XrjTTKRltQNtqCvqCjMYTNn3Rg33oXCkpNuPMXw3jy2mLX4ZYfV4Bh6nFoa6ZEeAPu+LnwjXBbjg43/bgMK55swok9A0yEa0gbZ48IV2gi+SVvJ3Wd7QClbIvycTNdIrwvm57NegNG5xdhX/MZVBeWwqgTluo9oQDZryUQ4dKnZ8UXBB9a1Gf6VO6yOBoRnj6UVSQL6F8i3FA4GvZp1/NJY75uuDe/nkSm3K8Qh0vXq2iTHc7FjwhtIRaGa91z/ImInO6ZEeGetX+FbebtoGiuf9jm3A/3mqfABN3q5aGmpyic8XWg+/3HAKi7STk6keBZAAAgAElEQVTf+iNs88ifF1QrE9VnVNOTkF6DBg3Zg0aCa7jg0V8TXVkmZDkp8iYu6vTiGZRy+pMIJ2qXcqKb7gSVBG2iexaQ0hFOQYQTV/eAVES4zlkMx5zv8G2ICfngWv8S2BjnTGd2rFLip0CE51zyPYkQ9/oXwMak36UDCM6s3NkVXXo2vgjHwkd4Mto27Ttwr3kKsZ4Gmcw0HXZC2aW9rplGeag+Y6q8tFluaiQbb+SLOCp2I+migziaePECFBq6zkhsV0luOVhsJ4yDOK+I8CLRN8gA7pvgcoHqZSfSSF4/avqTnlFho6WLa1rfSQ3i4mkqf+kcJ8IX31QEmubiN58K4OgugTyYcXk+HPHdeO7OKPZ+3S3OOAURnr7PJ4sN6Z/kvpq8f/ZeTuqXRjWoQM3mSKtBte0n4mZKhDMsgybZt7BLc4biZNtR8ljYV5ujOgb03ub0lggvdgo2xxf2wuXvkhTSoCDCNaTE2SLCGYbFmnebUFBqxoLrikFRAEVTWHh9Mcw2Pd76/UkwDJu2vYuGgSM7XThR40bJCAtmXjEE0y/NhyPPQJ6fZYBomMXxPR7sXNWF43u9CHq5uZinK4LX/rsOD/x/I2FzcjvaTVYat/6kHO/+oQGHtqVPhDcc5b4Rftcvy5FTyBHhjjw9bv5xGd79fRNO7dOI8MGKs0GEK3SQJia2E8W43AciXI7Np4/haHuzbIwWLqqGFGPByGoA3Pe/n7/hPjS6uzEybwj0NHeSW4xhsLexTlmmpHImIKWfOwBEuIYUIPk6knv9R4TnLLoftMXJJ/PsfB+RroYUMuV+hThcWK+yTFgKQ/EYPnnoTA2CxzcSdE+fCI+0n0LgwD//f/a+Oz6O6tr/O9u0u1qterMkS25y773bYGNM7yG0JBCSQEghpL+Xl/oeyS/hJS8hIaRAIKEGAoQQOhg3wDbGvVu2JcsqVt9draQt8/tjV7szd+6dLVr18/XnY83ccu6ZO+fec+797szAPjtE3BtsmUhfegdc7/5Svz9EemouRlBXhDj6RHiNem1RqEYg9AuIBCcQ0A8LXX4jyRHh4NdL9Bq0m0P9RYQLtYu50I29QGXF9s9ClxAnYgZ9qX81umPBNTDnVUSKe49sQnf1x+EzKTwuE9UzFAjbp1yAtHFLItV89Ufh+fhFYXAaLxEeaKuFe/sjyFh1V0jLtHRkrL0XbS/cx+2TYU2EE3Shnl81MyMzd/Wep4YIb2g/h0AwAFP4yYKynAq1DqxdqDZ1hicRLkkSynLGR9KDchAN7bWM3fN1H1AinBADcvj/0UWEX3ZnSeQVth/8uylMgocKrbo2H6WT7ACA04c82P1OKzP24iHCwz4lRswX7ZboOIj+EcdYkXr9RIQTYkPX56hvg9D2e8smSoSfC3+jEQjNxaU55TjZeFQ8F/bV5wjngOR9TqJEuMPmRHZ6XqSsp9uFDm+bxucMOhFOiAuDRYQHAjKe+WUVbA4jFqwL2ZPBKGHxxXmwpBnw9P9WwdMe3zfCe6/B75Nx9ngnzh6vxksP1aB8qgOT5mRg3EwHSibYYEkzwmSRYDRJMBjVthXwy/D7gvB1y2g734Mzhz048bEbJ/e44Q0T370G2Fuz5qgHf/7uKXzq++UR8tqabsSN3yrD3x84iwPb2pHIN8If+0ENbv1eGbKLQrIcWSbc/J+leOp/zg7Yq9EJsSBzn0weSCKco5LOnK2YOFNGhKvx2tG9eG7fTs6aORSP5dodeOKmu1GWlQsAyEizYkq++nXLH9acxJZTx/h9qpOm6gOJ5/sHiAgnxAderKPKSz0Rbs6rQMbC6LfAg51t6Nj6GCAHwxXl5IlwgxHZF39TpVzbG7+AHAwC4MVlcRLhchAdb/8StmkbIJlDbzDJWPE5eHb+DUH3ef3+4OnZO3EwfTokiHACgZByEAlOGOVgFjypWujqNJcwEa5TTyt+iBHhMhRd3HcinH/RqV/oEhJAzKAvjlejc4PrcOCtqGZMz0HWqtujxXq8aHv7IciKVyoByRHhksEE58o7IPW+ekyW0bH1Twh2u/k6RnSPjwh3b38EjsW3QUpLBwCkz70WHW8/gGDHudj9odGfiPDhDHazZKCI8Pr2WgSC/ggJXpxVGrYkxRNFrF0o5m/F7CpYlPJ8A1//ASPCIameymt2NcDn7+H0MV93IsKHHkYTEZ5kzygbHvHfCCfEhq7PUd8Goe33lk2ECD/bwjwJnlWmEDUyiXCHJQMOa/SJqsaO0I/PAK3PISJ8KINZJw7SE+FP/vwkjCYJc1bnRu7t3LU5cOaa8fQvqlB3xpuUvwsGZZw+6Mbpg6E1jsksIavAAmeOBTaHERarIXr9QRmdrgDcbX60N/lCT3tHxOvvD9Qc9eBv/12Nm75ThuzC0LeN0+wGXPe1EgBIiAivOxn6Rvit3y+LvBrdmm7Ajd8uwdM/HZhvhBPiw5AjwnslJkGEW0wmzCweiyZPB6pbm9VlFL4icshVQBB7yRKaO9341itP44cbrsXEvEL1HCDL2FFThe+8+iy6/D2hvIiqw4cIF2/iETTgxTqqvFQS4RIyV9wGY0b0e/Pu3S+hp/6YorKEkK2KZDJqKE7sMy6GuWBSpEp3zR50Hd0k1hOImwj31R2C98hbsM+8HABgdBbBPvd6uDY/pKlPRDiBQFDCMNgKEAiDD1lxJKtiV1l9wt1w4357R+O745Cj17YqTT+QjHUNWtkyE5vK0f9lRRlVEUUZoRxEtY0hh2kV6kvQ6q85TVCOzCxSZEV5QhIQ3aLIicTYQbwyowtVAEifeTHMBdGnOr1VH8Jb9SGnsuCbXDp6plXMh3XSqkiSr6kKnr0vq6uLFtbs+9c4duprqkLn3hcjaQZbFjKW3aGtq9eWSn9JkxZLT315/PSozAT0JMQEOx408z3rRgR+QzPHCaYyWQYaO+rgC/RE0gqcxTAZzWIdNHoy8z7Pfri+ga8/z3a0/pSrCLe+zEmUIKE4szRyXtd+VjXfx/ZrrEhBXZH+3FvG+mhCfBD77NhxjvbeRMokFC/1IcaLESvy5gCtDG2ajiaRSrFitUhzScRqmrRIcc5YToEcCJII+tD1OazfENh+b5743imKyUBdW43K7sdkl6nLiObCvvoc4RyguZq4fY54zKht2mHNRIY1M5JW11ajqsCOK74fYVoR9DFXf/I5KQTjc3TGT9xzvlpsTDldnQH87acnse2fDQgGo3kTZmXgC/9vCuauztHK4bQd6xr8PhlN57pRdcCFQx+0Y8+mVuzZ1II9m1qxb0sbTuxxof60F153IC5foUw7fdCNp35ag/bz0U9LWdONuO5rJZi2pPcHI/H5nHMnu/C3n5xFm0KWLcOI678+BpPm2Zk6YjnqrhD7HNofSB7auUknvlKecyZ8zX1RlhHED724c9mFKHRkRnM1NqFOU87LUwtL8MurbsXjN9+FH1x8HYzh15Or5m6FbkIzCZfRDstQ2t66atzx7B/xX68/j5cOfoS3TxzEU3vex9defgJfevFxNHe6e0urxzAj0JFmxafnr4DVbFY2oTqOGefKfeh3dlzRuEkOev5aBhClbIV9rLG1yHm0rimrCI7510SKBLtcaN/6OBB+UjuK6A8h4tJTBiSjGZkXKD4xKMvcTwzy4zIes68+lAM+uLf9GbLPG1bRAMfiT8HoyOPWj3tfTXMxgroi6PSJWibtqxEIgwUiwQmjGjIngkjFQpfbVjxyYrTNlZuSjd3UEeFcHeOQw7QqXKByZSchhxa6yYPbRTGDPn0iXBychoJEyWxF9kVfUmW3vvmb0CuVuDITIMIlAzKW3gZD+CltAHB/8CQCHQ3x6QlOMMsGu8EAXNv+hGC3K9ymBPv8T8CYWTygRLiennrBOrdujLYIPDCzkWieDuex96QvRLjP70NjR33kPN9ZBLPRwogK12ftgvGVvMU3OxfzFu4DTYRn2DJhs0THdX1HLYLMRlxsv8a2w/MtOvpzb5mgMoELYaymSBqRRDhPW1ERUYwValh7BRqblpOO1TRpkeKcsdxHOXL4H42feKCezHV9Dus3BLbfmye+d1G4ukKvAu9FSXY5RxQ7BvgHCfsc4RygUSGlRHhOer7Kr9a113DmBrVCfD/CtCLoY67+5HP6jP7aH0iGCPd6/HjuwdN47fFaBAPRvNyiNHzqPyfiui9VwO4w9ZO/S83+wKkDbjz+ozPwtPsjadZ0I274RimmLk6MCK895sUTPzmLjuaoLEe2CdfcOwZjJqSxl6Prc9icaHHmvrMXRIgLg0GEB2Q1gXfT/OV47vZ7cdXMhTBKBkEcok5zWNLwjQsux+M3342LJs+CxWjCkvJJWD95pvJiuL5CaCbhMiIivLnTjX/s34nvvvosvvzSX/GTt1/Cm8cPwOvr0Y5Z5bkc2g1YVDYBD1/9aXxl+QaYDUZ1C5p1T4xxT0T4gINjFjHy+k6EZyz+BMy50R8ndh56B11n9wlkJkaEWycsR1rZ3Mh5T90hdB54PT49gbiI8O6T29Fd9X4kzVxYCduMy4T1+4MIj0dPsUzaVyMQBgNEghNGPfqdCJeArHwLjCYpPjkx2+Zdw9BZ6Go1jF8OUzp6vRJgtRtgc6iDek2LtNAdGMgSv4tiBn2xiXB+cC3BMfdyWIoqI8ldVTvQefi9aBGuzPiIcEvJDKTPuTyS5m87B9fOp+NfVETS9Ynwntp96Dr8VuTclF2G9Hmf4NfVa4sXsHMXEInrqResc+vGaIsQhQzenAOm/9kVkvae9IUIV36jNT+jEGajhUMkayuz8zfnlEnj+Qa+/v1JhJdkV6jy6tqqEdJAx68SET4kMVKJcKNZQnqGCelOE9IzTbBnGpGeGTrmQ7uJajRKsDtNUTlOI+xOE+xOY/TbrjGJcMUVJBGradIixTljOSVyaPDEAn/MqE4Fts6e6/kc3r0LoaunE83upsj5mOzSuOZCrdpJ+hzhHMDRIUVEuJLoD8oBNLTXanXg+By+H2FaEfh1rv7kc/qMoUSE93QF8MojNXj8f07A646SvyaLAWuuK8I3Hp6BuWtyYTRrX4+s0Sdhf9f3/QGDUYLFKqHbqyYoQ98IL8X0Zc7Iq5bj8Tlnj3rx91/UwtMe/RyWM9eEy+4qgsUqMXXEctRdIfY5tD8QH+KaW/uZCH/72H7UtrWoblVJVg5+cdUteOyWuzGtqDT0ynAOEW41mXDZ9Hl45c5v4nNLL0CWLfp2AZPBgDsWr0WaSfmUNZ8I1/QBU0ZEhHMuTDxfyCFassDhxE82XIeHr/k0ZhaVwaB4n3KrtxP/Pro3LFJnjuGNeyLCBxa8vTVerKNKSJ4IN9izkLVa8YlBfzda3/wNEAzqyIyPCJeMZmRe+EVI5rSIEh1bH0HQ2x6/nkBMgjkY6IFr6x+iT5dLBjiW3QFD+JM0RIQTCAQe6JvgBAJCjibynZtUfANMkWwwSPjRUwtwfG879m1twZFdbWg61x36NbdIToy2+deQim9eykjNN8KV9ROToyztyDJhzEQbpi/LwOSFDmTmm9XiVfcrdd8Ao83VOCBLYdtl0xHjeziJfyNcMlqQve5uRYEgWt/6XbigQjxXZoxvhEsGOJffBkOaI5Lh+uAJ+NvqAEjh74fF1jGaLv5GuBwMoGPzQ7BNvSjybXDH0k/Ds+spBFwN2rp6ban6WfyNcBF09QTvvunUVehJiA3tnIMB+0b4OcWrWa1mG7LTc9HW2aKxsYgOrF0o5m/F7Mq3H5Fv4OjPs/FUfCNc+Sp0IPRddM01avpOrLu6HZ5v0dGfd429PpoQA+HtNVGsprDV2HFOquIlbR1ePb1Y0WI14KZvjcfc1dmQDInYgXqyLZtsx49fmKkpFQjIePfpRrz2aF1vwyPqG+GE2OCPGR2fo74NQtvvLav3jfAuXxdaPU0AQt+EdNqykJ6WAU+3K/5vV/fV5wjngOR9Dn8uD9l0kcLn+AN+NLkb1deo43MG9BvhhLiQ8v0BMHV0xqE2TpKx443zaKzpwo33jUdZZXrk/uaXWnH7DybhyM42vPp4LaoPeRAIyNy247kG7ZhJbn/AYJJQOtGOVdfmY9aqzOiPshSwphtxw9dL8dz/1ib0jfATH3vw9M/O4hPfLIEjK7SlWT7NhsqFDhzY0qG4X+r5gZWjiZ0FPof2B+JDPN+q7s9vhJ9pacKVf/w5vrx6I66evQgZaVYAgEGSsGxcJZ799Ffx152b8acP3kWLxwVIEiRJwtySCnx19UYsG1ep0b/b78c7xw/i15tfRZc/RLhx526heShsOjxoRN8Ij6Sp7FU7X9gtFlwxbR4+t3gN8tOdSkHoCfix5dRR/Gb7WzjVel7Y7wP3jXBCXODtrfFiHVVect8Idy66AabskkiS9+gWdJ3+WCcG64WEkK1qZfaWs1QsgG3C0kiWr/E43B+/iFj7Vfy4TP8b4d7Db6HnzC6kjQ+1ZymZCdv0S+D56Glh/bj31TjXLxri8X7LnCuT9tUIhAEFkeCEUQ5BMNfHha6vW/1LZ4vVgOmLszF9cTY6XX6cOuTCvi0tOLq7HY1nvaGglJWj17boaoYAES721/HJsTtNKJtiw4zlToyflY6cIgskzjsr/D0yZ4GamoUuIU70IxGuhGP2RlhKpkXOu07vRufBt/ltcWWKiXBzfgUc86+LJAU72+H64AlFkdQS4d1ndqHrxBbYpl8MADDlVsA281K4tz/Cr6vXFi9gT8CM+4MIJyQCZu4SbYaGC6SCCK9tqVYVL88bj1Pnj4dKMzY2Eojw4iz1N2gb2msZPYcGEU6IB2F7E8Vq7OapbpyTqnhJW4dXTxQrZhdYEiLA44kDlTAaJSy/Ig9vPF4ffY1uXES4dqwTET58MVhEuC/Qg4aOukhRq9mGwsxiVDW69AlajR9RHyTsc4RzQPI+h1dXkgwoyoxuKvuDPjS5GhPyOQNFhBNigXevGZ8zCEQ4AJw+7MJvv34YF90yBiuvLILFGlokSxIwdVEWJsxy4tCHbdj2ciNO7HXB3xMc8P0Bo0FC2RQ7VlyVh2lLM5FmUy/k/b7QXknvG956vxEuy8CBbe2sNkKfc2K3B//6fQNu/HZ03M1fn4n9mztof2AQMdhEeJPHhR+++hxePvAR7l1zCZYqiG27xYLPL1+HCyfPwK/fexUH6mrwqUVrcP3cJbCbmU9EyTIO1J/F77a+iXdPHESg91vJGh+jQ4TL0YNUEeELy8bhi8vWY25JOYzMJllVSyN++/7bePfkYfiDgbC64n4fCCKcPE5i4K2ZNbGOKi8xIlyy2FQPl8jBAFpe/V9xWxqZEkK2ysQXMiCZzMhcdScki71XOFwfPo2gpzVcJLVEuBz0o2PTg8gfHyXdM1Z+Hp17no88IZ5qIlyE/iDCCQRC6kEkOGFUg7/BFs0JHSW+0N32r3pUzstEyfh0jYO1Z5gwfXE2pi3KRmeHH2dPeLB7UxMOvN+K1oYeRj9t27FCycEmwrX6IKYck8WASfMcmL4sRHxnFphh5PxavBddniA2PdOkkE8L3UFDPxHhvbdPMlmQueozkAymSEbbe48g0NPJDSSZfUoF+ES4c+ktMNiiv6B2f/QP+Jure6uEZaaQCJeD6Nj8O1inrotcU8bKu9C5++8Idrn4dfXa4gXsCZgxEeGDg4RJiXCBvhLhp5tOqIqumrIemw6/BvU8qBQ1fIlwg2TArNIFkTxfwIf6jnP6/azpY77uqSbCCfEibG+iWI3dPNWNc1IVL2nr8OrxxqrXHUBHqx+ZuexbbrQ4f7ZLJef82W6UTrLHrNdc141gkN2UiUWEJxbzsTFW9I9+jBWS33c5hNgYLCL8zPmTkWJ2SzoWjl+GqsZjjE5KUcOXCM+wZmJ8/uTIeWe3By2e84yQ2D5nIIhwgj748040J3Q0eES4q60HLz5Ujf3bWnHdlypQOik9kmexGjBndQ6mL81C7YlO7HitCXu3tKCjxdfv+wP2DCOmL8vEgotyMXaKPULQK3H+bDdefaQO7tYAbv2vcmRkh9ZCvU+EBwMyDn3QwWoj9DkHt3WguS4fucUhArNsik1RnJnvdORoYmfyOX3CYBPhAQSxs/okPvvUw7huzhJ8afXFyHdE1/sT84rwi6tuhbu7C9l2h+butns78dutb+Af+3agzdsJSFpbVPuY0Nyt6QeV2n0jwrPt6bhryQW4esYC2BjCvrOnG0/ueR9P7HkfzZ3uhPq9v4lwQgKQpZBdQLtm1sQ6qrz4ifCMeVfCnBN9a433+HZ4T+/Wb0sjU0LIVtXxhblgEtJnXBQ5D7ib4Hr/b4zM1BLh3sNvoKfuICzF0wEAltI5sE5dD++Bf+vWJyKcQBidIBKcMOrRHwvdmuNu3H/HxyirdGDemjzMW5OH7II0GE3RMpIEpGeaMHl+JirnZaKnK4DTh934eFMz9m1pQUerD8GArGmbp3//bOwmuSnK0ZCV0/sa0IrpdsxcmYmpi51IzzRyX5MGAHIQ6PYGcXKPB/u3dODEx254XdGn7VO/0CUkhH4kwtOnroFtwqJIWnftQbj3v64jE4yNKqEmwo0ZBXCu+Ey0PV8X2jY9JNA/dUR414kt6D6xFdbKNQBCCwbbzCvg2fmEuK5eWwksLHggInxwMBhE+P6aj9HhbYPTlgUAuHjW1ThUuxcv7noK/qCf0YvRQTjGGC/KXTxzNowE+qeCCLeYLLhl2d2YPTY6d1Q1HkFHZyt41YgIH/pgPfxIIMLbm3vwlx+ewK3fHY+cojSVDr7uID54tQmedj/azvdg99stKjnP/7oaNUc9SLMbkZVvwfwLs2GyqAmHs8c78fiPTyP0LUhmlhgRRDj5nkQwGET4rlPvo9vfhTSTFZIk4TOrvoTqpip8eHIrgnJwxBDhVrMN9274kertI3trdiAoh9YqWj2JCB/q4M870ZzQ0eAR4YFAEMc/7sADXzyAJRcXYMOtJcjMs0Tus9liQMU0B8qnOnDFF8pQtd+FfVtbcWRnBzqafQj4Q+OvL/sDJrMEu9OEibMzMHNFFibNy4At3ch9g1uXJ4B3nz2P7S82oasz9ITqo987jc/8uCJChKfZDfjEN0vx7C/O4tD7HYjn1egBP9BwujtCgvc+XR4tzkYPfDnaGI7ncwgxobTjQSbCIQGdvh78dedmvHVsP75+weW4bMY8WIwhe7MYTcixO6BET8CP1w7vwf97+2U0uNqjUQY7L3N8jM1sxrrKGSp5S8on4p3jB9HS6dbGUWF/EosINxsM2DB5Fr664mIUObNUM0FQlrHr7Cn8v03/wvHmBgTDe3GJ9nu/EuGExNCPRLhkSUf2urui9zIYQOtbv4UcCO0BsPGS6lAjU0LIVsPiJAlZF3wx+hQ4gI7tf0PA3cSRmToiXA740PHWA8i79ZGwWhKca78K78HXADmoWz9hIjwOEBFOIAxtEAlOGN3Q3WBTFEDiC11fTxBVBzpw6qALL/z+NCbMdGLOylxMX5KN3CKr6tfRkgSk2YyYPC8Tk+dl4rovjcOx3e3Yu6UFh3e2obWxG0E/+HFkxC8PESJcp6PTM00omRh61fn0ZZnIyBFPQcGgDFezH6cPduLg+y6c/NiNzo7e11Apu0IQkEfUS3yhS4iB3r1n5U3vByJcMlmQteYOSKbwr53lINreexRBT3v4nsoCmWBsVCU1QoRnrrodBltmJMe16+/wnT8VLsWTmSIiHDI6Nj8E66RV6N0pcq65B527/w450COuq9eWaGHB1Ev4yXWI7ptOXYIQGoKZ62vQb0S4u8uF53b8FZ9ZfQ8kSDAajLjvkh9i5eT1+OvW32N/zW50+7uGLRFut6Rjesk83LLsC5hZuiBSPhAM4JW9z8Dr61TXF/Wzpo/5uhMRPkBQ7D+ovLkoVmM3T3XjnFTFS9o6vHqsrZ/Y24HffO0Ibv3OeIyfmRFJN6cZMH6mA4//pAr1p72aOcDd7sO7zzagfGo6bv5OhYoAl4My9m1tx3O/qkFnu18cqw1zIpwQG332OerbILT93rIsEX743H58cGIzVk8JPRmUnZ6Ln9/0Z7x14GU8se2PqDp/HIGgf9gS4Zm2bCwcvxK3LrsbY3PHR8r6Aj34x67HBHX5/UxE+BCC7vylKIDYvqI/iXAZMnq8QWx+sR4fvdOE5ZcXYsUVhcgpSovca0kCrHYjpi3OwrTFoR9A1p/24swRD86d7ETdaS+aznXD1xVEwC/D1xP+cUq4LUkCTBYDTGYJljQjsgstKBxrRVllOkom2VA8zqb6kb/6OgFXiw8fv9uKLc+fR1uTmmipOerBYz84jVv+sxxZ+aE3ovQ+Ef73B87i4Pb4iHCtXYt9Djs/KOVoYzjyOYlB+/DGUCDCZQB17a2474W/4vk9H+Kb667AzDFjYeDo9cgHm/Drza+i2++P2lxENz4RbjYasXzcZHxj7WWYlF+kknnZtLmYXzoOv9v2Jv59eA88vm6oRnfYn/CIcAkGTCkYg6+t2ohlFZOYngbOtbfi9x++gxcPfoTIpxX70O/9RoTT4IkNzQIz3K/s3hov1lHl6RPhjlkXwzJmSuS86+SH6Dy6LXymqCtqSyNTQmjtAJhzSuBYqPjEYJcL7Zse4sZgocPUEeHew2/BV38E5qLQtVnK5sBauRZdR9+OWb8vRLhgW5CIcAJhCINIcMIoBydQ64eFbjAAHN/TjuN72vHiwwaUT3ZgxtIcTFucjTHj7TAzT++YzFJksep1B3DqoAt7N7fg2McdMPC+HSnc1Bl8Ijw904TSShtmrszCxNkO5BRbOIvVXn2B9vM+nD7UiQNb2nH6YCfcbYFIvtT7v84CNRULXUKc4ATsqSTCreMWwF65InLuO38a7o9fVtQNB95cmWBsVAkJxowCZCz+ZFTFnk64tj2O3l+M6gbsKSDCu46+i+7TO5A2bgkAwFw4GfbZV8Hz0bNxBcIJBex90DOeYD1Sl9sagSuE9SkAACAASURBVMVgEuGyDDyx/U+YU74Q8ypCtmeQDFgycRXmj1uCfdUf4eWPn8VHp97HeVcDlKu9oUqEp5nSMD5/MhZNWIXlk9ZhUuFUSIrHkGRZxuajr+HNg//UCNXtZ00f83UnInwgICu7VuWzRwIR3lTbhT989xiu+0oF5l2QE4nzSibY8YWfVuLZX57G4R3t6N0UQ/hKZ63KwvX3lsORGV3OBfwyNj/fiDf+WodubxCApB+rxUWE9/o+gRwiwoc0BpMI9/l78OvX/weTCqdiTHboKWmz0YyNs6/B6qkb8P7xTXht34vYW70LHd5WRtTQJMIdaQ5UFs3A8sp1WDJhDcZkj1XJCQQDeOqDP+BI/X7O2GD1JCJ8aILtV3b+CpdR+pxBJMIlWYKnw483nqjF9lcaMX9tLhasy8PYKQ6YzNobXlRhQ1GFLXIe8MvwdPjR5QnA6w5EPqEhAYAkwe4wwmI3IN1p0uxZ8BAMymg404Vdb7Rgz3ttaG/0RTOZ8XjmkAdP3l+NT36rDNmFoR89h74RXgrgLA5s0381utEsoajCGhHv6ejdNxD7HHZ+iKbxYjjuQpKgg6FKhEuQsf3UMdzy+IO4ZeEK3L5kreoV6ZIk4Y4la1HszML/bX4VZ1qaNHainJclSJiYV4i7lq/HhimzIk+Ysyh2ZuFHF1+HK2fMxy/fexUfnzuNoPLHHWEHrIy9cu0O3DJ/BW6etwwOi1Ulz9PTjX8c2IXHdm1BvatdPV/0sd/7gwgn6EOGNgaLZnL21nixjiqPT4Qb0tKRteYzkAyht2XIAT/aNj8GuccbKhCa8KN1RW1pGpUAyMi64B5IxujnnVwfPIWAu0Wrp0pmaojwoLcDri0PI+e6BwDJAMlogXP1Peg+sUX1gImo/oDsq2lk8vtEWJdAIKQERIITCAO80PX1BHFifwdO7nfhtb+dRVG5DXNW5WLG0hyUTLBrSG6bI/rrbXe7H552H9SQo3+4mzoDS4QrUT41Hff830TkFFmErzoHAHebH0d3unBwewdqjnrhavGro+YEf6lNC93+hzAQThERLhlMyLnw85DM4VfEyjLa3ns0EkxH64YCb3FwzV9UOBZcC1N29HtInoNvortmX1zBaSqIcNnfg473fof8isWhCpIBjuWfRefelyD7u+MKhOMJ2EXoHyJc2ByBwWAS4R2dbfiv576K+y79AVZPuQiGMGFsNlowf9xSzKtYgvOuehyq3YedVVtxsHYPTjUeDz0hzt2kxYAT4XkZBagsmoE5YxdjbvlilOWOh83M/z7ypiOv4ldv/ADd/i4AUBFtMftZ08d83ftKhBP0Iff+ryF7wvYmitUUhYc6Ee7p8OOpn59CU20X1n2yOPJkd3ahBbf95wS8+pdabH6hEQgCBqOE1dcW4OJPjUGaPfrqV79PxgsP1uDDV5sRDMjqlplYTT32YhHhissVyRkkIpwQHwaTCK9uOoX7nrwDP7zmV6gsnhYpZrek48Lpl2LN1A2obzuHPdU7sKtqO47U7Ud18ykEgn7O+GN9S5I+RzgH8H1OaU45JhfNxLyKpZhROh+l2eUwKTZ7e+EL9ODZHY/gyQ8ehhye3LU2zeo58EQ4IR6w/crOX+EySp8zyEQ4JMDd5sN7L9Tjg1fPo3RiOuauycG0JVkoKLMJfwBhNElw5pjhzNHadCJoqe/B0V0d2LelDdWHOyOvPQfHVyht9dR+N568vxq3fq8cztyQDjaHETd8vQwBfw0OfygmwudemIXsoqje1Yc6NTFCtDgnh/YHUgfV8nHoEuHu7i48vO0tvHXsAL686mJcMm0ujIbetZARV85cgCUVk/DIB+/iiY+2ocvXo550ZRk2SxruWLwGNy9Ygbz06Ft8ACAQDGLPuTOYUVSKNFPINiVJwoKy8fjDDZ/FPw/uxu/ffyv8unU1ES7BgIsmz8Q9y9djfG6BZqx/XHsaD2x+FXvrqhGUBfMFEeHDEmwMpskTJPDztES4feoaWMctiBTrrtkPz77XODITJ8JN2aVwLLg2ch70tqN98x/DBsHRUyUzNUS4Z+8/kbHqCzAXTgYApI1bDEv5AnSf3K6RmywRLkJ/EeEEAiH1IBKcMKqhWgoNwkK3uzOAM4fdOHPEjVcfP4vCsVbMXZWH+RfkcRerjkyT6okf0QUNJhGuhN1phN1phAYy4O0M4MiHLuzf0o5T+z3odAUY5x/f5mr/EOGEeCAKhFNBhFuKK5E+c32kasDdjLZtT0CDcKAfslZRcK1eVBjTc+BcdmvUFnxd6Nj2F8gBX5x6hgP2PhLhXUc3oad2LyylcwCEXt1km7oOnftf4QbCyRDhekg9EU7BemzwfAuYc2buEm2GhgskQ4Q3tNfhP5/9MjbOvgqfu+BrKHAWRhqRJAkFzmIUOIuxZuoGdPm8cHe5cLLxCE40HMXp88dR1XgMta3VcHV1hEeerFjoMl6Uu3iWNZugygKSJEGCBEkyIC+jEGNzx2Fs7nhMKZ6JCYVTUegcA7slHUYDx7+E4fK245Gt/4d/730WPuVnBoAhR4QT4gUbq4XTMDKI8J6uAF59rBZ1p7248b5xkW+b2hxGXHlXGfLGpOG1x87hss+WYskleaofF7pafXjqZ2dwZGc7h8BOBRHOj/kGlwgnxEYKfY76Nghtv7eskgg/UX8Ud/3lRty45HbcuPR2ZFijT98ZDSaU5IxFSc5YXDL7Wnh9nWjvbMWJhiM4VncQp5tO4ExTFWpbq9HlCxFckFPgcxQnvT7HYDBiTFYZxuaOQ3neRFQWTcfEwqnISc+HzWKP/GiM18/nWmvw4Nv/jZ1VmxGQA4ocnk2zeg4sEU7Qh2pEDEMiHAC6uwKoOuDCqYMuvPLIWeSXWTF1YRYmzsnAuGkOWO2mkP5JmoUsA77uIM4e78SJvW4c3dmBulNedHcGIpv3UuQ/vq9Q2urpgx785ftncMd/VyA9M/qN8Bu/xX81uiQBlQsduOSzhSq9dr/Zpol5RT6HnR+iabwYjnxOohjKRLgsSzjRWI/7Xvwrnt/7IX50yQ0Ym50X0aMwIxPfXHcFLpk2F/e/9RI+qqkK6WYwYNX4KfjmhZejMr9Ycz1VzY34xbv/wpaqI5hcMAbfvvAKzC8bF7H+dEsabpy7FGsnTsPD77+NZ/Z8ECazgRJnDv5j3ZVYMW4yzEb1+qal04Pfvf8mXjzwEby+HoW9DgMinBA32BgslCihr98Il0xpyFr9aUi9byuQg2jb8hgCXR71eiEiKDEiPHP5bTA6ciJiPHtfga/ptL6eqvS+E+FBTzPcHz6B7Mt/CEgSJIsdGSs+h57TO0N7fDHqi9oR6RSPjqJ24ukTAoHQPyASnDDqMVQWuj1dAdQc86DmmAcv/6kaZZXpmLM6F7NX5CK/RP0Nce01MIEqtO0PHBHORzAgw93mx8m9Huzf2oYjO9zw9wQVJcIL5iQ2V2mhO3jgBcKhjL4Q4UDuJV+LfgscQMeuF2C0OQGbE5C0phbdbGUgqf4AABzzroCleHLk3HtsC7zHtiaoZzhg7wMRHuzqQMd7DyHvk78DDEZIRgsyVt+DnnOHgKBPqzhzTYJTdWKMTc/+eCKcIIbYtyByDnDmLtFmaLhAMkR4j78bL+1+Bm8dfAWXzrkWV83/JCryJ8BstKiqWc02WM025GUUYPGEVaq8Dm8b6ttr0dhRjyZXA5pcjXB3d6DF3QRPtxuebhcAoLPbDXePK1Iv31EIg8EISZKQnZ6LNJMVeY58ZNpzkJ2ei3xnEQoyilCcVQaLKS3u/vUH/Whor8UbB17AS7ufRLu3LZInqbuMiPBhBnGsFs0dCUR4MCBj9zvNaKrtwqe/PxH5JaHXYBqNElZdU4gF63Nhz1Av384e78QTPz2F+lNd0Vb6jQiHvhxujIUY8bV6JLHjk43Vev8Q4oW+zxkoIryjsx1/ePeXeGHXk7hmwU24ZO51KHQWq37MJEkS7JZ02C3pKM4qxcrJ61Qim9yNaGg/F/Y3DTjvaoC7qwMd3na0dbaiJ/zGj3Zva+TtH0bJiLyMAgASDAYDch0FsJqsyE7PRU56HrIdecjPKEKhsxiFmWNgNMS/PdLt70JN8ym8vOcpvLrvefjCP6bkv0WBtWlVt8f0OUSEDyyGyv5AQnI4bUOW0NUZQM1RD2qOevDGE4DRYEBRhQ2FY63IL7Uiv8SKzFwL7E4THNkmzbeSXW0+eN0BdDT70HyuG0113air8qKxpluxlk/uR1NKW6056sGf/+M0bvu++hvhN313LA6934G977XD1eKHM9eMOWsyMWVJBoyKH4Md/8iNoztdij6i/YGBhNz7HxvzDFEiHJDg8wfw3onD2PjQ/fjCivW4ZeFKZNvSAQBGyYDZJeV48rZ78PTu9/HCvh24fclabJgyS/ODqNZODx7d8R7+svM9eH0+SAD2navGbU88hCtmzMfdK9ajLCsXUlizooxMfP+ia3DF9Pn4zdbXMbO4DJ9bcgHSLeo1T5ffh38f3oP/2/I6zntc0TGmstchToQTEgIbg4USw/2a5KvR0yctQ/rU1ZEsf1s9vCc+hDkn/FZEKfonXE0hRAFJe2jMyEXG0psiKUFvB9re/T0QjP4YUKinKr3vRLh7x9+Qsfx2mHIrAAC26RthnbQKvoajGv151yRM6u2fNAejQGwdeXpG6sboEwKBkHoQCU4gYGgudHsJ8X8/WoOxkx2YuTwH0xdno7jCBnNaKPD2dQfh9QS0bQvaHwgi3NXiR3ZBiESRg0Db+R6cPuDBvq2hJ7497X5F66l7yiiVC11CYuBt5oUykiPCLUUT4Zh9sapK9to7kb32zhRrDsgBH9o3PwI5END95aduwN4HItx76A34Go/DXDQFAJA2finG/MfHfbsoPXACayLCBxZi36Iow5u7RJuh4QLJEOGQJXi63Xj2w8fwz4+ewezyBVgz9WIsHL8sTECrCXEWTlsWnLYsVBZNT7AXUgevrxN1bTU4WPsxth9/B3urd8Db4wlfpNL/qfs51KfqRN1+1vSxdgNX2w7PRynLEimRCMSxWjR3JBDhAFB91IPffu0IPvmNcaicnxmxKZYAP7CtDX//1Rm0N4WechDHaoqWRTFW6MLjeDV6DDk8sk/VR7w5UD2S2PHJxmrkc+IDJwIeVCIcMnDe1YCH3/0lnnr/z1g0YSVWT70Is8rmoyirROdJ6xDyHAXIcxQk1RepgqurHbWtZ/DxmQ/w/olNOHJuT4j8Vvgcrl8Hz6ahsmciwocWhuL+QDJEOBsvBoJBnKvqxLmqzkgyzy4kqH2XpD5h0pJ/e4jSVmuOevDEf1fjpu9EvxFuNEmYuTITM1dmanTsRXNdD175UwN6enrXnWzsRfsDAwFhzDOEiXDIQKevB7989xW8fngvvrx6Iy6onAFT+BXpBsmAm+Yvx43zlml+INLt9+GNo/vxmy2v41RzYyhRYdP+YAD/2LcDW08dxWcXr8V1cxbDoSC655aU40833KmRG5Rl7K+rwe+2v4ktp44q+kUxxogIH7FgY7BoRnLfCM9efxegiK9M2WMw7ofvp1xvAOg89DZ6zh3WxkFx7CP1lQgPelrg3vUMsjZ8E4AEyZSG/M89n6IrE4DRlYhwAmFog0hwwugGd6NuaC10A34Zpw66cOqQC6//7SzGVNgxY1kOCsdacejDNlQfcWvlKNti0vqbCH/ul9VYdmU+JAk4/GEHqg93oqO596nWyLI0ppxBJcJBiAk24EPkdqmDtiSI8PQpqyCZranXmYPu07vRefhdAFJ4bMSvpypgT5IID3a2wrXtz8i55meqxUm/ghNYp4QIJ8SGijzg+RZBhd4j0WZouECyRDgkoMvfhR0nt2LHya1w2rJQnjces8bOx4zSuajIm4iy3IqEnsruD8hyEOddDahtrUZ180kcrN2DEw0HUd9xDp3dUV8YnYvUxj5UiXAaQDEgy5y+ZmO1cBpGDhHeXN+NR394EpffWYoll+TDaFLb8taXGvHyH86ixxsUyOlPIpwdK/HHauI5kBmvgD4RTogN3dhYUYw7ZvTnQtXYE9i+Wgd1pY6uDrx98BW8c+jfyHXkY3xBJeaWL8KUMTMxNm88xmSV6X7yYiDgD/rR2H4OtW1ncKrxGA6e24tT54+hvv0sevzdkXI8nzOUiXBCDAyD/QFdOXpts7IFbcdzDdoxnxoi/PRBN574n2pc/7VSFJbHXg82nOnGcw+cjbwNhfYHBhfDlQiXJeBQ/Vl86blHsXHaHNy75lKU50Rfkc4S1Yfqz+JX772KLVVH4QsGdG260dWO+99+CW8c24e7lq3HsopJke+Qs3JbOj34y8738MzeD9DR1aWN4YYZEU4DJw5wnDVnGSsurrrn6jzJlKZ6Crw/Eez2oG3THyEHQ+uSwSDC3Vv/COeKO2FIz9FW7i8wuqaMCCcQCCkHkeCEUQ3hZsQQXeh2ewM4fdiN04fdKlnKX2oP3MYuf6F79oQXf3+gWuHB9Re6fVkwM6VTutAliCErDyR1usRJT5QI72k4CTkYgDQAm59t7/wu+i1wDA4R7tn5FJyr74Ipb3wfr0Yf/sbjugsLIsIHCIppJtar0RMiJcIF+kKE94ru8LZhf81u7K/ZDaPBAHuaAw6rEyXZYzE2dxzKcitQnFWKPEcBCjPHID8j9HrzVCEoB3HeVY/6tlrUtdWgtvUMTp0/jjPNJ9He2YrOHrfqO98AGH+qnIsYj8P2MzDoRDhBH1Gfw/a11nYjI0sUq7GbpwMSL2nr8Orxxqqnw4fnf3MGTee6cekdpTCZJfh6gnj10XN47/l6+H28OWAgiPC+xWriOZCNEHlxumBnjMCHbmysKJaoz1HfTqHtq3XQ2gBkGU2uRjS5GrHj5FaYjCakpzmQYc1Eed4ElOVWoDSnHIWZY1DgLEKhcwyy03NT+kSzL9CDhvZzaOg4h7q2szjTdBKnm47jbMsZuLra4e1xwx/0q+rE43OGKhFO0IfwHmn6lXevGZ8zFInwfvV3qSHCzxzy4KH7qrD2E/lYfGkOrHZtjNnlCeCjN9uw6enzcLWGxyftDwwiZMXR8CXCfQE//rn/I7x/6jjuXHYBbl24Cmmm6La5u7sLD29/C3/btRWu7q5Iumpe5ti0LMvYVXMK9/zjUVxUOQv3rtmIMc5s1fW/dmQffrX5NVS3NYV+sCSBH8MNJyIchLjAcdacZSwS/Ua47Pehp/EULEUT+0NrFbpObEfXqZ3hMymkiUZ/vp7q9OSJ8IC7Ca6tf0Tmhm+l4pKE8J8/DtXWH6NrSohwAoGQchAJThj1oIVuX+SkZqHbFzlM6RQtdAmxwNu000tPhAj3HNqM2gdvRlop5xXLgqhQkxxRQgxfw3F49r+mqTjQRHiw242G318N+6wrIYV/FZ5I9BvPPnCgvRbe/S9F9RQsLPpMhBPig2I/bagS4b0IBINwd3XA3dWB+rZafHQq9Po0g0GCBAmSJEGSDMi0ZSMnPRcZtkzkO4tgMpiQ48iLPOEgSUbkpOfC29OJzh5PSLgEeLpc6Oxxo83TAne3C82e82j1NCMY9EOWZfT+Y/XXLn5Zf6qcixiPw/YzQET4EAfrs8WxWrT0SCHCfT1BvP1MHQ7vaMPEOU5U7XOh9qSXL4Mrpz+JcOjL6VcinOK1uKEbGyuKJepz1LdTaPtqHXg2EIU/4EeHtw0d3nbUtlYDx0M6SVKvzzFAkiTkOQqQnZ4Lh82JXEc+LKY0ZNmyw/pLMBlMyHbkoc3TEv3RlAS0e1rQ5fOitbM5/C3xZrR5mkOeRpYRRDBcNDU+h4jw4QnhPdL0K+9eMz5nqO4PQFtvKO0PeNp9+Ncf6vDOU42omJGOgrI0GAwSgkEZjdXdOH2wE12dAUCm/YEhARlMvw1fIlyCjPPudtz/xkt4cd9OfPeiqzGtqATbTh3DA+/8C2dam6KXFdFNjkmEQ5bh9fnwz4MfYdPJQ7h7+XpsnDoHTR4XHtz6OjZXHUFQDtVQ+pPhToQT9MGLAVR5mgVmuJ/jeTW6HETNr25AxvzLIRkZ+kdwe7jJEQUF8HfD9eEzgBxUVZIhA2wcxNNTk548Ed7+5gPwt5yBMUPx+Zw4TTGu31cG/ejc/yIgB6N6ai6Gr6NST3Ui+H1CIBBSCiLBCQTQQjchOf200O2LHKZ0nxe6hPggCtiFgXzcRLgM9/634d7/tioqlsDIY6AJMhXBuqRJVxxqZA48Ee5vPoOOd3/N1VFPfwDaIDqSzktU6ClYWBARPkCITlcC34LIOcCZu0Q+IlwglUQ4z98Fg3JIJxkAAmh2N6LFfT6sbLSueoxJ4JwyaRKbFdJB4794i18iwkcyWJ8tjtWipUcKES4HZZyr8uJcVZT8liBomyunv4jwOOT0ExFO8Zo+NP2jGxsrinHHjP5cqBp7AttX68CzAVYHtY4hiTJ6N1jr22vR0H5O4EfUBwn7HO4ckLzPISJ8eEJ4jzT9yrvXjM8ZivsDgnpDbX+g0xXA4Q86cPiD3jTFmE3Q59D+wABgxBDhgIwgDtXX4ta/PghHmhXu7i7OnK2YdOMkwmVJQkeXFz99+5/4+aZ/ISiHrxHQ2nR40AxfIpwQD3gxgCqP58R5e2uqex469DXXoOWN34USw43w4iIl+PtqTF2mPl9maCRp4iCOntr05IhwBHrg3vGkQH+Oegx4dhvXvprmYvg69uoZiwgnx0MgpB4D9AFSAmGoQlYfyTI/R1amKXJkXmlZ5bBk9Yn6PCJHnSarG4xfjl7bgjTet+FiXYNWjgy1GEVPKfpIXYTtzb7JYUpDfQnsPePkcPqBIIDWHDRBmigdsuC39DyZqhMpZjCoyZJD9cQy9QJMiW8SMfUMLw0EeorMTJY5qx3RKZvH1tVri9WTI09Yl9eWqD8IWsic+Tamb+EIUR7pzfey1m54PkEzV2rdD6OTWE++71KeM1fKnUt4voGvP6+ftP6Uqwi3PhsH8KppfbFWoLjvFLlsXUJcENsJz3ZlZVEmR104dpzDGb+9ZRKKl7R1ePXijhVjzgGyugZnYLFjVFuEcwWJytGJ1TRpkeK8sUijJm4IfA57JwDOXMgdMxDbGzv2BLav1oFnA6wO+n5ROwb4Bwn7HOEcwNEhTp/D11+dwddT3+fwRoTG5wj6mCACa/fcURNj/mJL6/sK2h+INAxVdh/lMKVjzIG8sUijJimo+p+duDi2xLM31v5lHXtTnvPGn3A+Foxjxk5kGXB1d+nM2aqLiW3TijKBQBBy+MddQpuWo3qowaSx/c40nIp+jznulTow/U4QQGb2q4TxgqC6TgI/T9JtC+BMfZFzZi+P15ZGZvSHEXHpqUoX71dxZQL8vbE42tKrH/e+Gkdm3PtqbF3BDxQIBELyIBKcQGAXPCN5ocsLVDltJyeHFrqjCoqgTRTwCgPh/iLChcEpEeEiQakmwgmxkSwRnjApEc5j7YaIcP36bBzAq5ZqIpyGUDwQ+2x925WVRZkcdWEiwoVSEB8Rrh3rvLERLcL2v6oyEeEpAhHhSfoc4RzA0YGI8BEI1u65oybG/MWW1vcVtD8QaRiq7D7KYUrHmAN5Y5FGTTyQwXTVCCPCVWVSTIQrDVlo0+GM4UmEE2IiWSKcrcepz88jIpx/Iq4/KEQ4gUBIKYgEJ4xqiDd4uEsjfoAslKO/SBzUhS6nHi10tXIIMTAEiXBZFgXXRISLBBERPvDoCxHOnbtE83Q4j7UbIsL167NxAK9aKolwgj64PjxyoBk1nK6VlUWZHHVhIsKFUhCbCJdjy0klEU5jJ24QEZ6kzxHOARwdhhERTtAH7Q+I245LDpvG9RXs0KD9geGPcAyguvVi2+elEREew6bDGcONCCfEib4Q4by9Ne0tYhKICOefiOsPKBFOQ4hASDmIBCeMeozKha6gHi10CQljCBLhgCi4JiJcJCglRDghIfTl1ehEhPP8F1uI50+5inDrs3EAr1rKiHBCTAhjNUWmvu3KOnLUhYkIF0pBbCI8DjmpIsJp/CQEIsKT9DnCOYCjAxHhIwa0PyBuO55r0Mqm/YHRAyLClcJj2jQR4QQl+vJqdCLCOWnDmAgnEAgpB5HgBAKY4Fd5NNIXupw0WugSEsYQJcL5MokIFwkiInzgQd8IZ66Uu3jm+Qa+/kSEj1SE+5EbY/UeaEYNx3b15KgLExEulIL4iHDtWOeNjWgRtv9VlblEOCFxEBGepM8RzgEcHYYDEU6IC7Q/IG47nmvQyqH9gREN5p4QER49jmnTI5oI14gkxAIR4ToyiQgnEAjJg0hwwiiHIPhVHo3khS4vUOW0nZyc4bvQJehDBi+AHnpEuDg4JSJcJIiI8P4Ft/uTJMITJiXCeazdEBGuX5+NA3jV+k6EE2Ij3I8iu1dk6tuunhx1YSLChVIQmwiXY8vpIxFOQyg24vU5vF4lIlzrL3n6D08inKAP3j1i7Z47amLMX2xpfV9B+wORhqHK7qMcpnSMOZAGTiJg7wkR4dHjmDY9YolwGkOxwO2hvhDhvGTtLWISiAjnn4jrExFOIAw/EAlOGNWQDIAw+FUe0UI3STnDc6ErUeyhCzk0cDgBNBHh+jJHNhEu08DRhyRBYheJYRARzlwpbzyNWCI8ZBcEHUS6J9yPIrtXZOrbrp4cdWEiwoVSEJsIjzQnltMXIpyGjS4kiRPnhEFEeJI+RzgHcHQYokS4JNH2TyzQ/gAU19Af/o72B0YijIbw/gBzT4gIjx7HtOkRSIQbaODEgAQNidyLvnwjnFdce4uYBCLC+Sfi+v1HhEvkdAiEfgCtggijGhs+WaEObMEEv8qjkb7Q5dQbjQtdi1XCgouzQBDDdsGdjN0rMESJcH5wTUS4SFAyRDgWfVGQQQCAyjGzMLN8CQC+CfSFCNds4jCNEBHem8Z6Fa4i3PpsHMCrlgwRXlk8HxX507XKEiJYcf1Yjc8mIpwpM2SJcDm2vYQ1UgAAIABJREFUnCSJ8DmXZbPaEBS4ZP5NsJnTAcTvczijiYhwtn3hHMDRYQgS4etn3spJJSix/PpywbzDpKkzdHxOLDn6voL2ByINQ5XdRzlMad050GyVMG1dJghi3LLsIkR6lLknRIRHj2Pa9Agjwq+YvkQjhxCFqWwmTBPF+wN9IsLp1eictGFChI9dDhTP5WcSCISkQSQ4YVQjKy8NABPYggl+lUcjeaErqDfaFrrOXDMI+pDMNkj2LMbuFRiCRDggCq6JCBcJSogIN1oAew63HUIUeRmF4nEDznwb07eASWN9llIUb75nz/kra7G/Y9vX15OIcK3u2ekFWiUJKqRnmmE0GTQ+m4hwpsyQJcLjkJMgEW6xG2G00BMSsZDnLErY53BGExHhbPvCOYCjwxAjwrPI58SEM5f2B5gC/eTvhs/+QHo27Q/EgsVkRqYtHZEeZe4JEeHR45g2PUKIcJPBiEyrXSODoIYxSz9Wo2+Es+NDeThCiXBnESeRQCD0FUSCE0Y1lm5gAw5B8Ks8GukLXU7aaFrozlrtBEEfhpwSmMYvCJ2IAvYhSoTzZRIRLhIUNxFuywHGr+W2QYhi7ayroPUXavSFCGelsrY7pIhwVmOmLm9+iKbxfANf/6FOhC+eeIlWQYIKkxbmwu4MbUBrvDk3xuo90Iwaju3qyVEXJiJcKAXxEeHasc4bG9EibP9H/y+aYkVGHpESsbBm5pVIxudwRhMR4Wz7wjmAo8MQIsIXT9yobYSgwpwL2R8s8u4Ra/fcUZOgHH1fQfsDkYahyu6jHKY0dw6ctCIDBH0UZeZgzthJqk4nIlzrR3qPY9r0CCDCM9LsmFcyQVOfoIZlwdWhA+3tiGKUfCNc24hAT1X6CCTCp1/HEUYgEPoKIsEJoxqZeWmYtzqfH9gCggWqKkMc/MaUo79IHLSFLrtgELSdnJyhv9BduJFehR4PrCtuiZ6IAvYhSISLg1MiwkWC4iLC532KK5ugxtzxK1GUPRZaf6HGqPhGuMzqpTxnrpQ3nkYAEZ7nLMW00qVa5QgaLLp8DMfmwjYgsntFpr7t6slRFyYiXCgFsYlwxb0QyYmTCJ++jmK1eLBx3iej/Zigz+GMJiLC2faFcwBHhyFAhM+uWINMe562AYIKjtw0TFuRp5l3ekH7A+K2k5Mz9PcHpq+nV6HHg2sWrA4dKDqdiHCtH+k9jmnTAiKcEaopM1SI8Isnz9PUI2hhnrISxryxoRPt7YhiFHwjXJb1ZLLjQ3k4cohwKWssMG4NRxCBQOgriAQnjGoYDBJmLs2DMLAFE/wqj2ihm6ScobvQLZ1sg91J02I8MJXNgCGrOJogCtiJCI8hc2QQ4dKki7hyCWqkma2YM255dP7RWeiOCiJco5fynLlS3nga5kT41DGLYDFZtYoRNJi2LB98mwvbgMjuFZn6tqsnR12YiHChFAwEEW7PMSF/fBrbMoGDrPQ8TC6dm7TP4YwmIsLZ9oVzAEeHQSbCZ5WthEEyaoUTVDAYJFQuov0BXh1NGqft5OQM3f2Bgkk2WDNofyAeTC4uQ74zO3Si6HQiwrV+pPc4pk1ziHA5ehjJ0JTRdNPAE+GLyiZp6hC0kCxWmCcvjyZob4cij74RLpY5MohwuXwlYLZxhBAIhL6CojnCqMeSi4pRXB7+fhEvsAUT/CqPaKGbpJyhudBddX0uTGaaFuOBIacEliU3qBNFATsR4TFkDnMifOKFkMfQL73jxY0rvwizyRKdf3QWukSEM1fKG0/DlAg3GS24dO5ntQoRuCiZ4sTkxbmIdCJrh9Cxe0Wmvu3qyVEXJiJcKAX9TYRPW5NJr0KPE2aTBTeu+CIART8m6HM4o4mIcLZ94RzA0WGQiPCirHFYNPFirVACF7MvLEL+WNof4NXh1RvJ+wPzrsqBkfYH4kJxVi6unLdc2c2I9ChzT4gIjx7HtGkOEc4cKq8ukjGYRPiC0omYlFeiKU/gw3rRPYDJEk3Q3g5FHn0jXCxzmBPhRgukFV/jVCYQCKkARXOEUQ9HphnX3j0JaTYjhIEtIFigqjLEwW9MOfqLRCLCIw1Dld1HOcrSs9c4MXkBfe8rEdjW3gFT+Rx1oihgJyI8hsxhSoRnFAMX/BcgCb7jRNCgJHc8bl71FQCK2UpnoUtEOHOl3MUzzzfw9R8qRPgV8z+PwqxyrTIELiRJwobPT0JGnhUam1YcERHOlBlhRHjhRBtmXZrNtkbQwaJJa3HBrKsAJO9zuCOurz6H1UFg+2od2DHI00GsY0Q+14+oDxL2OcI5gKPDABPhZpMV1y76MhxW+oxAvLA7zdjw2Ymw0P6Ato4gbSTuD1SuzEDFXAcI8eOmpeswvWQcd14jIlzrR3qPY9r0MCLCc+wZ+NTCdZBofyBuGAvGw7bxq+pE7e1Q5I2Ob4SPNiJcWnkf5NwJnIoEAiEVIBKcQACweF0Rrri919kkukBVZYiD35hy9BeJRIRHGoYqu49yACC/LA3X3jsG5jQK1BOBwZkP5z1PCINTbQA9NIlwUaAvlqm3qBhlRPgVD0Iqns1XjiDETau/glXTLwWgmK10FrpEhDNXyhtPw4gIXzjhIlw+//NaJQi6KJnkxPXfnh4+49lc2AZEdq/I1LddPTnqwkSEC6UgPiI8hhwmvr78e6WwZ5nYlgg6SDPbcN8VD2BsXui1pMn6HM5oIiKcbV84B3B0GEAi/PJ5n8PCiRu0ggi6mLm2EGtvHR8+Y8cM7x6xds8dNQnK0fcVtD8QaRiq7D7KAYDskjRceHcxTLQ/kBByHZl46NP3QtW3ik4nIlzrR3qPY9r0MCHCv7rqKkzILdaUIejDvvErsMy7TJ2ovR2KvJH/jXB9mez4UB4OQyJ82pWQV36dU4FAIKQKRIITCGFc9qlxmL0iP3yW6AJVlSEOfmPK0V8kDupCl1NvJCx0bQ4jPvHNEpjTaDpMBpIjBxm3PwTZyLyaVBSwD0EiHLIouCYiXChIMkJacS+kCWv5ShF0YZAM+OLGH2NcwRQAitlKZ6HbFyJcs4nDNEJEeG8a61W4inDrs3EAr5oMGaU5k3DLiu9CksjnJIPKhblYc8s4hLpPVsQnvQjbADfG6j3QjBqO7erJURcmIlwoBbGJ8DjkyDIMRmDDvSWwZdD3jJNBmsWG71z3IDLCTwIn63M4o4mIcLZ94RzA0WEAiPBZY1fg0nl3agUQ4sKamyoweWle+IwdM7x7xNo9d9QkKEffV9D+QKRhqLL7ICct3YiLvloME+0PJIUsewZ+dsMXYDIaufMaEeFaP9J7HNOmhzARLgG4YfZKzCuhJ1mTgmRA+vU/hrF4ijpdezsUefSNcLHM4UOESwXTIF38U0gGWucQCP0JiuoIhDAMRglf+flczF1dEE5JdIGqyhAHvzHl6C8SB22hK6g3nBe6tgwjPvvTcpRMsmmugRA/0hZdhYzbfgXJwvSjKGAfikQ4RME1EeEaQZIEacVXgHXfB4jISxq5ziLcf9sTmFAYerI1MlvpLHSTJcKjaazPUorizffsOX9lLfZ3bPv6eo50Inxs3hR8/fI/ICu9AITkIBmAjZ+fhDU3jwtPz1GbYSMwIsKZMsOUCDenGbD+SyWYvNLJViIkgEljZuIXtz9LRLhKFDsG+AcJ+xzhHMDRoR+J8Lnj1uIrlzwII22qJg2DUcJtP5mDqfRDeX4dQb3hvD9gdRhx9Q/LUDCB9gf6go2zl+DH194Bq8XCndeICNf6kd7jmDY9BIlwSZJww+yV+Myi9TDQa9CThiGrCM4vPwlj6Qx1hiDWCSXSN8LFMoc+ES4VzQBueS70mUECgdCvMP7gBz/4wWArQSAMFRiNEuauLICrzYf66k74fUEAUq/fDf+JOrVofKdIU2eocxKSIylPQ+cqUVrnyn53R1I3GL8cvbYF9Xjf/Il1DVrZEvNpYUVPKfpIXYTtzfjklFba8clvl6G0kha4AHCsqhrO7Gw4MpL7LrqpZCqknBIEzh2H7GlRZ2rNENDYBnugly6x1TkVtFX49sQRweZxxzOnLY1MiS8vpp6hAz09+WtL1u619UX6c+vy2sooBpZ8HtKF3+MXJiQEe1oGlk5Zj5qmk6htPgVAYaXccRNOY29WTN8CJo31WUpRvPmePecJ1vN3bPv6evJ9l/KcuVLuXMLzDXz9+f2kmbF4inDrs3EAAMypWI0vbngA2Y5CbWOEhDFxfi7kINB01oueTj+UBsfO2MJYTZGpb7t6ctSFY8c5qYqXtHV49eKOFWPOAZK6BmdgsWNUW4RzBTHkZI9Jw/JPFWLK6kzNdcQLj9sNV1srKseXJy1jqKC6th6S0YTs3Nyk6uc4CjC7Ygmq6g+h2dUAIHmfw4uMNMVEYy+mrbPnej6HHYM8HWL4Rc0Y4B8k7HOEcwBHhzh9Dl9/dYbVbMOKyVfiM2t/hDQTrXP6CoNRwtRlBfC0+9B0thMB2h/Q1hHUG277A4UT7bjoq2NQNMmu0TtetDU3AwE/xpYUJS1jqKCv+wOVRWUoysxBVeM5tHW6ufMae09U56oxI4h5lObDszfW/iUde1Oe88afcD4WjGPWVyrL8OYDlW5x2LSyjLJP1UI1Zbixl16/Mw2z/Z6T7sSVM5bg04vWs4IJSUCyZiBt9kXw159EsLGKyVT9UWewecJ4gV+XlywUxdojpy1FMa4CnOlYR6ZOHCTSUzgG4tCTO07iaUu/viat8iIYrvsT4BzDVywONNbVwZluQ0FeTtIyCIRRgm1EghMIDExmA+atKkBxRTrqqz1ob+5G4gtUVYY4+I0pR3+ROGgLXXbBIGg7OTn9u9BNsxqw8to8XH9fKXKKLBp9Ryv6usgFAFPpNKQtvArB1rMInDuqzuQG7KxtsAd66YJgnSmnNQGePTHVuQEvbzxz2hKsHkYEET5uFaSrfwvDrOv5hQhJwZ6WgbUzr4LD6kR103F4ulxRKxUudDnzbUzfwp6zPkspSitbO/x4Kzs9fxdDB02T2gHO+gHOKZPG8w18/fuLCM/NGINrFn0Rt6z8LuyW5OdXghYT5uVgwrxsNNd2oqXOC77NsXMwZy4nIly/ba6c/iLCo/eicqUTl35rLIon943EIxJcjfzMMbhw1jUIBgM4UX8Q/oAvaZ/Di4yICOfHWQNFhJfnTcXNK7+Dy+bfCbOR1jmpgslswLTl+cgbm46mGg9cLbQ/wKujSeO0nZyc/t0fsFgNmHdFLtZ/aQwy+7g/QCS4GpOLx+Li2YvR0NGC4w213HmNiHCtH+k9jmnTg0yEzxkzHvetuRoXTprDCiT0AZLVgbSFV0OyOhFsOA7Z61Jkqv5AlcHmCeMFXiKnOC/WiSSI4yJOMa4CvHhJLFMnDhLpKRwDcejJHSfxtKVfX5IAZJbAsPbbwMafQrL27U1XRIITCHFjmyTz3h1DIBAAAN1dAezZfB4v/PEEak95IunxLVBVGeLgN6Yc/UUiLXQjDUOVzcgxmiQsvTwP628tgM1BrwVk8a+3tqBk3HgUFvf9NTyyHESw4SS8/34APR+9AjnoD2UIg2vFq7Q0B/rpkGSO5QIcE2NOZP4CoLeYMOCVdWQKFhW97SUZREuQE9MTgCQxrl3Un7w85f0wGIHypaEgvWwhQBuq/YrOHjde3/0M/vru/8LlbQV3MavAqCDCNXopz8WL72gazzfw9U8lEe6wZuHqRV/EqmnXwGZO1wompAwBXxBnDrbjrUdO4tTeNgRldp4O24DI7hWZ+rarJ0ddmIhwoRToEeEGo4RJy5xYdEM+ckrSIBkETi4BNNTVofZUFS5bt7LPsgYbW3fsgWSxYlxlZUrkubva8fi7D+DlHY/BH/AhGZ/DGU1EhLPtC+cAjg5JEOESJIzJHo9rFt+DORVrkGamp7/7Ez1dARzedh5v/6UKDWdof2A47w8YTBJmb8zFkhvzkZaemv2BU8eOQe7pwopFw58UTOX+QFCWcbqpDr9/559468BOBIJB1c0jIlzrR3qPY9r0ABPhRsmAGcUVuHXhBZhWMBYmI+2t9Sfkbje6tj0N77//F7KnNZQoiHVCicw6iB86cQIlzj4Xk8DPk3XbAjjxTuSc2cvTjcGidfRl8mOw0KHMKaCjJ6DdV4uzLW59Ww6kNd+ANO9mSGmp+XH8gd27UZKfjemTJ6REHoEwgvEzIsEJhDix4616tDf34LUnzwDgBwD8zRn+4ksTDKuLq9M0ATlXoqZNdT670GRqxb3QjbNejGhGuwXKlBMF5qpi7KKAbU3CpHkZKB5vxaxVmXBkmTR6EkJI5SJXCX/dUfiPbofvyHsInDsSSdfeWoYIjzdYV9TVC9g1p+GAXQ96pHXMxUG8wTqvruZEQPRzKyl1EBPhsfoK6bkwzP4EpMKpQMVyvdYJ/YSXPvwLWt2NeGf/i6EESXubePOxOoXnW6JZXHmMEeou7IR+Lw4/pdIpqjjXC+mOG4l3yk3T2r1W+3jKRMqxHSYBSysvQ5Y9H+tn3cSpRehvVO1pRUOVG7vfqIenrSfhWC1cRFm4H2M1Xr7WWLWkhKCexufFUU/kDASxmjYtnliNqcWZp3LLrSif40DpTDtyy6yaNvsCIsFjo83TjM0HXkZVwyHsrtoKgB+vRGxIQiisEfkcnn+JK66L8aROAj6HP/aZHK4f5DqimD6H5ysHwudcPPvTyLTnYPGkjZxahP7G/ncb4Grpwda/VwMQ2Z3Y52g8RL/6HMF8romb2DGSwnq8gaI4HKj9gbJZ6cgfZ8Ok5U7YM1O7P0AkeGycaKzFrqoj+ODkQRxvqAXATm/hO6+69RzbV2Wz8Y0mKNLWk3TyWZvk/kBJMEZ5Y5JNY9pmpKn7QuOWeDaeDBGu1F177exJls2BdZVzUJFbiFnF40AYeHRtehRB13n07PxHJI3ndzQPbsQVg0Xr8mUKTiMn4r215B8G4befMBGuSOB8BV2nUji5D0S4BACzroXkKIS0+LPitpMEkeAEQtwgEpxAIBAI/bfIJRAIBAKBQBgsEAlOIBAIhIECkeAEAoFAGCgQCU4gxI2fGQZbAwKBQCAQCAQCgUAgEAgEAoFAIBAIBAKBQCAQUgUiwQkEAoFAIBAIBAKBQCAQCAQCgUAgEAgEAoEwYkAkOIFAIBAIBAKBQCAQCAQCgUAgEAgEAoFAIBBGDIgEJxAIBAKBQCAQCAQCgUAgEAgEAoFAIBAIBMKIAZHgBAKBQBg16GhvwwP3/wSHDuwbbFUGDF1eL775lbtxcP/epOpvfvdtfP87X0+xVgQCgTB00dd5cySC+oQwmvGXPzyEx/78h8FWg0BIGX718/vx8gvPD7YaBAIhBl5+4Xn86uf3D7YaBMKQxGDsVdGaiEAYnjANtgIEwkjF/T//BU6cPInP3HYrVixbpsl/+E9/xo5duyLnzgwnJk6cgBuuuQb5+Xmqck3NLfiPb30jrna3bt+Og4cO4/jJk+jp6UFhQSEWLZiPVStXIM1iiVv/5pYWtLW3Y8K4cXHXIYwO/OR738H8xUuw8bIrB1sVXdTVnoXRZEJBYVEkrebMGbz52ivIzc/HtBmzBkSPwe6vYDCAfXs+Rkd7R1L1zzc24MC+0fOjgZGKD7dvxfPPPBk5NxiMKCgsxOy587F2/QYYDIPzu0hWL6PRhDGlpSgbW4FVF1yInJzchGV2eb04d+4sxo6tgMlsTqW6hBGAnu5ubNn87v9n767DozjeAI5/c3GHEHcSrLi7e3G3lkLxFmuhAjXoDyleKIW2QKFQWgqlFHd3d4e4QNztcsn9/ggcHLELBALp+3kenofszs6+u7e3tzOzM0OAry8B/n4YGRvhYO9IvUaNqVy1Onp6ei9833wRqSkpnDh6GF+f+wQF+mNmbo6buyfNWrbC1c3jlcfzWFGeE/FyRISHMXfGt5q/FQp9nF1dqVGzDk1atCzCyF4/fn4+6Ovr57r+2XOpp6eHrb0D7h6e1K5XH+8y5Z5rv74+97Czd8DS0uq5thfF39JF8/H39aH3gIHUqdcg2/qYmGji4+Pw8NAu09+7fRtTU9NXFaYQhSIqMoJd27cSFOhPcmISpWxtqVS1Gg0aNcXC0rJIYnpclhk59qM87/VXL19i7arlDP1gDOUrVNQ5/9CQIO7dvl0YoYpiTJc6J13T2NrbM2rsx3nub/530zE2MWHMx7k3QE//ejLx8XFA1nORdYmSuHt40r5TF2zt7PM5It0URV2VlImEeDNJT3AhXoLwiAjWb/yH+75+bPx3c45pfPz8CAwKpnatWtSuWRPrEtZs3PQvnXv14sy5c1rpbt3J/6E3MCiY4R+O4dPJX3LpyhXsbG2xt7cn9EEoU6ZNZ92Gvwt0DJs2b2HUmHEF2kb8N9y8fo2HoaFFHUa+fpg/h9XLf9FaVqlqNVas/YuBg4e+sjjelPMlireoyEiuXr5EparVqVqjFhXeqkhsbAzzvpvG5AljyczMfC3iKlOuPNFRkfy19jeGvduPHVv+LXCePvfv8uGQ94gID3sJEYs32aUL5xj5/rus/HkpwUEBuLi5YW5mzq1bN5g0YRz37hZtJeP5s6cZOXgAvy5byoPQYFzdPTAxNuHMqZMs+X5+kcYmip+0tFSuXr6EnZ0DVWvUolyFtwgNDmbG1C/5ZtLEIvtdeBM9ey4rVqlGZkYGe3ftYOzw9/nphwUolcoC5zt2+PucOHrkJUQsioOoyAi2b95EgL8/u7blXOewZ/tWvpz40SuOTIjCd+r4MQb378W5M6ewsSmFp5c3yjQlq1cs4/KlC0UW1+OyzJpfl+eZbuWypVy9fInE+IRXFJn4L9GlzknXNJs3buBeHnXQF86eYd/uHdy/dyffvDLVamrWrkvVGrWwtLJi57YtDBvYL8/8hRDiZZCe4EK8BNt27MTVxZl3+vVj3sJFJCQkYJnDm6kODvZ8MHyY5u/4sQkMHjGSL6d8y+6tmzEw0O0rmpiYyJCRo3irQnm2bvxbqyc5QEZGBqqMjBc7KCGKiaLsSSdEURswcDCGT40KcnD/HuZMm8qRg/tp0brtaxNXUnISPy/6nsUL5uDo5EytuvWKLDZRPNy5eYMvP/mIPgMGMmDQEIyeGR0nJTkFU7Oi6xV349oVvvl8Yq7xSYOkeFlatm2vdY/dvX0rC+d+x66tm+nYrUcRRvbmefZcZmZmsnXTRpYtWYSJiSnvj/igCKMTxc3+PbtwdHamW8++LFv6A0mJCZhbFE1vWCFepgyVinkzvqVD5658MG5CtvVqtboIotJ25uRx7t66Qbm3KmVbd+70KW7fuF4EUQnxfNasXMa02QtyXLd6Zd4vfDytUuWq9Bs4WPP3oGEjGT6wP5s2rOPzr7/NfUMhhChk0gguxEuwZfsOOr79Nm1atWT2/AXsO3iIHl275LudlZUlI4cN4dPJX+Lr50+5smV02t+8hYswMDBg7swZmJiYZFuvr6+vNYTf1WvX2XfwIIFBQRgaGlKtShX69e6F4aNhY39b+weLf/oZgKGjsiprpn71JW6urgCEPnjAxk3/cs/HF1cXZ/r36YO7W9a6CZ9PomyZMlqN+7du32HpsmV06diRNq2eDK948PARNv67mR+/n49Cocg3rgmfTaJypYoMGfSe1vH9vOJXkpOTmTBurE7nSxSu1JQUpnzxKZ9//S1HDx7g1o1rKBQKGjVtQeNmzbOlv3LxAseOHCI2OorK1WpQuWo1fl+1nG+/m6eV7vqVyxw9fIDwsIeUKVeBHn37Y2Zqplkf9vABO7duJjDADxMTU7zKlKVpi9Y4ODoyZ9pULl3IGlEhIiIMUzMzvv1uHqkpKXwzaSKDho2kUpVqmrzu3rnFkQP7CQ4KwNnVjdbt3tYazqygx1gQGRkZnD55nIvnzhAe9hAr6xI0aNRUK1/N/r/Maqy8dfM6BvoGtGjTjjr1G3D/7h2OHT6Iv58Pzq5u9O73DjaltF+GiYwIZ8VPPxLg74uTswvNW7XJcUj4K5cucuzwQWKjo6hUtTrxcXEFjle8OVq0asuP8+bgc++uphE87OEDDuzZRYC/H6mpKXh4etG9Tz9KlrQBYN2aVdy7e5tvps/W5JOuVDJj6pd4lynHwCHDNcvDHj5g/nfTGDvxM9zcPXWOy9zMnI8//4L79+6weMEcVq3biJ6eXr6xXbpwjq8+zRq+7dPxo3F2caFLjz40btY8321F8aVKT2fBrBk0ad6SwcNH5ZgmvwbwkKBAFs2bxcTJX+Pg6KRZ/ufqlaSkpDB01Git9Pn9hj0tXank+9nf0axl61zjezxlwePfsUlTpnH+zGkunD2No5Mz74/4IN/7c2REOHOmT6V77/40aNxEk/f+3Ts5duQgwz8cq/Wi2NpVK1AqlQwZ+WGe5yavY80rXvF6at+pC5s2rOPi+bN07NaDG9eusG3zP4z9+FN2bd/KjWtXaNKiFS1bt9Nsc/zoYS6ePU1MTDRe3mXp0qMX1iVKZsv7zMkTnD19gvCwhzg5u9C6bXutBoMD+3Zz8dxZ0pVKatSuQ/uOXdDT09Osv3n9Kgf27iY87CG2tvZ4ly1L27c7YWRsrNN6XfahVqvZv2cnVy5kTVtVo3ZdMjMy8xwOPTcKhYJuvfoQEhzIxr/+oF2Hzji7upKclMihfXu5fesmsTHR2Dk40LFrd82zZ3xcLNO/+YKMjAwWzpnJwb27qFS1OoOGjsh3W/HfsW/XTlq2aU/j5i34efH3HDtymPYdO2vWb1z/J7+tyBoV67PxWffxjz/7AieXrHK7Wq3m+OFDXLxwltiYaCpXqU7Xnr3Rf+ZF/LCHD9i1dTN+fr44OTvTpXtvnB/VC0DW/OJt3+5I+MMwrly6QFxcTI553b5xnWNHDhEaEoSBoSEVK1ahc/eeMnWNyFdQYABJyUlUqV4zx/VP38N1fd5PTklm66aN3L99C1t7e+o3asL1q1fwLO2tVa5NS01l2+Z/uH3jOhaWljQENKwGAAAgAElEQVRr1YYatepo5WVqZkqVajVYvXI5M+YuzBbfmpXL6NqzN1v+0R6d8XnKJpmZmSxZOI8MlYqxEz/X/DblF+e2f/8hNTWFBo2bsG/XTgL8fXl38DDKlCuf677Ef1PTFq04eugAt29cp0Klylrrzpw8TmhwIK3atCckNLjAeVtZWVPayzvHl3t1KTvlV1elS7kjv7q/x/x87nNg724C/H2xLlGS+g0a07h5ixyP6+b1q/y2/GfefX84VavXKPB5EUK8fDIcuhCF7Mq1a/gHBNCxfTtsS5Wids0a7NyzR+ft3R4VShMSdRsmKTMzk+27djNwQP8cG8CfFRMTw4gxYwgJCcXTwwNDA0MW/riECZ9P1qSpWKECtqWy5mFt06oVbVq1wtLCAoBr12/Q592B3Pf1pXLFt7h77x6933mXO/fuAWBpYcHGTdrD1+7et48jx47z9zPLd+7Zg6GhAQqFQqe4bErZ8Mf69Vpv+qpUKtauW4e7m5tO50sUvszMDK5cvMCA7p24eP4MTs4uJCYkMP2byWzf/I9W2k3r1zF54jhiY6JwcnHl4P69jBk+mLOnTmql27HlX7749CNUKhVeZcpxcN9uxgwbTFpqKgDBQQF8MOQ9rly+iIenF9YlSnDu9ClSU5MBqFW/viavJs1bUb9RE02sz87fs3vHNiaMHkl4+EM8PL24cuEC40cN49ihg891jAV16vgxliyYS1paGp6lvYmNjmL6N5PZtH5d9v337MyVyxdwdnUjKiqCrz+fwMSxo/jfV5OIj4vDzd2TIwf2M2bE+yQlJ2ntZ8nCedy/ewfP0t7cunGdT8Z+wL7dO7TSbFq/jskTxmo+n0MH9rH+jzUkJyUWKF7x5lCr1agyVFqNelO/+Iwrly5gY2uLnb0je3ZuZ8ywwSSnZH2/7BydOHnsKCFBgZptLl+6wOkTx9m4/k+tIV/PnT6Jn48PLq7uBY5NoVDQq+8AHj4I1Qxtnl9s9vYOmsJpk+YtaNK8Fc6uLjptK4qvO7duEhDgR99338s/cS6Sk5O5evkSqakpWssDAvzw87mvtSy/37Cc4gsOCtApvse/Y19+8hErfvoR9MD80TNafvdnWzt7IsLDOXJon1aeWzdt5MzJExw/fEizTK1Ws33LJkralMoznvyONa94xevLycWFxEdlkfi4eA7v38fkCePZuW0zZqbmmJs9+QznfzedBTOnoadQ4ODoxK7tWxk1+F2t3wiAnxd/z4ypX6JKT8fD0wuf+/e4dPHJELazp03h15+WUKqULbb29iz/8QfmTn/SS+jw/n18MvYDoqMiqVCxMmp1JscOH9Q0oOW3Xpd9AEz7ehJLF83HyNgYMwsLfl+1gnNnTr1QT8Pe/d8lIyODWzeuAfDbil/YtnkTRibGuHuW5ua1a4wd/j53bt8EwMjImCbNWwHgXaYcTZq3omKlKjptK/4bbt24RnBQAC1bt8XGphRVqlXn0H7tOoey5Spg8+ge3qR5K5o0b6W5/6rS09m8cQPr/1yDmakZlpZW/LpsKbOmT9HK487NG4weNgh/f1/KV3gL3/v3+HDYe/j63NOkuXntKhNGj+Tfv//C3MIix7ziYmOY/Mk4wh6E4urmgaG+Ib8uW8q0b754WadIFCMOjs7oGxiw9Z8NWuXSnOjyvB8bE8OYYYPZtXUzDk7OJMTFM+ObL1m7agWREeGadAkJ8YwfNYzDB/bh6V0GVXo6X37yEbu2b8m230FDR3Dx3FluXLuitfzksaM8DA2lW6++zxXrs5YuWsDxI4fpM+A9TQO4LnGGhgTx78b1TBzzAVcuX8TE1BQra+s8z6X4byr/VkUaNG7C6l+XaS1Xq9WsWbmCXn0HYG75fM/yocHB3L1zm6YtW2st16XspEtdVX7lDl3q/gCOHNjP+FFDCQ4KwLtMOeLjYjm4f3eOxxQU6M+USZ/iXa68NIAL8RqTnuBCFLIt27ZTpXIlTaNs29atmTlnLhERkdmGKc/JnXv3UCgUlC9bVqf9+QcEolQqKePtpVP6kiVLcmTvHoyf6hHRuFEDJn89hcCgYNzdXKlbuxb9+/Rmwz+b6Ne7lyadWq1m5py5tGnZiilfZjVOjxg6hOEfjmbx0p/48fsFtGzenH+3buO+jw9lvL0BOHLsGC2bN+PIseOaoeEzMzM5deYsn3w0Xue4unTowIaN/3Dl2jWqV83qwXrm3DlSU9No26qVTscvXp6uPXtrDU82Y+qXbPr7Lzp16wlAeNhDVq34mRGjx9OtVx9Nuk6tm6JKT9f8HR0dxfKfFvPxZ19oeqb26N2Pwf17sm3LJnr1HcDBfXsxNzfn+yXLtN78fqxVm/bs37UTG5tSdO7eM9eYo6Mi+eXH7xnx4Ti69Mi61gcNHcGUyZ/y0w8LqFO/ASamT3oH5neMz6NBo8Y0bNJU08sPsnpU/LNhHT369tdK261XH0aN/Vjz92fjP+Tq5Uv8vX0PlpZWAHTo3JVhA/tx7OAB2nd6MgJFtZq1mPX9YiDr5ZmZU7/klx8X0bBxU8wtLHX+fAoSr3i9qdVq/ly9EkMDQ+o3aqxZvuinFVq95nr1G8DQd/ty9MB+2nfqQv0GjdDX1+fCubO4uGU1bp8+eZx6DRtz7vRJLl84T90GDQE4d+Y09Ro01LpeCsLVI6tXamCAP/YOjvnG5uLmTpfuvThyYD9duvfS9HbS5bhE8eXv64NCocDtFUyHoctv2LP8fH3QNzAoUHx+PvfZeeiE1ndLl/tzwybN2Ld7J2q1Gj09PaKjo7h/7w71GzXm5LGjmiELfe7dJTYmRuve8CLHmlO84vWUmZlJgJ8fDZs201perWatbCMenDl5nAN7d7F4+SpNL5o+77zH2OHvs2zpD5pRfq5evsTWTRv5/qfllK9QMds+z5w8wbEjh1jx+184OjkDUL9hEz4b/yHd+vSlXPm32L51Ey1ateXTr6Zk2x7Id70u+zh66ACnTxznh19WanrHDRo+ip5vt36hKQnsHRwxMTUlwN8PgGGjxmj9Hg0Z8QEfDBnIlr838NnXUzExNaVz9578vPh7OvfopdW7N79txX/Dvl07KF+xEs6uWXUOTVu0ZsnCeURHRmJjm1XnUK1GTbr06MX2Lf9mKw8pDLIaz374ZaWmLFW2fAV+/H4eUWMiKGVrh1qtZsnC+TRp1pLxn04CoP977zPp4zH8tvxn/jdrPgAGBoZYWVmz6JdfNfk/m5d1iZKs37xL69qt3aABc6ZNJTQ4WKtnuRDPMjUz5aNPJ7Fk4XwG9OxC3foNadqyNQ0aNck2Socuz/u/r1pOZkYGS39drZlCwN/Ph1GD39XK66/fVwPw/ZJlmmmbHJ1d+PXnJbRt31FrpAPvsuVp1Kw5a1YuZ/b3PwJZZa3fVy2nZ/93cnwBsKBlk7/Wrmb/np3MXvij1ndG1zijIyOZs2ipNNSJfA0aOpIPhgzk2pVLVKmWdb2cOHaEiLCHdOnVh9+W/ZRvHimpyaz/Y43mBcAAf3/iYmOoVLUa9Rs00qTTpTyha13VYzmVO3St+0tIiOfH7+cyaNhIeuZQbntadFQkX336MTXr1GXEh+PyPSdCiKIjtRBCFKK0tDR279tPx/btNctat8jqkbZ7377cNgMgJSWFI8eO88OSpQwe+C4WOvaSefDwAQDmZtrDxAz/cAw16jfU+hcVHQ2g1dAMUK9O1jBJQcFBee4rMCiIG7du0atHN80yPT092rZuzfWbWb0PGtSri7mZGSdPn3m0TTCBQcF8+dlnGBoacuxEVo/fq9evk5SURLPGTypX84urapXKuLu5sf/gk55Ke/btp2njRlhZyfxnRa16Te1hwWrUqsvD0FBNpeG5UycxMjDMVgnz/vBRWvPXnT5xHAV6NHvq7VALS0tq1anH3VtZ15m5uTlRkRHs2bmd1BTtXnkFcfrkCfT09OnYtbtmmb6BAQOHDs9qGLh7p0DH+Dz0DQyyNQrUqFmHqMgIlGlpWsur1aj9TDy1sbS00jSAAzi7umFrZ09oiPbwVF169Nb8X6FQMGjYSBITErh5PWt+srOnTuj0+RQkXvH6+fSj0Xw2/kPaN2vA280bsuHP35n87XTs7B00aYyeuRc7Ojnj5OSiuaYsLC2pVqMmF86d0aQ5c+I4nbr1oHLV6pw6fhTI6mV05dIF6jfWbkgpCKtH13ZmRqZOseXlRbYVb7awsIcYGhllG3K1Y8vGWv9GDnrnhfely2/YsyLCw9BXKNArQAPxxMlfZbsX63J/btS0GfFxsfjcuwvA2ZMnKFP+LXr0GcDdO7c0PaDOnz2NZ2lvnJxdCuVYc4pXvF7UajVhDx/y/eyZJCUm0rOP9ott/XIYqeDQgb3UqltPaxhJG5tSdO/dl/Nnz5CRkQHAnp3bqFq9Zo4N4Fn57KFm7TqaxmmAqtVrULKkDfdu3QKynv0uX7rApQvncnzuym+9Lvs4duQgterU0xoe1tzMnHoNGz3XcOhPs7CwJPPR+Xj290jfwIDK1arrNLToi2wrigdlWhqHDx7QmpKgUdPmABw5uF+nPBR6Crr37qv1MvHjoZNDHpW9Q4ODuHvnFm936apJo6enR9MWrbl7+5bWslbtntR/5JQXZL92q9fMKteEyrUrdNCmfUf+2LiF994fju/9+0z/ejLv9enOujWryFCpNOl0ed4/cfQwHbt21yrjepb2zjY1zqH9e2n9dgdNwzJAs1atSUxIICSH8sPAIcO5dvkSVy9fAuD44UNERUbStXvvbGl1jfWx/bt38vvK5Xw5dUa231Jd43RwdJQGcKETTy9vmrZsxe8rVwBZz4hrV66g94B3c53e6VkKhQH6+vrUa9iYeg0b06vfANp37Mzd27f46MPhpD8aPU6X8oSudVWP5VTu0LXu79TxY6Qp0+jWsw95SU5K5MtPP8bB0YlPv/gmx845QojXh/QEF6IQHTh0mMTERDb88w8HDj1pqM3MzOTX1asZOEC7MunqtevUqJ/VWy4jIwMzM1OGDR7M4IHab6Dm5XGPc18/fypXejKn3icfjychIWsYw7PnzvPziidvZiuVSk6fPce5CxeIiIwkNPTBo+XZ36B7mn9A1rCGEz+fhK3tk17tsbFxJCZmDb1sZGREk0aNOHXmLO+9M4Ajx45Rt3Yt7OxsadKoIQePHKFD+3YcP3mKalWqYGPzZL5AXeLq0rEDm7Zs4ZOPxqNSqTh45AjTvvlG5/MlXh0TUxOtSsjgkCDsnZzyrUQMCQokOSWZCWNGai0PCw3F69EICZ279cTf15clC+exZOE86tVvSLdefalcrXqBYgwOCsDB0TFbTF5eZdDT0yM0NCTPPJ89xucVHx/HuTOnuHntKgnx8Zw9nfWyiEqVnq1w/DRjExMycxie09jYRFPR+phCT7sQ4OrmgaGRkaaQHRISrNPn8yLxiqJXu259jIyM8CpTls0bN9CyTTtq162fLd2tG9e4eP4coSHBJCUmEBwUQHr6k2HOGzVtwYqfF5OhUuHv50NyYiLVa9TiYWgof6z+lbETP+P6tStkZGRQq0695443NDQUAE+vJ6Od5BdbXl5kW/HmcnZ1Iy01lfCwMBwcHTXLv1vwg+b/mzasIyToxSvidfkNe5aruwdKpZKHoSGaXn35sbCwynF5fvfntypVwaaULRfPn6VMufKcPnmMhk2aUrlqNUqWtOH0iWN06taTc2dOUf+pecNf9Fhzi1cUvS8//Qh9fX3UajWZmZlUqlqNWQsXU8rWTitdTpV7wYGBVK5aLdtyrzLlyFCpiAgPw9HJmeCgQLy9y+QaQ0hQEPfu3OajD4drLU9KTiLx0TCXI0ePZ9H82UyeMA4rK2tatGlL1x59NL3h8luvyz5Cg0OoUi378bwopVJJVGQEpZ86B6HBwZw7cwqfe3dITkri+NHDOs/r/SLbijffiWNHSE5KZMeWTZw4ql3nsP7PNXTv0++58n08+tXjsk1wUFYD9oxvvqBkqSdl//i4OJKSkrJnkEdeAOlKJZcunOfKpQtER0US9vDho+V510EI8Zi5hSU9+vanR9/++Ny7w7Z//2H1r8uIi4vVGi0tr+f9pOQkYmNi8n3eSklOIToqkhVLF3P8yJPv2eMG9+TE7MOye3iUpkWrtqz+9RfmLlrK2lUr6PPOQEzNTEmPz7m8oUvZJCkpkaUL52NiakbtetrltoLEKc9ioiAGvj+MEe8N4PLF88TFxBIbG03nAoyAaGxkRKeu3bP1pm7Ruh2ffzyGndu20LVnb53KEwWpq4Kcr3Vd6/6CAwOws3fQGukhJxvX/4mfz31mzv8h24vWQojXjzSCC1GItmzfDkC7Nm20lvsHBBIRGUlAYCAe7k/mRTU2MuKnxYsAsLezw9XFpcC9ZFxdXDA3M2P/oUN06dRRs/zp4dQjo6I0/09MTGTE6LGoMjLo9HZ76tSqRUZGBuM/+TTffZmYZDVuDRwwgPLltCs3n36QaNWyOV9N/R9KpZLDR49qzkfb1q2YMm06SqWSEydP0bb1kyHMdY2rU4cOLPllGTdu3SImJgaFnoImjRrqcKZEUTMxMSU+Li7fdI8bUYeM+BDQbuC1LlFCk2bi5K8Y/uEYjh0+xJGD+/hk3AeMm/g5Hbp0ezbLXBkbmxAXF5tteXq6ErVaTUkbG53zel4+9+/y5ScfUbFyFerUb4i9vSPOzi789ceal7rfzIwMMlQqzTHq+vkUVbyicPQdMFDTS8DY2ISN6/+kV/93cH1qGOZFc2dx+sQxOnbtTsMmzbAwt+DOTe1enQ2aNGXJwnncunGdy5cuUKdBQwyNjGjUrDk//bCA2zevc/70KarXqJWtV0VBXL5wDusSJTU91XWJLTcvsq14s3mXyXpmOXn0sFbjQNXqNTX/P3Jwv06N4PnNC6zLb1i2+B49sx3Yu5uBQ4bnmEYXutyf9fT0aNCkKRfOnaFbzz5cPH+OoaNGo1AoaNisOSePHaFlm3bcvnGdkR+OLfRjFa+fvu+8R6269TA2MsbFzR0LS91HVzI2MSEuNvtzVFpqKnp6epQo8ehl10x1no1mRsbGOLu6MWTEB9nWuTxqqHB2dWP29z8SHBTA8cOH2LdnFzu3bWHRzyvw8i6b73pd9mFiakJ8bP7PQgV15dIF1Go13uWyGqr3797JkkXzaN2uAzVq18W6REnS0tKIjIzIN68X2VYUD/t2ZdU5PDunanBQENFRkYQEBWqmq3kRxo/K/t1798erjPZLLAUdGSE5KZHJE8ajysigVZt2VKuRVdb/9svPXjhO8d/kXbY8H332BXFxsRw9fFDTCJ7f876xoREKhYKEfMq9Bgb6KBQKGjVrnmPDn6eXd47bvfv+UIYN7Mf8WdOJj4+jc9ceue5D17KJubkF7w4ZzrwZ37JuzSoGDBrywnEKkR9XNw9at3ublct+JiUpib4D3tOaKvB5VatZC0cnZ+7dvQ3oVp7Qta4qL7rW/WVmZub4ksuzeg94l41//sH876axeNlKbErlP/2pEKLoSCO4EIXkYVgYZ86dZ9a0/9GhfTutdf1796J5u7fZuWcvHwwfpllevnw5ates+WxWBaKnp8eo4cOYv+gHtu3cRecOb+eZ/vipU9y8fZtThw9i+ugBJvHRD3yaUnsoY+Uzc6uU8fZGoVAQn5CQZ9xNGjZCrVZz+OgxLl25yqxp0wBo2qgRGRmZ7Nq7l5u3b/PdtG8LHJezkyO1a9Zg/8FDREZG0b5tGwzyeUNPvB48S3sRFRnBnds3tYbwSnzmAdPL63Eli1qrgSInVtYl6Ni1Ox27dufzj0Zz9NABrUZwpSrvHp6epb2IjozMFtOFs2fR19fH2zvnXnuFaefWzTg6u/DN9NmaZSkvMMR7bgIC/GjwVK++yxcfVcg+ahzS9fN5VfGKl6/Pu++xZ+c2li35QTOvY0xMNLu2b2HG3IXUqvukB3dMTDQ3rl7V/G1jU4oKFStz4fxZzp85Ra++72iWV6pSjZPHjnL+7BnNfFvPIzgogC3/bGDsxM/Q09PTObbHlKp0rTQF2VYUL2XLV6Bew0asWbWMWvXq4+7hWeA8Hk9TExkRgWfpJxWKTw/BCQX7DXvMu0w5GjVpxvo/f6deg4aUe6tS/hvlQNf7c6Mmzflm0kROnTiGnb0Dbu6eADRt3oovPhnP0UMHsS5RkrK5DF392PMcq3j9VK1e87k/P8/SXpw4epjUlBStitEL587g7u6pWebi6saVyxdRpafn2FumtFcZAvz24uVdNt9GeFc3D/oNHEz33v3o260DZ04cx+up57Xc1uuyj9yOJzExEWtr6wKdm8fSUlNZsfRHWrfvoLl3rP/jd7p07837TzXIb/v3b/x87mfbXvVMj8CCbCuKn4jwMC5fvMDnX3+rmTv1sS7de9KvW0cOHdjHu4OHapan5zBfqi48SnuhUChITEx44Xv8uTOnuXf3Npt27td8t5IfjcCgVMp0SuL5WVpaYWmedU/X5XnfwNAQF1d3Th4/km3e7ZTkJ89MhkZGuLl5EBcTU6Dr38nFlbZvd2LX9i2MGvsxxiYmOaYraNmkddv2BPj68PuqFXh6laFhk6YvFKcQunhn8FAG9c16kePpYcRflFqtxvZRo7Eu5Qld66ryomvdn6ubOzEx0fj7+WiV+Z5lamLGlJlzGDdyCN9+NYl5i5ZqTUkghHi9yMRsQhSSbTt2YmxsTItmTbOtK1GiBPXq1Gbn7j0vZd8DB/SnUYMGfDllKl99+z8uXrpMXHw8cfHxXLpyhT/WrUehUKCvUGBqYkpmZibbd+0mKTmZ+PgEflqeNc+LsdGTYYydnByJiYnh6PETQNbbcKVsbOjTswcrV69h6/YdqFQqMjMzue/jQ2DQk/m+zMxMaVCvLnMWfM9bFcpjZ5f1cGNqakqTRg2ZPmsO7m5ueHo86Xmoa1wAnTt2ZNeePRw8coTOHTq8lHMqCl/jps1xcnFlzvRvuXvrBhkqFTevX2XdmlUkJSZo0jVs2gwv77IsmDWDG9euoFarSVcquXn9qibd9SuXOXfmlKagGhToj7+fn9bcpQ6Ojlw+f56I8LBchyxv3LQ5Lm7uT2LKyODG1Sv8/ONCOnfviY1t4bzNmaFSka5UZvsHWW+1BgcGcOXSRTJUKh4+CGXm1C8LZb9P+23ZT1x9VAF9+8Z1Fi+YQ/NWbTQ9RXT9fF5VvOLlMzcz570hIzh76iQXzp0FskYoUSgUHD9yiOjISNKVSo4eOgBA+YraDWKNmjZjz85t+Pv5Uqf+k6H5mjRvydZNfxPg70v9ho0LFFNGRgZBgf5s3riBccOH0KBxU9q071ig2BwcnQA4sHsXmZmZZGZmFui4RPE0/pNJWFlZM2b4YNatWcX9u3dITUkhOjKS0yeOc+LoYQwfNc4ZPuolFBLy5NnGwckZWzt7/vhtpWaO7TMnT3D8yGHUT/Va0OU3LCejJ3yKra0dH48ZxW/Lf+burRukpqQQHx/H1cuXOHPyeL7HqOv9uVqNmpiYmLBsyQ80atJMs7xKtepYWlqy9IcF1G/UWGv465zOyfMeqyg+evYZQGJiIt/972vCwx6iVCrZu2sHu3dsZdDwUZp0nXv0JCoygoXzZpGUnNUjPDIinAB/XwB6938XlUrFjClfaoZITkpM4MrFC5o8jhzYz91bN1Clp5ORkcGlC+dJTUnB8dGzX37rddlHj979SIiP57v/fU3Yw4ekpaZyaP9ebly9ku8oEM+KCA/j+JHDjBoyELU6kxGjx2nWmZiacPnSBQL8fcnMzOT2jeucOn4Mo2cqT+0dnTh2+CApySmaZ1ldtxXF04E9uzAyNqZBo+zTVVhZl6B6zVoc2r9Xs8zO0ZG42BjOnsqaGqMg0ziVLGlDx67d2fDn7+zfvZOMR2V/fz8fQp+a61sXJo/K+gf37SE5JZnEhAR+/y1rujYjI5lKSeQtKjKCeTO+5eihAwQHBZCclEjYwwf8vW4t+/fs4u1HL8Hr+rzfe8C7nD11kjUrl5OYkEBsTAyrlv2Ubb8Dhwzn6uVL/LJkEckpyUDWvf3O7bxHkho4dDgfffZFniPUPU/Z5P0RH1C7Xn3mzpyKv6/PC8cpipe86pwKkuZpDo5OTJu9gAVLfimUae/iYmNY/esyYqKjaNYqa8RQXcoTutZV5UXXur8mLVtRomRJFnw3gwehIUDWCzI3r2d/OcXB0ZGv/zeT+3fvsGj+7GzrhRCvD+k+KUQh2bJ9O62aN9f0Yn5Wu9atmTpjJjdv3abiWxUKdd8KhYKli75n87btLPt1JVu379CsMzYyonnTpkyb8jUlSpSgSaOGdGzfnmnfzWLG7DlZsbVpjfEzFSdtW7Xin3+3MObjCViYmzN61Eje6deXiePHYWJiwtQZM/l25ncYGRqSplQy7sMPtOYyb9WiBUeOHWdA3z7Z8t1/8FC2lwV0jQugTauWfPO/aTg7OVKl8vP1lhKvnr6BAf+bNZeZU79m3KhhKBQKStnaUad+A25ev/4knb4+/5s9j8UL5jJxzCjMTM1QqtIxMjJm6sw5VK1eg3t377B25XKSkpMwMjZGmZZG5WrVGTz8yTxCvfu/y/mzZxjUtwdGxsYsWPILjo8ax56Oadqs+cyaPlUTk56eHl179WHI8OzDZT6vjev/ZOP6P7WWWVmXYMPWXfTu/y6XL5zn84+yhqM1NjGmSYuWHDmwv9D2D1lDoX3+0Rj09PRQq9W0bN2OMROeDEGY2+fTqVtPrcq0VxWveDXad+rCln/+ZtnihSxd9Ttm5haMHPMRK37+kV3bt6BQKHirUhXc3D2zjbrRsEkzli9dTPWatTEzt9Asb9y0OUsXzcfZ1VXnF0m6tmuBnp6epnLWycWV8Z9OplmrJ0N96hqbrZ09vfu/y4Y/f2f7v/9Qo3Ydvp4+S+fjEsWTTSlbfvntT9b+9iv//r2e1b8u06yzsLSkQ1eawwcAACAASURBVOdu9B6Q9RxjaGREs5atWbF0MVv/+ZsVa9djZGTEZ19N5bupX/FOzy4oFArc3DyoVqMmejxpLNblNyzH+GxK8fOqtaxeuYwdW/7lr7WrNeusrKzp0KUb9fJ5qUTX+7O+vj71GjbmwJ5dWo3gCoWChk2asXPrZho00n5Oy+2cPM+xiuLD2dWVb2fOZf6s6bzXpzsKhQITUzM++mSSppcawFuVqjBh0lf8vGgBB/bswtzCgtTUVAYPG4mHpxcOjo7MnLeQRXNnM6hvdywtrUhMTMDewYGlv67B3MKSkyeOcPzwITIzMzE0NESlUtGhc1eaPRoSOr/1uuzDxc2db6bPYv530xnUN+t4ypQtr3Usefn68wma56zMzExKlCxJxy7d6T9wsFYP+JGjxzN9yheMHPQOCoUCO3t7atSqk22oz6EjRzN35rf07fY2FuYWrP1nq87biuJp7+4dNGrcLNchaZu2aM3Cud9x785typavQNNmLdm9bSvfTJqIuZk5A4eOoFuvPjlum5PhH4zF2NiE7+d+x8J5szAyMCQtXcn7w0fRq987OudTp34DWrZuxw/zZ/Pj93OzYm3ZSl7eEDpJS00lM1PNwtkzNY28kPWixojR4zXXtK5lhTbtOxAVEc7a335l3ZpVGBga0rhp82wjlTRu3oIJk75ixdLFbP57PRYWliQkxNOgcROmzJiTa7w2NqVo37FznsdUkDLXYwqFgklTpvHRyGFM/eIzfli2Eisr6+eOUxQvedU5FSTNs+rUb/DcMf29bi3//v0XkPWye0ZGBp6lvZkyYw6lvbN6gOtSdtK1riovutb9mZuZM3XGHObM/Jb3+/fCwtKS5KQk6jVslOP3qXK16oz5+BMWzZ2Fl1cZevTt/9znSwjx8uipC/pKsxAiG5VKxeWrV/Fwc9f0en5WSkoKN27dwt3NDXs7O3z9/FEq06hQvnyeeeua7mlJyckEBARibW2Fk6NjjvOMh4WHExEZiZurK9ZWVty774OdnS0lnhrqT61W4+vvjx56eHq4a+WjVCoJCAwiIzMDVxcXLMzNczzecmXKYmX1ZMjBNKWSa9ev4+VZGhubks8VF8DbXbvTpVNHreHlxfPbefAEjm7uOLq45Jv21o1rlLQphaOTM5DVo+D61ct4enljZfXkc4qNiSEwwC/HIY3CHj4kQ5WOs6sbv69czvEjh/ll9R/Z0iUlJxESFIiJiSnOzi5aBVNVejphDx+QEB9PKTs7zZzBT1MqlQT6+2FdogR29g65xgoQHRVJTHQUbh6ls1XIPM8xPn2+chqG0MDAgIqVq2ryDwkORKlU4ubmgZGxMdevXKZilaooFIpc9x8ZEU7YwwdUqlJNK+87t29iZWWNk7MLmZmZ3Lx2lcrVqhMdGUlEZDiu7h6Ym2l/Z5/29OeToVJx+9YNrX3kF694/URHRRIcFEiVajW0endC1ucd9jCUMuUrYGZqBkBiQgIhIUGUKmWLrZ09EeFhqNLTcXJx1dr2xrUrlLK109wPHrt94zqWVlb5zkn5OK7HTExNtYbQzYmusUWEhxEXG4u755PvtK7biuIvJiaa8LCH2Ds4UrKkTbb1arUaP9/7WFpaaf2+pCuVBAb6U7KEDTa2tsTHxxEdGZnjnIt5/YblJzoykojwMKxLlsTe4cmzXF6/Y4/X63J/joqMICQ4KNs9ITo6iuDAACpWqpIt3tzOSV7Hml+8L9uD4GDCgoPp0LLhK993YTt14SoqPQO8KxTOy7TKtDRu37qR7xDk8fFx+Pv6ULlq9Vx/49VqNQ9CglFlZODq5p5rugyViuDgQFQqFY7OLjk+i0RHRxHx8CFWJUrg6OSsdX0mpyQT/uABaco0nJxdsl1T+a3XZR+Qdd0GBfpjbV2SEiVLEhcbQ2xsDB6eXjnm9/hcPmZgYICrmztW1iVyTA9Zz6hBAX6YmJji5OJKaloqIYGBlC2v/fkmJiQQGhqMs7Or5nPSdVtRvGSoVNy4fhVXV/dcXzJMTUnh7p1buLi6UcrWDsj6fgYGZpXpH38/7925jYWFhdbzjyo9nZs3ruFdpizmFtr3hHSlkpDgrLL/s9/dguQVGRFOVFQkzi6uWFpa4e/rg42tbZH8PrwMvrdvo6/OoEGtKkUdygsrSP3Aq5KZmUlEeDix0VGUsCmFnb19jr83uj7vK9PSCAr0x8XVHUMjIzq3bsoXU6bTuHmLbPsNexBKQnwctg6O2NiU0qyLjorkQUgIlapql8eflZGRwY1rV7L95uYX64OQYBITE7Xu74+f1ZycXbSex/KKM6d8RPGhS52Trmns7B2wtbPPc3+hwcGkpCThXTb3eupn92dsZIydo/Z1+Sxdyk551VXpWu7Iq+7vMbVaTXjYQ+JiorW+T7nt4/aN62RkZOR7LyhMV8+fx8PJjrfKln5l+xTiDTVbGsGFEG+cS1euMGjYCLZu3KA1pLp4fvuPncWqlC2unp6vfN9TJn+Ciakpk7+Z9sr3LYQQQojiK8jPn4SYSFo3rlvUobywC1dvkZCipFyVN79xRQghiqM7165hZWpErapvFXUoL6wo6weKwr07txk74n2W/74ON3fPog5HCCHydfHUKd4q44G3h7zQL0Q+Zkt3LSHEG2fL9h28VaG8NIAXIisLM1KSkl76fu7fvcPdO7fIyMggXalk9/atnD9zmr7vvPfS9y2EEEKI/5aU5ESszHMf+eRNYmlhRkpycv4JhRBCFImUpCQsLcyKOoxC8arqB4rK0UMHiI/PmkbiQWgISxbNp3HzFtIALoR4I6Snp5OuVGJpXjx+c4R42WQSRCHEGyUtLY29+/YzYuiQog6lWLEpYc3t+wGo1epsQ0IWputXr/DrL0vIUKkAsLK25utps/DyLvvS9imEEEKI/x61Wk1iXDyu3sXjpUmbEtbcuONLWkoKxnlMGSGEEOLVS0tJIS0tDZsSxWNo91dVP1AUkpMSWfPrcmZO/QpDIyPSlUqatWzNuImfFXVoQgihk/iYWPT09ChpbVXUoQjxRpBGcCHEG0WVkcEPC+ZRoVy5og6lWHG0L8W12/eJj43FumT2udoLS7defWjXoTOhIYGaeQxlDmkhhBBCFLb42FjS09NxtM997sE3iU1JawwNDYiKjMTZza2owxFCCPGUqMgIjAwNKVWyeDSCv6r6gaJgZm7BirV/8fBBKHFxsbi5uWNmblHUYQkhhM5iIsM1ZQMhRP6k5UEI8UYxNzOjds2aWFhIIaUwWZibUaqkNWGhIS99X6ZmpniXLY+Lm7s0gAshhBDipQgLDaFUSWssiskwgQo9PdxdHAkPDUWtVhd1OEIIIR5Rq9WEhz7AzcWh2PSafpX1A0XF0cmZ8hUqSgO4EOKNokxLIyYyCk9Xp6IORYg3hrQ+CCGEAKCctwcxkVHEx8YWdShCCCGEEM8tPjaWmMgoyhWTodAfK+PphkqpJCyk+DZKCCHEmyYsJASVUkkZz+I1SofUDwghxOsnyNcXE1MTXJ3sizoUId4Y0gguhBACAEe7UjjalSLg3n3pYSSEEEKIN5JarSbwvg/2tjY42hWPodAfMzM1oayXO8EBASiVyqIORwgh/vPS05WEBAZQ1ssdM1OTog6nUEn9gBBCvF4S4+OIDA+naoUyMrKmEAUg3xYhhBAaVd4qQ2pqCqGBgUUdihBCCCFEgYUGBpKSkky1imWLOpSXopyXO0YG+vjfuyuNEkIIUYTUajV+d+9iqK9POS/3og7npZD6ASGEeD1kZKjwvXsPe1sbnBxsizocId4o0gguhBBCw8LcjOqVyhHs709keHhRhyOEEEIIobPoiEiC/f2p+laZYjMX+LP09fWpU70ScdExBPv5FXU4QgjxnxXk50dcdAy1q1VEX1+/qMN5KaR+QAghip5arcbn1i3UqnRqVqlQ1OEI8caRRnAhhBBaPFydKOPpht/dOzL/lxBCCCHeCPGxsfjcuUUZTzdKu7sUdTgvVamS1tSsUoHQoCDCQkKLOhwhhPjPCQsJ5UFQEDWrVMDWpkRRh/NSSf2AEEIUHbVajf+9u8THxtGgVlVMTYyLOiQh3jgGRR2AEEKI10/lCt6kpqVx59o1PMuWxc7RsahDEkIIIYTIUcTDh/jfu4ezgy2VK3gXdTivhJuzAympqdy4c4+01FTcvEqjp6dX1GEJIUSxplarCfL140FwEJXKe+Hm7FDUIb0SUj8ghBCvXkZGBj43bxIfF0vd6pUoYW1Z1CEJ8UbSU8tEYkIIIXJx864vd3wCcHJ1xdXTE0UxHeZNCCGEEG+ezIwMgv39eRAcTHlvDyqW8yrqkF65oNAwLl27jVXJEpQuVw5DI+kdIoQQL0O6Mg2/u3eJj4mlRpUK/5kG8KdJ/YAQQrwayUmJ+N66Q4ZKSf2aVShZwqqoQxLiTTVbGsGFEELkKSg0jCs376JQ6OPq5YWtvX1RhySEEEKI/7jI8HCCfX3JzMygWsVy/8nGiMeiY+M4e/kmSmU6zh7uOLm4oqeQmc+EEKIwqDMzeRASTGhAIEZGhtStXhGbEtZFHVaRkfoBIYR4eVSqdIL8/Il48ICS1lbUqV4RM1OTog5LiDeZNIILIYTIX5oynZt3fQkIfoCpqRm2To7Y2NpibCIPYkIIIYR4NdJSU4mOjCTywUNSUpLxcHWiYjkvjI0Mizq0IpeRmcl9vyDu+ASgr2+A3aNnNTMLi6IOTQgh3kjJiYlER0YS8eAhGRkqynt7UKa0G/rykpHUDwghRCFSq9UkxMURFRFBVHgYhvr6VCrvjbuLTD0hRCGQRnAhhBC6i0tIxDcgmOAHEahUKoyMjDAxM8XAwBBkHkohhBBCFDa1GpVKRWpyMkqlEkMDA1yc7PHycMHaUhp4n5WSmoZvYAgBwQ9JS0vDwNAAUzNzDAwMpHe4EELkQ52ZiUqlIiU5CVW6CmNjYzxcHfFyd8HURKabeJbUDwghxPNTZ2SQnp5OcnISmRmZWFqY4+nmhKerMwYGMt2EEIVEGsGFEEIUXKZaTXRMHDFxCSQlp5Ceno78mgghhBCisOnpgaGhIeZmJpS0tsKmpDUKqVjXSWxcAjFx8cQnJpOenk5mpjysCSFEXhQKPQwNDbG0MMPG2ooS1pZFHdIbQeoHhBCi4PT1FRgZGWJlYY6tTQnMzUyLOiQhiiNpBBdCCCGEEEIIIYQQQgghhBBCCFFszJbx0IQQQgghhBBCCCGEEEIIIYQQQhQb0gguhBBCCCGEEEIIIYQQQgghhBCi2JBGcCGEEEIIIYQQQgghhBBCCCGEEMWGNIILIYQQQgghhBBCCCGEEEIIIYQoNqQRXAghhBBCCCGEEEIIIYQQQgghRLEhjeBCCCGEEEIIIYQQQgghhBBCCCGKDWkEF0IIIYQQQgghhBBCCCGEEEIIUWxII7gQQgghhBBCCCGEEEIIIYQQQohiQxrBhRBCCCGEEEIIIYQQQgghhBBCFBvSCC6EEEIIIYQQQgghhBBCCCGEEKLYkEZwIYQQQgghhBBCCCGEEEIIIYQQxYY0ggshhBBCCCGEEEIIIYQQQgghhCg2pBFcCCGEEEIIIYQQQgghhBBCCCFEsSGN4EIIIYQQQgghhBBCCCGEEEIIIYoNaQQXQgghhBBCCCGEEEIIIYQQQghRbEgjuBBCCCGEEEIIIYQQQgghhBBCiGJDGsGFEEIIIYQQQgghhBBCCCGEEEIUG9IILoQQQgghhBBCCCGEEEIIIYQQotiQRnAhhBBCCCHEf9r0WbOpWqdeUYchCtnL/FyTk1MICAx8KXkXpfCICKrWqcfylauKOpT/rIJct8X1OhRCCCGEEEKIwmBQ1AEIIYQQQgghXk8+fn78tmYtN27dIiQ0FGNjYxzt7alftw5du3TGu3Tpog6x2Pvr743MnDNXa5mlpSVenp54lfakV/fuVKlcqWiC08HDsDDad+lGZmYmX3z2Kf169yrqkArF8NGjuXb9BmtX/krVKpWLOpwiExQczOo//uT8hQuEhYWTqVbjYG+PV2lP2rZqRcvmzTAxMXll8eh6vT3+Xq385Sdq16xZaPm+anIdCiGEEEIIIUTupCe4EEIIIYQQIpt9Bw7Ss98Azp4/T51aNRk2eBA9unbB09ODrTt3ct/Hp6hD/E/p06snE8ePY8L4cfTo2gVLS0v2HTjIwKHDmDF7Lmlpac+V7737PvR5ZyAHDh8u3IAf2bZjJwqFAgsLC3bu3vNS9vGy5HVuypcti6ODA6VK2bz6wF4DKpWKFb+tpke/ARw6cgRPDw/69u7FgL59qFqlMgGBQXwxZSoJCYmvNK6Xdb29rtdxTtfhy/5OP+1V7ksIIYQQQgghCkp6ggshhBBCCCG0JCUn88WUqdSoVo1lSxZjaGiotV6tVqNWq4souv+m9m1aZ+uxGhERyf++m8X6jRsxNTVhwrixBc43NTWV23fvEhcXX1ihatm6YyeNGzbAwd6BDf/8Q+iDhzg7Ob6UfRW2vM7NN19MLoKIXh8/LP2J3/9cx7D3BzPs/cEYGxllSxMXH4+1ldUrjetlXW+v63Wc03X4sr/TRbUvIYQQQgghhCgo6QkuhBBCCCGE0HLt+nXS0tJ4u13bbA3gAHp6eigUUpQoanZ2tiyaN4dyZcvw+5/ruHPvXlGHpOXKtWsEBAbSoX072rVphVqtZvfevUUdlnhB12/cYM0ff/L+ewMZPXJEjg3gwCtvAH9Z15tcx0IIIYQQQgjxZpKe4EIIIYQQQggtpqamQFbjT5+ePXTaJi4+nh+WLOX8xUtERETg7eXFoIHv0LpFC61002fN5s7de8ybNZPFP/3MqTNnMDQwZPOGvxgweAhR0dEc3LUDfX19re0mfD6Jy1eusn/ndk0DfGHsM7/5inXdR2pqKmvX/cXOPXsJfRCKQk+Bi7Mz7/TvR7fOnXROU1AKhYIJ48Yxauw49uzbT/myZVGr1Rw/eYot27dz+85dwsLDsS1Vito1azLmg5E42NsD8OPPv7Ds15UATJ0+g6nTZwBw/sQxDA0NdcojL1u378DczIwWTZtiaGiIbalS7NqzlyGD3suWdvqs2YSEPmDo4Pf4868NXL1+HVWGiprVqzNx/DhcnJ0BdD623HTv04+YuFgO7tqZ7UWOiZMmc+HSJQ7s3MFPy1fkem6MjIyYPms2G/7ZxNVzZ7TySE9PZ8Wq3zh28hQ+vr5YWVpSs0Z1xo8ejbOTY4GvgYIcr67n8LGEhAQWLf2J8xcuEPrgIaU9PejSsWOe5w9g0ZKfKFHCmpHDhuab9lkF+c4W5FigYNdbQRT0Os7vXpPfNfLYtes3WP3HH1y5eo10VXqOx/7sdZjXd9ro0csKun4G+cW6acuWPPc1dNQHREZFs+Xv9Vp57ti9m8lfT9Gaj12X81aQuIUQQgghhBACpBFcCCGEEEII8YyKFSrg4e7Oth07Qa2mb69eVKlcCT09vRzTR0RE0n/QYIyMjOjaqSMWFhYcO3mSCZ9NYtInExnQt49W+ivXrjFk5AdYW1nRukULDAwMMDExoVvnTsxbuIiz5y/QoF5dTfqk5GSOHT9B/759NA2XhbXPvBRkH59M/oJTZ87SplVLunfpTEJCAvfu+6B46pzpkuZ51KxeDT09Pfz8/IGsnvrfL/4RRwcHWrVojrmZGb7+/uzcs4dLV66w8c+1mJiY0K51a5KTk1m77i/q161Lj25dADAwMNA5j9wolUp279tPyxbNMTY2BqB1yxb89fdGfP388SrtmW2bE6dOce3GdZo1acK7A/oTHBzMv1u3cf3GTf7d8BfmZmYvHFfnjh1Y+OMSLly6TJ1aT4aXT01N5diJk/Tq3g19ff08z01uUlNTGTxiJD4+vnTq0IH2bVoTGxvLyTNnMDTM2q6g10BBj1eXcwgQHR1D/0GDiY2Lo0vHjjg62HP1+nVmz1+Q6/FB1ud68fJl6taunWsP8NwU9Dur67E8jqug15suniffvO41ulwjj304/iMaN2zIO/375XnsT8vvui3IZ5BfrM/zHclLXuetoNeOEEIIIYQQQoA0ggshhBBCCCGeYWhoyC8/Lub7Hxazc89etu3chaODA506vE3fXj2z9badu3AhmZmZbFi7BgsLCwDe6deXz774ioU/LqFX926aXoiPtW/bhrEfjNJa1untt1n44xL27Nun1Qh+8PAR0pRKunZ60ku1sPaZF133ERERydHjJxg5bCijR47IMS9d0jwvExMT7O3s8PX31yz7Z90f2V5aqFenDlOmTefE6dO0at6csmW8ebttW9au+4v2bdvQvk0brfS65JGbQ0ePkpCQQMd27TTL2rVpzV9/b2TX3r25noO//1iLk+OT3rCVK1Xim/9NY8++/fTo2uWF4+r4dnt+WPoT+w8e1GoEP3r8BKmpqXTu0AEg33OTkxW/rebO3Xv8sWolFd+qoFk+bvSHwPNfAwU9Xl3O4eKffiYyKoq/1qymbBlvTdo1f/zJvIWLco0lMiqa9PR0PD3cs63bf/AQYeHhWsusLC3p3DHrnD7Pd1aXY4Hnv97y87z55navye8aedrqFcu1GtlzO/an5XfdFuQzyC9WO1vbAn9H8pPbeXuea0cIIYQQQgghZCI/IYQQQgghRDbOTo7M/W4Gu7duZtj7g1Eo9Fix6jfad+nGZ198RWJiIgAqlYr9Bw/xdru2msaJx9q3bUNqaio+vn7Z8h8zamS2ZTY2JWnSqCH7Dx1CpVJplu/a8//27jzKy7rQ4/iHLQYI8KIwmBsC7iAtioprXDdQXMJQ8Vi2HdNSS03LzLrpvWmb5n5v1s00Nb3lBgIOW4iAGmlE7piUuYQmonbuIDH3D3TujMz2G2by9PX1OsdzcH7f5/k+z+/5zo/jefs8v7szYqedMmzo0A6fszmVzNHjPT3SpUuXLFi0KM+/8EKT+2vLmA3V8BHyTd21v9uuuyRJli//Y5v2tyH7uP3OqRkw4F+ye4P/meEDo0Zl4CabZNqMGc1u1zB4Jsl+++ydJPlDg8C/IcdVPWhQRu+yS2bOmZO6urr6n8+YOTPDtt46O2y/XYvbt+SmW27JAWPHNgqGDbV3DVR6vq29h2vXrs2UadNy6LiDGwXwZN3abslbdyuvevXV9V678eabc9H3vt/on2t+cm2S9v/OtmU9JO1fb61p736b+6xpbY009Pa7zJs797aq9BpUcqwdpan3rb1rBwAAwJ3gAABAs6oHDcqpJ5+UU076bB5asiRX//CaTK+pSe3q2vzgu9/JH//0TNasWZPrbrgx191wY5P7WP3G6vV+1tyj1Y+YMCFzfjUvC++7P3vvOSYrX3klC++7L18584z6MR09Z1MqmWOj/v1zyskn5eofXpODJhye7bfbNgeMHZsjDz8sGw8Y0OYx7VVbW5u/rFiR7bbdpv5ndXV1qZk1O/MXLMjvfv9wVr26KitWvJgk+fvf/96m/bZ3Hy++9FLmL1iQJLnx5lsavbbixXXbL3344YzYccdWj6Ff375J1j2WuqPObcIh4/PVr38jS5YuzaiRI+sfhX7ipz7Z6rbNefGll7Jq1avrReWG2rsGNvR83/4ePv/CC6mtrc2222zT0mZNGrjJJunfr1+eaiI6/ujqqxr9+6Tjjk/tm3O293f27ZpaDx253hrakP029VnTljXSkqbOvRKVXIMNPdb2aup966i1AwAAvPuI4AAAQKu6dOmSD4walasu/UGOmHRM5i9YmNWrV6dPn3XfTbvbrrvmi6d8vslthw3dus3z7LPXntl4wIBMr6nJ3nuOSc2s2enWrVsOPvDA+jEdPWdTKp3j0yd8PB/9yJGZcte0zJozN1f853/lqh9ek9M+d3I+dtzkNo9pj4eWLEldXV12H/3/d6uedc65mTNvXo4+amJO+9zJGTy4Oq+99lo+eeJJbd5ve/cxZdr0+j839x3T02bcXXGU3NDjesv+H94vF1zYKzNnz8mokSMzb/69qa2tzSHjDm7X8STJypUrk6y7y7ol7VkDHXEtG3oror7xxhvt2n74sGFZsnRp/vTMM9li883btE1n/s521nrr6P22dY10lkquwTt9rA39Iz7vAQCAMongAABAm3Xt2jXbDB+WPz3zTNauXZvqQYPSu3evrHp1VYc8Nrdbt245dPy4/OK227N69epMv/vujN133/Tr17d+TEfP2ZT2zNG/X78cd8zROe6Yo/PSX/+ak0/7Qi65/IocfdTE9OzZs81jKlFXV5eLL7s879t0cCYecXiS5OnlyzNj5sx8+cwzMvnoSfVj/7JiRZLkz88+2+p+N2Qfd0yZmi023zxTb/3Feq+tXbs2Bxw6IdNranLGaaema9fKvqGrI86tV69e2f/D+6Vm1uyccdqpmTFzZnb90AczuLq6omNpaPPNNkuXLl3yxLJlrY6tZA10xPk2dazdunXLkt8trXjbJDl+8rH5wpfOyr9/+zu5+tLmvz+8oc78ne2s9dbR+61kjXSGSq5BRxxrjx496r82Y0P8Iz7vAQCAMvlOcAAAoJHX//a3PPFk0/HjqT88nYX33Z+dR45IVVVVkuTIww7LI48+llt+eWuHzH/EhEPz2muv5bY7p2Txgw/l8AmHrDemQ+d88xG8tW97zHAlczT8fukk2XjAgOw+enTWrFmT/62tbfOYSqx85ZWcdc65efiRR3Pul89Or169kiQvv7zuLs6G36ueJE8ueypJ4+9Z7t2715uvNb7eleyjoUcefSxPLluWQw4+qMnXu3btmgPGjs2KFS9m8YMPtX6Sb1PRcTVzXZN1j0R/9rnnsvjBB3PPvQty6Pjx641p7r1pSlVVVXYeMSIzZ8/JY0880ey4StdAe69DS7p37559994rs+bOzX0PPNDotQcWL251+7H77ZsD9//XLFi4KKecfmb9o8Ebql29Os8+/1yjn3X050TSeeutM/bb1jWyoVpat229Bm09sYC/3gAADNFJREFU1pbmGrLVVlnx4ot55NHHGv38V/fMb/Uc2nvcAAAADbkTHAAAaOSu6TNy/rcuzPs23TQ7jxyRTQcPTo8ePfL08uWZO++e9Kqqyvnnfa1+/Oc+e2IW3ndfzv/WhXng14uz2+hdUlVVlcefeDKrV6/O2WecXtH8w4YOzYgdd8wFF16UgQM3yR677bbemI6cc6sttkiSXHLZ5Rmz++7Ze88xFc3x7HPPZ/IJJ2SvMWMyfOjQ9OnTJ488+mjuvGta9tlrz/Tv169NY1pSM2t2Hnt8XYx6eeXKLFv2VBY/+GC6duuab//HBdlrzJj6sTtsv10GV1fnsiuvytLfP5yRI3bK08uX1wekhnetbrXllhlcXZ3b7rgzffv2TfWgQdl7zJiK9tHQHVOnJknGHXRgk68nyUH7758bfn5zps2YkV0/9MEWz/vtKjq3Zq5rkozeZZcMGjgw533zgtTV1WX/sR9eb67m3puBAzdp8tjOPvP0fOIzJ+bjn/5MJk+alOHDhuWvL7+cefPvzTfPOzdr19ZVvAbaex1ac/qpp+TXv/lNPnvKaZkwflyGDxuWx598MndMmdqm7b9x7lfTr2/f/OK223P4UZOy88gR2Xb48LynZ8888+c/Z8HCRVm16tUcf+yx9dt09OdE0nnrrbP229oa2ZCnEbylpXVbyTVoy7G2NNekiRNzyy9vzYmfPyWTjpqYPr1758Hf/jZz591T8Tl1xtoBAADKJ4IDAACNHHnYhAwaODAzambmsScez/wFC9O1a5dsvtlm+djkY/Ox4yZno402qh//3j598vPrr8uP/vsnmb9wUeZdfEl69qzKkK22zOGHrH8Xd1sccdiELH344UwYP77J0NeRcx515BF5YPHi3HrHHfntkt9lj91Gp3v37m2eo2fP9+ToiRNzz70Lcs+9C/K3119PdXV1jj/2mHzqEye0eUxLbrz5lvo/D66uzjbDh+WjEz+S4ycfm4369280tqqqKlddekm+e8mluXfRoty/+NfZaYcdcsNPfpyv/dv5jcZ27949l138vVz4ne/l2uuvT/Wg6mw6eHD22G10m/fxljVr1mTq9BnZcYfts/WQIc2ey/tH7ZyBAzdJzazZOeesL6V797b/Z2kl59bcdU3WxeNDx4/Lj6/9aQ4+8IC8t0+f9eZq7r1pLoKP2HHH/Pz663LplVdmyrTpWfnKKxk0cGD23GP3dOvWLT16dK14DVRyvpXYcostcsvPrs/Fl16eRfc/kJpZszNyxIjc9NNr85Xzvt7q9u/t0yfnnfOVHDLu4Nx517Q8uWxZ/ufW29K7d+8MGbJVjphwaI6fPLnRe9XRnxOdtd46cx23tkY6QkvrtpJr0JZjbWmuoVsPyTVXXpFLLr8iP7vxpgyurs4H3j8qN/302hz3iU9WdE6d8XcMAABQvi51b38eGwAAABRu1ty5+eKXzs7lF38/++y15zt9OAAAAEDHuch3ggMAAPCuUzNrdvr365cxu6//uH0AAADgn5sIDgAAwLvKa6+/nllz5mb/sWMrehw7AAAA8M9BBAcAAOBd5e6amamtrc24Aw94pw8FAAAA6AQiOAAAAO8qt0+Zmo0HDMguH/rgO30oAAAAQCfoUldXV/dOHwQAAAAAAAAAdICL3AkOAAAAAAAAQDFEcAAAAAAAAACKIYIDAAAAAAAAUAwRHAAAAAAAAIBiiOAAAAAAAAAAFEMEBwAAAAAAAKAYIjgAAAAAAAAAxRDBAQAAAAAAACiGCA4AAAAAAABAMURwAAAAAAAAAIohggMAAAAAAABQDBEcAAAAAAAAgGKI4AAAAAAAAAAUQwQHAAAAAAAAoBgiOAAAAAAAAADFEMEBAAAAAAAAKIYIDgAAAAAAAEAxRHAAAAAAAAAAiiGCAwAAAAAAAFAMERwAAAAAAACAYojgAAAAAAAAABRDBAcAAAAAAACgGCI4AAAAAAAAAMUQwQEAAAAAAAAohggOAAAAAAAAQDFEcAAAAAAAAACKIYIDAAAAAAAAUAwRHAAAAAAAAIBiiOAAAAAAAAAAFEMEBwAAAAAAAKAYIjgAAAAAAAAAxRDBAQAAAAAAACiGCA4AAAAAAABAMURwAAAAAAAAAIohggMAAAAAAABQDBEcAAAAAAAAgGKI4AAAAAAAAAAUQwQHAAAAAAAAoBgiOAAAAAAAAADFEMEBAAAAAAAAKIYIDgAAAAAAAEAxRHAAAAAAAAAAiiGCAwAAAAAAAFAMERwAAAAAAACAYojgAAAAAAAAABRDBAcAAAAAAACgGCI4AAAAAAAAAMUQwQEAAAAAAAAohggOAAAAAAAAQDFEcAAAAAAAAACKIYIDAAAAAAAAUAwRHAAAAAAAAIBiiOAAAAAAAAAAFEMEBwAAAAAAAKAYIjgAAAAAAAAAxRDBAQAAAAAAACiGCA4AAAAAAABAMURwAAAAAAAAAIohggMAAAAAAABQDBEcAAAAAAAAgGKI4AAAAAAAAAAUQwQHAAAAAAAAoBgiOAAAAAAAAADFEMEBAAAAAAAAKIYIDgAAAAAAAEAxRHAAAAAAAAAAiiGCAwAAAAAAAFAMERwAAAAAAACAYojgAAAAAAAAABRDBAcAAAAAAACgGCI4AAAAAAAAAMUQwQEAAAAAAAAohggOAAAAAAAAQDFEcAAAAAAAAACKIYIDAAAAAAAAUAwRHAAAAAAAAIBiiOAAAAAAAAAAFEMEBwAAAAAAAKAYIjgAAAAAAAAAxRDBAQAAAAAAACiGCA4AAAAAAABAMURwAAAAAAAAAIohggMAAAAAAABQDBEcAAAAAAAAgGKI4AAAAAAAAAAUQwQHAAAAAAAAoBgiOAAAAAAAAADFEMEBAAAAAAAAKIYIDgAAAAAAAEAxRHAAAAAAAAAAiiGCAwAAAAAAAFAMERwAAAAAAACAYojgAAAAAAAAABRDBAcAAAAAAACgGCI4AAAAAAAAAMUQwQEAAAAAAAAohggOAAAAAAAAQDFEcAAAAAAAAACKIYIDAAAAAAAAUAwRHAAAAAAAAIBiiOAAAAAAAAAAFEMEBwAAAAAAAKAYIjgAAAAAAAAAxRDBAQAAAAAAACiGCA4AAAAAAABAMURwAAAAAAAAAIohggMAAAAAAABQDBEcAAAAAAAAgGKI4AAAAAAAAAAUQwQHAAAAAAAAoBgiOAAAAAAAAADFEMEBAAAAAAAAKIYIDgAAAAAAAEAxRHAAAAAAAAAAiiGCAwAAAAAAAFAMERwAAAAAAACAYojgAAAAAAAAABRDBAcAAAAAAACgGCI4AAAAAAAAAMUQwQEAAAAAAAAohggOAAAAAAAAQDFEcAAAAAAAAACKIYIDAAAAAAAAUAwRHAAAAAAAAIBiiOAAAAAAAAAAFEMEBwAAAAAAAKAYIjgAAAAAAAAAxRDBAQAAAAAAACiGCA4AAAAAAABAMURwAAAAAAAAAIohggMAAAAAAABQDBEcAAAAAAAAgGKI4AAAAAAAAAAUQwQHAAAAAAAAoBgiOAAAAAAAAADFEMEBAAAAAAAAKIYIDgAAAAAAAEAxRHAAAAAAAAAAiiGCAwAAAAAAAFAMERwAAAAAAACAYojgAAAAAAAAABRDBAcAAAAAAACgGCI4AAAAAAAAAMUQwQEAAAAAAAAohggOAAAAAAAAQDFEcAAAAAAAAACKIYIDAAAAAAAAUAwRHAAAAAAAAIBiiOAAAAAAAAAAFEMEBwAAAAAAAKAYIjgAAAAAAAAAxRDBAQAAAAAAACiGCA4AAAAAAABAMURwAAAAAAAAAIohggMAAAAAAABQDBEcAAAAAAAAgGKI4AAAAAAAAAAUQwQHAAAAAAAAoBgiOAAAAAAAAADFEMEBAAAAAAAAKIYIDgAAAAAAAEAxRHAAAAAAAAAAiiGCAwAAAAAAAFAMERwAAAAAAACAYojgAAAAAAAAABRDBAcAAAAAAACgGCI4AAAAAAAAAMUQwQEAAAAAAAAohggOAAAAAAAAQDFEcAAAAAAAAACKIYIDAAAAAAAAUAwRHAAAAAAAAIBiiOAAAAAAAAAAFEMEBwAAAAAAAKAYIjgAAAAAAAAAxRDBAQAAAAAAACiGCA4AAAAAAABAMURwAAAAAAAAAIohggMAAAAAAABQDBEcAAAAAAAAgGKI4AAAAAAAAAAUQwQHAAAAAAAAoBgiOAAAAAAAAADFEMEBAAAAAAAAKIYIDgAAAAAAAEAxRHAAAAAAAAAAiiGCAwAAAAAAAFAMERwAAAAAAACAYojgAAAAAAAAABRDBAcAAAAAAACgGCI4AAAAAAAAAMUQwQEAAAAAAAAohggOAAAAAAAAQDFEcAAAAAAAAACKIYIDAAAAAAAAUAwRHAAAAAAAAIBiiOAAAAAAAAAAFOP/ADMlxinxLZ6OAAAAAElFTkSuQmCC" vertex="1" parent="1">
          <mxGeometry x="40" y="40" width="600" height="400" as="geometry" />
        </mxCell>
      </root>
    </mxGraphModel>
  </diagram>
</mxfile>